<?xml version="1.0" encoding="utf-8"?>
<!-- Generator: Adobe Illustrator 19.2.1, SVG Export Plug-In . SVG Version: 6.00 Build 0)  -->
<svg version="1.1"
	 id="svg5599" inkscape:output_extension="org.inkscape.output.svg.inkscape" inkscape:version="0.91 r13725" sodipodi:docname="Comarcas de CataluÃƒÂ±a.svg" sodipodi:version="0.32" xmlns:cc="http://creativecommons.org/ns#" xmlns:dc="http://purl.org/dc/elements/1.1/" xmlns:inkscape="http://www.inkscape.org/namespaces/inkscape" xmlns:rdf="http://www.w3.org/1999/02/22-rdf-syntax-ns#" xmlns:sodipodi="http://sodipodi.sourceforge.net/DTD/sodipodi-0.dtd" xmlns:svg="http://www.w3.org/2000/svg"
	 xmlns="http://www.w3.org/2000/svg" xmlns:xlink="http://www.w3.org/1999/xlink" x="0px" y="0px" viewBox="0 0 2387.7 2321.3"
	 style="enable-background:new 0 0 2387.7 2321.3;" xml:space="preserve">
<style type="text/css">
	.st0{fill:#BEF9A0;stroke:#844040;stroke-width:6.0004;stroke-linejoin:round;stroke-opacity:0.7529;}
	.st1{font-family:'ArialMT';}
	.st2{font-size:30px;}
</style>
<sodipodi:namedview  bordercolor="#666666" borderopacity="1.0" fit-margin-bottom="50" fit-margin-left="50" fit-margin-right="50" fit-margin-top="50" height="400px" id="base" inkscape:current-layer="layer1" inkscape:cx="1094.9882" inkscape:cy="637.56512" inkscape:document-units="px" inkscape:object-nodes="true" inkscape:object-paths="false" inkscape:pageopacity="0.0" inkscape:pageshadow="2" inkscape:snap-grids="false" inkscape:snap-nodes="true" inkscape:snap-page="false" inkscape:snap-smooth-nodes="true" inkscape:snap-to-guides="false" inkscape:window-height="705" inkscape:window-maximized="1" inkscape:window-width="1366" inkscape:window-x="-8" inkscape:window-y="-8" inkscape:zoom="0.125" pagecolor="#ffffff" showgrid="false" width="425px">
	</sodipodi:namedview>
<g id="layer1" transform="translate(218.93846,1701.0757)" inkscape:groupmode="layer" inkscape:label="Capa 1">
	<path id="aran" inkscape:connector-curvature="0" class="st0" d="M281.1-1648.1l-14.3,5.6h-5.6l-2.8,8.6l-11.3,6.9l2.8,8.6l2.8,2.8
		l-1.5,8.4l1.5,7.1l1.3,6.9l-8.4,5.8l-4.3,8.4l-4.1,4.3l6.9,5.6l5.8,2.8l-5.8,4.1l-5.6,4.3l-8.4,9.9l12.8,1.3l4.3,2.8v7.1l2.8,4.3
		l2.8,7.1l1.3,1.3l4.3,5.6l-4.3,2.8l5.6,11.4l-4.1,5.6l-1.5,5.6v5.6l-4.1,1.5l-1.5-1.5h-4.3l4.3,7.1l4.3,1.3l4.1,12.8l5.8,5.8
		l4.1,2.8l2.8,14.1v17.1l9.9,6.9l8.4,4.3l11.4,2.8l2.8-1.5l7.1,3l8.4,1.3l16.9-4.3l9.9-2.8l4.3,1.5l5.6,4.3l2.8,8.4l7.1-2.8l6.9-4.3
		l3-4.3l5.6-4.1l11.3-4.3l2.8-5.6l4.3,2.8l5.6,2.8l4.3,2.8l-1.5,4.3l-1.3,2.8v2.8v1.5l4.1,1.3l5.6,2.8l4.3,5.6l1.3,5.8l7.1,4.1
		l7.1,1.5l4.3,1.3l6.9-5.6v-5.6l8.6-2.8l2.8-11.3H453l-2.8-7.1l2.8-2.8l1.5-7.1l4.1-5.6l2.8-9.9l7.1-25.5l2.8-5.6l-8.4-8.4l5.6-7.1
		l9.9-4.3l7.1-8.4l5.6,4.3l9.9-2.8l-4.3-12.8l4.3-5.6l1.3-7.1l1.5-12.8l1.3-4.3h-2.8l1.5-5.6v-8.4l4.1-7.1l1.5-6.9l-7.1,1.3
		l-15.6-5.6l-11.3,4.3l-4.3-1.5l-2.8-4.3l-1.5-4.1l-4.1-2.8l-2.8-2.8l-4.3-2.8l-9.9,4.1l-6.9,5.6l-1.5,5.8l-2.8-1.5l-8.4-4.3
		l-4.3-2.8l-4.3-4.1l-6.9-7.1l-11.4-7.1h-5.6l-8.4-11.3l-12.8-2.8h-5.6l-18.4-11.4l-7.1,1.5l-8.4,1.3l-7.1-1.3l-8.4-4.3l-17.1-5.6
		l-2.8-7.1l-8.4-4.1h-2.8L281.1-1648.1L281.1-1648.1z	">
<title  id="title4094">Comarques de Catalunya</title>
	</path>
	<path id="pallars-sobira" inkscape:connector-curvature="0" class="st0" d="M510.2-1571.6l-1.5,6.9l-4.1,7.1v8.4l-1.5,5.6h2.8
		l-1.3,4.3l-1.5,12.8l-1.3,7.1l-4.3,5.6l4.3,12.8l-9.9,2.8l-5.6-4.3l-7.1,8.4l-9.9,4.3l-5.6,7.1l8.4,8.4l-2.8,5.6l-7.1,25.5
		l-2.8,9.9l-4.1,5.6l-1.5,7.1l-2.8,2.8l2.8,7.1h4.3l-2.8,11.3l-8.6,2.8v5.6l-6.9,5.6l-4.3-1.3l4.3,7.1l1.3,2.8h9.9l7.1,6.9l1.3,19.9
		l5.6-1.5l5.8-1.3l8.4,16.9l8.4-2.8l4.3,7.1l2.8,7.1l2.8,1.3l-1.5,5.6l-1.3,5.8l4.1,5.6v2.8l-2.8,2.8l-2.8,4.3l1.5,11.3l-4.3,5.6
		v14.3l1.5,8.4l-2.8,16.9l9.8,12.8l4.3-1.3l2.8,5.6l-11.3,4.3l-2.8,14.1l-5.6,4.3l-7.1,4.1v7.1l-2.8,4.3l-2.8,9.8l-2.8,5.8
		l-1.5,11.3l-5.6,4.3l-2.8,5.6l-14.3-1.5l-2.8,5.6l-1.3,4.3v4.3l4.1,2.8l4.3,8.4h4.3l1.3,15.6h8.4l5.8,1.3l4.1,4.3h8.4l7.1,8.4
		l1.5-4.1l5.6,2.8l2.8,2.8l11.3,1.3l8.6,4.3h6.9l9.9,1.5l12.8,4.1h1.5l-1.5-4.1l4.3,1.3l4.1,4.3l7.1,5.6l11.3,2.8l2.8,1.5v-4.3
		l4.3-4.3v-6.9l-4.3-5.8l-4.1-2.8l-15.6-9.8l5.6-5.8l1.5-5.6h8.4l12.8-1.3v-4.3l8.4-12.8l-1.5-1.3l8.6-9.9l2.8-9.9l8.4-1.5l7.1-8.4
		l18.4-8.4v-1.5l7.1-12.8v-28.1l2.8-4.3h8.4l-1.5-11.3l-4.1-11.4l4.1-8.4l2.8,2.8l4.3,2.8l2.8,2.8l7.1-1.3l7.1-2.8h2.8l6.9-1.5
		l8.6,4.3l4.1-4.3l11.4-16.9l4.1-7.1v-5.6l11.4-4.3l1.3-5.6l1.5-5.6v-1.5v-9.9v-8.4l5.6,1.5l2.8,4.1l9.9-5.6l5.6-7.1l7.1-2.8
		l4.1-4.1l4.3-9.9l2.8-9.9l12.8-8.4l1.3-4.3l-2.8-2.8l-8.4-7.1v-6.9l5.6-2.8l5.6-11.4l-2.8-1.3l-4.1-5.8l-2.8-4.1v-4.3l-4.3-4.1
		l-4.3-14.3l-1.3-7.1v-8.4l-5.6-2.8l-4.3-9.9l-8.4-1.3l1.3-7.1v-8.4l-5.6-7.1l-11.3-2.8l-7.1-5.6v-7.1l2.8-5.6v-5.6l-11.3,1.3
		l-4.3-4.1l-4.1-1.5l-8.6,4.3h-14.1l-9.9,4.1l-2.8-1.3l-7.1-1.5l-4.1,2.8h-5.8l-2.8-2.8l-5.6-6.9l-8.4-3l-7.1,5.8h-8.4l-11.3,2.8
		l-8.6,4.1l-5.6,4.3l-7.1-2.8l-5.6-4.3l-4.1-6.9l-8.6-4.3v-7.1l-1.3-4.1v-11.4l-5.6-8.4l-7.1-4.3l-2.8-5.6l-12.8-7.1l-4.3-4.1
		l-2.8-5.6l-2.8,1.3l-21.2,4.3l-1.5-2.8L510.2-1571.6L510.2-1571.6z	">
<title  id="title4068">Pallars Sobirà</title>
	</path>
	<path id="alta-ribagorça" inkscape:connector-curvature="0" class="st0" d="M394.2-1427.4l-2.8,5.6l-11.3,4.3l-5.6,4.1l-3,4.3
		l-6.9,4.3l-7.1,2.8l-2.8-8.4l-5.6-4.3l-4.3-1.5l-9.9,2.8l-16.9,4.3v1.5l-7.1,15.6v15.6l-4.3,11.3l-2.8,9.9l-6.9,7.1l5.6,9.8
		l-5.6-1.3l-4.3-4.3l-8.4,11.3v7.1l-1.5,7.1l5.6,2.8l5.8,4.3l-3,1.3l-2.8,7.1l-11.3,8.4l-4.3-2.8l-5.6-2.8l-1.3,7.1h-4.3l-1.5,1.3
		l11.4,24.2v9.8l4.1,17.1l9.9,8.4l4.3,9.9l-4.3,4.3l-1.3,2.8l6.9,5.6l4.3,15.6l-2.8,5.6l-2.8,1.3l-1.5,4.3l-8.4,2.8l7.1,5.6l4.1,1.5
		l7.1,2.8l7.1,1.5h1.3l-1.3-1.5l1.3-5.6l4.3-5.6l4.3-4.3l8.4,1.5l1.5,1.3h1.3h1.5l4.1,5.6l7.1,7.1l-1.5,4.3l-4.1,1.3l-1.5,2.8
		l-12.8,2.8h-5.6l-4.1-2.8l-3,1.5l4.3,4.1l7.1,3l-4.3,5.6l15.6,8.4l2.8,4.3h5.6l7.1,5.6l21.2,2.8l7.1,7.1l11.3,6.9l9.9-5.6v-12.8
		l1.5-6.9l1.3-7.1l-9.9-7.1h-2.8v-5.6l-1.3-1.5l-1.5-5.6v-4.1l-2.8-8.6l-11.3-1.3l-4.3-4.3l-2.8-7.1h-1.3l-8.6-14.1l8.6-7.1
		l-7.1-12.8l5.6-8.4h17.1l4.1-2.8l7.1-12.8l-9.9-12.8h2.8l4.3-5.6l8.4,1.5h1.5l8.4-15.6l8.4-2.8l12.8-4.3l1.5-7.1l-1.5-7.1v-4.1
		l5.6-7.1l1.5-4.3l9.9-1.3v-5.6l5.6-2.8l4.1-4.3l-1.3-7.1l2.8-2.8l2.8-4.1l5.6-4.3l-1.3-19.9l-7.1-6.9h-9.9l-1.3-2.8l-4.3-7.1
		l-7.1-1.5l-7.1-4.1l-1.3-5.8l-4.3-5.6l-5.6-2.8l-4.1-1.3v-1.5v-2.8l1.3-2.8l1.5-4.3l-4.3-2.8l-5.6-2.8L394.2-1427.4L394.2-1427.4z	
		">
<title  id="title4032">Alta Ribagorça</title>
	</path>
	<path id="cerdanya" inkscape:connector-curvature="0" class="st0" d="M948.6-1294.4l-4.1,8.4l-1.5,12.8l-1.3,7.1l-2.8,7.1h-4.3
		l-5.6-1.5h-4.3l-4.1,4.3l-7.1-2.8l-7.1,1.3l-8.4-2.8l-5.6,2.8l-7.1,12.8l11.3,8.4l2.8,14.3v2.8l8.6,7.1l5.6,6.9l15.6,9.9l5.6,7.1
		l2.8,14.1l-2.8,11.4h2.8l1.5,2.8l-5.8,11.3l5.8,11.4l-2.8,4.1l-4.3,45.4l7.1,5.6h6.9l1.5-2.8l5.6-1.5h8.4h4.3l1.5,1.5l8.4-4.3
		l2.8,4.3h11.3h1.5l4.1-7.1h11.4h9.9l5.6,1.3l6.9-4.1h5.8v-2.8l5.6-4.3l8.4,2.8l7.1-1.3l5.6-4.3h4.3l8.4-4.3l5.6-2.8l2.8,1.5
		l5.6-1.5h1.5l5.6-1.3l4.3-1.5l2.8-4.1l8.4-1.5l11.3,5.6l12.8,1.5l1.5,6.9l7.1-5.6l2.8,2.8l2.8-15.6l4.1-4.1h5.8l4.1,1.3l8.4-4.1
		v-8.6l2.8,3h5.8l8.4-5.8l-2.8-4.1l-5.6-4.3h-2.8l-4.3-2.8l-4.3-2.8l-4.1-7.1l-4.3-2.8l-5.6-5.6l-1.5-8.4l-1.3-2.8l-1.5-9.9
		l-2.8-7.1l1.5-14.1l-11.4-7.1v-8.4l-1.3-11.4l-5.6-1.3l-7.1,4.1h-8.4h-1.5l-5.6-1.3l-5.6,1.3l-2.8-1.3l-2.8-8.4l-12.8-7.1l-2.8,2.8
		l-7.1-4.3l-2.8-5.6l-8.4-9.9l-7.1-1.3l-4.3,1.3l-9.9-6.9l-12.8,4.1l-11.3-2.8l-5.6,1.5l-4.3-4.3l-5.6-2.8l-11.3,1.5l-4.3-9.9
		l-4.3,1.3l-9.8,8.6l-11.4-3h-6.9L948.6-1294.4L948.6-1294.4z M1165.2-1281.7v1.5l-1.5,2.8v2.8l-4.1,2.8l-7.1,5.6l-4.3,18.4l2.8,2.8
		l17.1,7.1l19.7-1.5l1.5-2.8l-1.5-1.3l-2.8-2.8l-11.3-9.9l-2.8-5.6l4.1-11.4h3l-8.6-8.4L1165.2-1281.7L1165.2-1281.7z	">
<title  id="title4048">Cerdanya</title>
	</path>
	<path id="alt-urgell" inkscape:connector-curvature="0" class="st0" d="M788.9-1335.5l-15.6,7.1l-4.3,1.5l-4.1,4.1l-7.1,2.8
		l-5.6,7.1l-9.9,5.6l-2.8-4.1l-5.6-1.5v8.4v9.9v1.5l-1.5,5.6l-1.3,5.6l-11.4,4.3v5.6l-4.1,7.1l-11.4,16.9l-4.1,4.3l-8.6-4.3
		l-6.9,1.5h-2.8l-7.1,2.8l-7.1,1.3l-2.8-2.8l-4.3-2.8l-2.8-2.8l-4.1,8.4l4.1,11.4l1.5,11.3h-8.4l-2.8,4.3v28.1l-7.1,12.8v1.5
		l-18.4,8.4l-7.1,8.4l-8.4,1.5l-2.8,9.9l-8.6,9.9l1.5,1.3l-8.4,12.8v4.3l-12.8,1.3h-8.4l-1.5,5.6l-5.6,5.8l15.6,9.8l4.1,2.8l4.3,5.8
		v6.9l-4.3,4.3v4.3l-1.3,1.3l5.6,11.4l-12.8,8.4v5.6l2.8,5.6l12.8,5.6h1.5l1.3,17.1l-5.6,5.6l-1.3,4.3l4.1,1.3l9.9,7.1l4.3,7.1v4.1
		l-2.8,1.5v2.8l-1.5,5.6l-4.3,5.6h-4.1l-1.5,2.8h-2.8v4.3l-1.3,5.6l-3,5.6v11.4h5.8l1.3,4.1l-1.3,8.6l-1.5,5.6l2.8,14.1v5.6l5.6-1.3
		h1.5l2.8-2.8l1.5-1.5l2.8,1.5l8.4-2.8l4.1,9.8l4.3,1.5l2.8-1.5l2.8,3v6.9l9.9,2.8v2.8l2.8,2.8l1.5,9.9l-5.6,2.8l4.1,11.4l-2.8,9.9
		l1.5,2.8l8.4,12.8l-1.5,1.3l4.3,1.5l7.1,5.6l-2.8,8.4l-1.5,1.5v12.6l2.8,3l-8.4,28.1l-2.8,4.3l4.1-1.3l5.8-1.5l18.4-14.1l1.3,1.3
		l2.8-1.3l-2.8-4.3l2.8-4.3l1.5-1.3l1.3-4.3l-1.3-1.3h2.8l2.8-8.6l5.6-5.6l-2.8-2.8v-1.3h2.8l8.6,1.3l2.8,1.5h6.9l7.1-2.8h2.8
		l11.3-8.6l-2.8-8.4l-2.8-8.4l1.5-8.6h1.3l-1.3-8.4l2.8-4.1L721-863l1.3-7.1v-18.4v-2.8l-2.8-1.3l-2.8,2.8h-2.8l-9.9-4.3l-6.9-15.6
		l2.8-18.4l5.6-5.6l4.1-1.5l1.5-1.3l4.3-1.5l1.3-4.1h4.3l2.8-1.5l4.3-8.4l-4.3-2.8l-1.5-1.5v-4.3h1.5l2.8-1.3l1.5,1.3v-1.3h1.3
		l8.4-4.3l5.8,2.8h6.9l14.3-6.9h9.9l1.3,5.6l9.9,7.1l19.7-11.4l17.1-12.8l14.1-11.3l1.5-4.3l4.3-2.8v-11.3l12.8-4.3l15.6,1.5
		l8.4,2.8l12.8,4.3h11.3l-1.5-11.4l9.9-18.4l1.5-5.6l5.6-5.6l2.8-2.8l14.3-5.6h2.8l5.6-1.5l9.9-1.5v-2.8l6.9-4.1l-2.8-12.8
		l-12.8-2.8h-6.9l-7.1-5.6l4.3-45.4l2.8-4.1l-5.8-11.4l5.8-11.3l-1.5-2.8h-2.8l2.8-11.4l-2.8-14.1l-5.6-7.1l-15.6-9.9l-5.6-6.9
		l-8.6-7.1v-2.8l-2.8-14.3l-11.3-8.4l-5.6-2.8l-5.6-4.3h-4.3l-1.5,4.3l1.5,5.6l-4.3,5.6l-1.3,7.1l-12.8,1.5l-11.3,2.8l-14.3-4.3
		l-11.3-1.3l-12.8-1.5l-11.4-2.8l-2.8-5.6h2.8l-2.8-5.6l2.8-9.9l-4.1-4.3l1.3-9.9l-8.4-6.9l-7.1-1.5l4.3-7.1l14.1-4.1l15.6-14.3
		l-8.4-15.6l-1.3-9.8L788.9-1335.5L788.9-1335.5z M691.2-812l-2.8,1.3v2.8l2.8,4.3h1.5l1.5-1.5v-2.8v-4.1H691.2L691.2-812z	">
<title  id="title4030">Alt Urgell</title>
	</path>
	<path id="alt-emporda" inkscape:connector-curvature="0" class="st0" d="M1845.5-1266.1l-12.8,9.9l-4.1,11.3l-5.6,2.8l-11.4-2.8
		l-12.8-2.8l-8.4-5.6l-4.1,4.3l-1.5,8.4l-15.6-4.3l-4.3,5.6l-1.3,8.6l-4.3,5.6l-5.6-1.5l-7.1,8.6l-1.3-1.5l-5.6,12.8h-3l-6.9,1.3
		l-4.3,4.3l-4.3,1.5l-4.1-4.3l-5.6-7.1l-12.8-1.3l-11.4,1.3l-11.3,8.6l-11.3,6.9h-7.1l-7.1,4.3v14.1l-4.1,1.5l-8.6-2.8l4.3,6.9
		l1.5,7.1v2.8l2.8,7.1l5.6,2.8l1.3,9.9v7.1l-6.9,1.3l-5.8-1.3l-5.6-1.5h-6.9l-4.3-2.8h-15.6l-5.6-2.8l-9.9-4.3v-2.8l-8.4-1.3
		l-14.3,4.1l-1.3,5.6l-2.8,5.8l-5.8,8.4l9.9,9.9l5.6,4.1l9.9-4.1l1.5-2.8l8.4-1.5l15.6,9.9l-1.3,2.8l2.8,2.8l2.8,1.5l6.9-3v8.6
		l-1.3,6.9l11.3-1.3l8.4,1.3l4.3,8.6l2.8,14.1l-2.8,4.3v2.8l5.6,1.3v4.3l1.5,1.5l1.3-4.3v-1.5h9.9l-8.4-6.9l4.3-1.5l14.1,1.5
		l2.8,5.6l-2.8,5.6l-1.5,5.6l3,2.8l8.4-1.3l2.8,5.6l4.3-5.6l1.3-8.4l1.5-3l12.8,4.3l15.4,7.1l-1.3,12.8l7.1,9.8l-2.8,5.8l2.8,8.4
		l2.8,8.4v1.5l1.3,2.8l15.6-2.8l4.3,2.8h11.3l4.3-2.8l-1.5,1.3v1.5v8.4l-4.1,7.1l5.6,4.1l8.4-1.3l1.5-1.5l4.1-4.1l2.8-9.9l1.5-2.8
		l7.1,4.1l4.1,1.5l-1.3,9.9h2.8l7.1,4.1l2.8,3v8.4l1.3,2.8l1.5,1.3l-1.5,1.5l-5.6,7.1l4.3,4.1v4.3l4.1,4.3v9.8v5.8l2.8,12.6h4.3
		l7.1-4.1l5.6-1.5l2.8,1.5l9.9,1.3l5.6,1.5h4.3l11.3-2.8l5.6-4.3l8.4-4.1v-5.8v-4.1h1.5l1.5-4.3h4.1l2.8,4.3h2.8l1.5,4.1l1.3,1.5
		l4.3,1.3l8.4,5.8h1.5l4.1,9.8h4.3l1.5-2.8l6.9-2.8l8.6-1.3h1.3l7.1-2.8l2.8-2.8l2.8-3l4.3,8.6l5.6,1.3v5.6v7.1l12.8-4.1l4.1,8.4
		l18.4-8.4l5.8-1.5l2.8,1.5l2.8-1.5l1.3-1.5l-1.3-1.3h-1.5l-1.3-2.8l-1.5,1.3h-2.8l-2.8-1.3l-5.6-4.3l-1.5-1.3v1.3h-1.3h-1.5
		l1.5,1.5l-1.5,1.3h-1.3h-2.8h-2.8l1.3-5.6l-1.3-4.3h-1.5h-1.5h-5.6l-1.3-5.6v-2.8l-1.5-1.3l-2.8-8.6l-2.8-26.8l-1.5-26.8l1.5-8.6
		l4.3-11.3l4.1-11.3l7.1-9.9l2.8-5.6l8.4-7.1l4.3-2.8l7.1-1.5h2.8l2.8,3l2.8,1.3l1.3,1.5v1.3h-1.3v1.5h1.3v2.8h-1.3h-1.5v1.3h2.8
		v1.5l1.5,1.3v1.5h5.6l2.8-1.5l1.5,4.3l4.1,1.5l4.3,1.3l-1.3,1.5l5.6,2.8l2.8,2.8l1.3-2.8l2.8-2.8v-1.5h3l-1.5-2.8l1.5-1.3l-1.5-4.3
		l1.5-2.8l5.6,4.1l1.3-2.8l2.8,1.5l2.8,5.6l5.8,4.3l4.1,1.3l1.5-1.3l1.3-4.3l-1.3-1.3h-2.8h-2.8l-1.5-1.5l1.5-1.5v-5.6l1.3,1.5h4.3
		l4.1-1.5h5.8l2.8-1.3v-2.8l4.1-8.6l-1.3-4.1l-1.5-1.5l-1.3-1.3l-2.8-5.8l1.3-1.3v-1.5l-1.3-1.3v-1.5l2.8-1.3l2.8,1.3l4.1,2.8
		l1.5,1.5v-1.5h2.8v-2.8l-1.5-4.1h-2.8l-2.8-2.8l1.5-1.5l1.3-2.8l-1.3-1.5l1.3-2.8h-2.8l1.5-2.8l2.8-1.3l1.3,1.3l3,1.5v-2.8l2.8-2.8
		l2.8-1.5v-1.5l4.1-1.3l-1.3-2.8l4.1,2.8l-1.3-2.8l4.3-1.5l-1.5-1.3l-5.6-4.3v4.3l-2.8-2.8v-2.8h-1.5v1.3l-8.4-4.1l-1.5,1.3
		l-1.3-1.3l-2.8,2.8v-5.8h-2.8l-1.5-1.3l-1.3-1.5l-9.9-4.1h-1.5v2.8l-1.3,1.3v1.5h-4.3h-1.3v2.8h-1.5l-2.8-5.6l-2.8,1.3v-2.8
		l-2.8-4.1v-4.3l-2.8-1.5l-1.5-1.3l-2.8-1.5l-2.8,2.8h-5.6l-2.8,1.5l-1.5,2.8v-1.3h-2.8h-1.5l-2.8,4.1h1.5h1.3v1.5l-1.3,2.8
		l-2.8,1.3l-8.4-6.9l1.3-7.1v-1.5h-1.3v1.5h-1.5l-1.5-1.5l1.5-1.3h-1.5h-1.3l-1.5-1.5h-1.3l-2.8-2.8l-2.8-1.3l-1.5-2.8v-4.3v-4.3
		v-2.8h-1.3v1.5l-1.5,1.3h-1.5v-4.1l-1.3-4.3l4.3-4.3l2.8-4.1h-1.5l-2.8-1.5l-5.6-1.3l2.8-4.3l5.6-4.3l-1.3-2.8h-4.3l4.3-6.9
		l1.3-2.8l2.8-1.5v-4.3h-1.3l1.3-4.1l-5.6-2.8l1.5-2.8h4.1l4.3-3l-1.5-1.3h-6.9l-4.3,1.3h-5.6h-4.3l-12.8-1.3l-4.1-1.5l-7.1,1.5
		l-4.3,5.6v2.8l-8.4,1.5h-2.8l-7.1-8.6l-2.8-1.3l-2.8-4.3l-4.3-4.1l-8.4-8.6l-2.8-8.4l-4.3-11.3h-5.6l-6.9,2.8l-5.8,4.1l-8.4-4.1
		l-8.4-4.3l-7.1,7.1l-8.4,2.8l-9.9-11.3L1845.5-1266.1L1845.5-1266.1z M2090.2-1085l1.5-4.3h-1.5l-1.3,2.8L2090.2-1085L2090.2-1085z
		 M1985.6-922.4v-1.3l-1.3,1.3H1985.6z M2052.2-1133.2v1.5h1.3L2052.2-1133.2z M2107.3-1116.1l1.5,1.3v-1.3H2107.3z M2115.7-1113.3
		v1.3V-1113.3z M2098.8-1086.5h1.3H2098.8z	">
<title  id="title4026">Alt Empordà</title>
	</path>
	<path id="garrotxa" inkscape:connector-curvature="0" class="st0" d="M1547.2-1126l-3,8.4l3,5.6l2.8,11.4l-4.3,14.1l17.1,1.5
		l6.9,4.1l-8.4,2.8l-5.6,2.8h-5.6l-14.3-2.8l-2.8-4.1v-15.6l-7.1,2.8l-9.8-1.5l2.8,12.8l-15.6,8.4l-7.1-4.1l-2.8,2.8l-12.8-7.1
		l-1.5,4.3l-2.8-1.5l-6.9-1.3l-5.8,4.1v5.8l-12.6,4.1l-8.6,5.6l1.5,2.8l2.8,7.1v1.5l-5.6,2.8l-9.9,4.1l-7.1,1.5l-4.1,2.8v4.3
		l1.3,6.9l8.4,2.8l7.1-1.3l4.3-1.5l-5.6,12.8h-2.8l-7.1,2.8l-14.3,1.5l4.3,4.3l5.6,4.1l1.5,7.1l8.4,7.1v15.6l7.1-4.3v4.3l4.1,1.3
		l5.6,2.8v2.8l-6.9-1.3l-1.5,2.8l-11.3,4.1l-2.8,5.8l-2.8,4.1l1.3,8.6l9.9,6.9l5.6,4.3l5.6,2.8l-4.1,5.6l-1.5,1.5l1.5,6.9l2.8,5.8
		h12.8l1.3,1.3l-4.1,9.9l1.3,1.5v1.3l5.6,8.4l2.8,4.3v2.8l7.1,7.1l4.3,1.3l4.1-1.3l12.8-8.6l1.5-4.1l4.3,1.3l6.9,2.8l2.8,3l1.5,5.6
		l4.3-2.8h8.4l4.1,5.6v2.8l4.3,5.6l7.1,5.6l4.1,7.1l11.4,11.3l6.9-2.8l1.5-6.9l4.3-5.8l6.9,1.5l5.8,4.3l5.6,2.8l6.9-1.5l1.5-5.6
		l4.3-5.6v-1.5l4.1,4.3l-2.8,4.1l2.8,4.3l7.1,9.9l1.5,2.8l8.4,1.5l4.1,6.9l2.8,1.5l1.5-4.3h2.8l5.6,2.8l8.6-1.3l-7.1-8.6l-7.1-5.6
		l-1.3-5.6l-5.8-1.3v-8.6l4.3-5.6v-5.6l-1.5-2.8l1.5-7.1l-2.8-7.1v-5.6l-1.5-5.6l2.8,1.5l7.1-4.3l2.8-7.1l2.8-11.3h2.8l-1.3-5.6
		l7.1-5.6l-1.5-8.6l-4.3-2.8l3-7.1l-3-5.6v-6.9l7.1-3v-15h9.9l1.5,1.3l-4.3,2.8l18.4-2.8h2.8l11.3-11.3l9.9,4.1l15.6-4.1l7.1-2.8
		h1.3l-2.8-8.6v-5.6l2.8-2.8l5.8-5.6l-2.8-8.4l2.8-5.8l-7.1-9.8l1.3-12.8l-15.4-7.1l-12.8-4.3l-1.5,3l-1.3,8.4l-4.3,5.6l-2.8-5.6
		l-8.4,1.3l-3-2.8l1.5-5.6l2.8-5.6l-2.8-5.6l-14.1-1.5l-4.3,1.5l8.4,6.9h-9.9v1.5l-1.3,4.3l-1.5-1.5v-4.3l-5.6-1.3v-2.8l2.8-4.3
		l-2.8-14.1l-4.3-8.6l-8.4-1.3l-11.3,1.3l1.3-6.9v-8.6l-6.9,3l-2.8-1.5l-2.8-2.8l1.3-2.8l-15.6-9.9l-8.4,1.5l-1.5,2.8l-9.9,4.1
		l-5.6-4.1l-9.9-9.9L1547.2-1126L1547.2-1126z	">
<title  id="title4056">Garrotxa</title>
	</path>
	<path id="pallars-jussa" inkscape:connector-curvature="0" class="st0" d="M470.7-1352.4l-5.8,1.3l-5.6,1.5l-5.6,4.3l-2.8,4.1
		l-2.8,2.8l1.3,7.1l-4.1,4.3l-5.6,2.8v5.6l-9.9,1.3l-1.5,4.3l-5.6,7.1v4.1l1.5,7.1l-1.5,7.1l-12.8,4.3l-8.4,2.8l-8.4,15.6h-1.5
		l-8.4-1.5l-4.3,5.6h-2.8l9.9,12.8l-7.1,12.8l-4.1,2.8h-17.1l-5.6,8.4l7.1,12.8l-8.6,7.1l8.6,14.1h1.3l2.8,7.1l4.3,4.3l11.3,1.3
		l2.8,8.6v4.1l1.5,5.6l1.3,1.5v5.6h2.8l9.9,7.1l-1.3,7.1l-1.5,6.9v12.8l-9.9,5.6l-11.3-6.9l-7.1-7.1l-21.2-2.8l-7.1-5.6h-5.6
		l-2.8-4.3l-15.6-8.4l4.3-5.6l-7.1-3l-4.3-4.1l-4.1,1.3l-1.5,2.8l-5.6,3l-2.8,1.3v2.8l2.8,8.4l5.6,1.5l4.3,1.5l4.3,1.3l-8.6,8.4
		l1.5,4.3l-8.4,9.9l-1.5,11.3l-2.8,5.6l-2.8,14.3l-1.5,12.8l-4.1,5.6l-2.8,9.9l-8.6,9.8l1.5,5.8l-1.5,8.4l-4.1,7.1l-1.5,8.4
		l-7.1,19.7l1.5,3l9.9,5.6l-7.1,4.1l-5.6,7.1v7.1v14.1l1.3,2.8l1.5,4.3l-1.5,8.4l-4.1,11.4l-4.3,5.6l-4.3,8.4l-2.8,9.9l2.8,8.4
		l9.9,8.4l12.8,5.6l19.9,1.5l1.3,4.3l8.6,5.6l8.4,1.3l19.9-4.1l5.6,2.8l21.2,2.8l11.3,4.3l14.3-1.5l11.3-4.3v1.5l1.5,2.8l4.1,2.8
		l17.1,12.8l19.7-1.5l7.1,3l5.6,1.3l21.2-1.3h8.6l8.4-11.4l5.6,2.8l11.3-2.8l17.1-1.3l4.3,9.8v18.6l5.6-1.5l6.9-18.4l-2.8-7.1
		l-8.4-9.9l7.1-6.9l2.8-1.5l5.6-8.4l1.5-5.6l6.9-12.8l5.8-4.3l4.1-5.6l2.8-8.4l7.1-11.4l2.8-4.1l4.3,4.1l1.3-1.3l2.8,1.3l2.8-6.9
		v-11.4l3-5.6l1.3-5.6v-4.3h2.8l1.5-2.8h4.1l4.3-5.6l1.5-5.6v-2.8l2.8-1.5v-4.1l-4.3-7.1l-9.9-7.1l-4.1-1.3l1.3-4.3l5.6-5.6
		l-1.3-17.1h-1.5l-12.8-5.6l-2.8-5.6v-5.6l12.8-8.4l-5.6-11.4l1.3-1.3l-2.8-1.5l-11.3-2.8l-7.1-5.6l-4.1-4.3l-4.3-1.3l1.5,4.1h-1.5
		L537-1085l-9.9-1.5h-6.9l-8.6-4.3l-11.3-1.3l-2.8-2.8l-5.6-2.8l-1.5,4.1l-7.1-8.4h-8.4l-4.1-4.3l-5.8-1.3h-8.4l-1.3-15.6H451
		l-4.3-8.4l-4.1-2.8v-4.3l1.3-4.3l2.8-5.6l14.3,1.5l2.8-5.6l5.6-4.3l1.5-11.3l2.8-5.8l2.8-9.8l2.8-4.3v-7.1l7.1-4.1l5.6-4.3
		l2.8-14.1l11.3-4.3l-2.8-5.6l-4.3,1.3l-9.8-12.8l2.8-16.9l-1.5-8.4v-14.3l4.3-5.6l-1.5-11.3l2.8-4.3l2.8-2.8v-2.8l-4.1-5.6l1.3-5.8
		l1.5-5.6l-2.8-1.3l-2.8-7.1l-4.3-7.1l-8.4,2.8L470.7-1352.4L470.7-1352.4z M315-1185.5l-4.3,4.3l-4.3,5.6l-1.3,5.6l1.3,1.5l5.8,4.1
		l-2.8,2.8l4.1,2.8h5.6l12.8-2.8l1.5-2.8l4.1-1.3l1.5-4.3l-7.1-7.1l-4.1-5.6h-1.5H325l-1.5-1.3L315-1185.5L315-1185.5z	">
<title  id="title4066">Pallars Jussà</title>
	</path>
	<path id="solsones" inkscape:connector-curvature="0" class="st0" d="M855.4-1015.8l-12.8,4.3v11.3l-4.3,2.8l-1.5,4.3l-14.1,11.3
		L805.6-969l-19.7,11.4l-9.9-7.1l-1.3-5.6h-9.9l-14.3,6.9h-6.9l-5.8-2.8l-8.4,4.3h-1.3v1.3l-1.5-1.3l-2.8,1.3h-1.5v4.3l1.5,1.5
		l4.3,2.8l-4.3,8.4l-2.8,1.5h-4.3l-1.3,4.1l-4.3,1.5l-1.5,1.3l-4.1,1.5l-5.6,5.6l-2.8,18.4l6.9,15.6l9.9,4.3h2.8l2.8-2.8l2.8,1.3
		v2.8v18.4L721-863l2.8,1.5l-2.8,4.1l1.3,8.4H721l-1.5,8.6l2.8,8.4l2.8,8.4l-11.3,8.6H711l-7.1,2.8H697l-2.8-1.5l-8.6-1.3h-2.8v1.3
		l2.8,2.8l-5.6,5.6l-2.8,8.6h-2.8l1.3,1.3l-1.3,4.3l-1.5,1.3l-2.8,4.3l2.8,4.3v2.8l11.4,2.8l2.8,5.6l-2.8,9.9l-9.9,14.1l9.9-2.8
		l1.3,5.6l4.3,7.1v8.4v7.1l2.8,4.3l1.5-1.5l5.6-4.3l2.8-4.1v-2.8l4.1-4.3l5.8,2.8l4.1-14.1l8.4-4.3h4.3l2.8-1.3l4.3-1.5l11.3,12.8
		h1.5l4.1-1.5l15.6,11.4l-2.8,8.4l9.9-2.8l4.3,8.4l12.8,4.3l8.4-14.3l5.6-5.6l11.3,4.3l1.5,9.9v6.9v11.4l-1.5,2.8l2.8,11.3l-5.6,9.9
		L810-667l-9.9,5.6l11.4,8.4l2.8,5.6l11.3-4.1v1.3l-14.1,8.4l-11.4,8.6l-2.8,2.8l-1.3,11.3v5.6l-1.5,4.3l-5.6,2.8l4.3,4.3h2.8
		l1.3-1.5l2.8-1.3l4.3,2.8v-2.8l2.8-3l-1.5-8.4l1.5-2.8l-1.5-1.3l14.3,2.8l4.3,12.8v2.8h5.6l2.8,4.1l2.8,2.8l4.3,1.5l-3,5.6l1.5,4.3
		h2.8l-1.3-4.3h8.4l4.1-12.8l7.1-1.3v-5.8l2.8,1.5l5.6-2.8l1.5-1.5l5.6,5.8l8.4-1.5l-1.3-2.8l5.6-8.4l-2.8-5.8l1.3-1.3h-2.8v-2.8
		l-2.8-4.3l2.8-7.1l12.8-6.9l2.8-11.4l-2.8-5.6l9.9-2.8l4.3-5.6l-2.8-2.8l2.8-8.4l-2.8-8.6v-1.3l-5.8-11.4l-8.4-2.8l-4.1-1.3
		l-8.6,7.1l-4.1,2.8l-9.9-7.1l5.6-8.4l5.6-2.8v4.1h1.5l9.9-14.1l2.8,1.3l8.4-2.8l4.3-6.9l6.9-7.1l5.6-7.1h3l4.1,1.5l2.8-1.5
		l-6.9-12.8l4.1-2.8v-4.3l-2.8-2.8l2.8-4.1v-1.5l-1.3-7.1l4.1-12.6l1.5-1.5l2.8,1.5l1.3-3l4.3-2.8l7.1,2.8l-5.6,9.9l2.8,2.8l6.9,1.5
		l8.6-4.3v-1.3l8.4-4.3l9.9-7.1l-2.8-5.6v-4.1l1.3-4.3l-6.9-2.8v-2.8l-5.8-7.1h-2.8l-2.8,8.4l7.1,11.4l-2.8,1.3l-1.5,7.1l-1.3-1.5
		l-1.5-4.1l-2.8-2.8l-5.6-1.5l-7.1,1.5l-4.1,1.3v-8.4l-4.3-2.8l-1.5,2.8l1.5,1.5l-4.3,5.6v-4.3l-2.8-2.8l2.8-4.3v-6.9l2.8-7.1
		l2.8-2.8h4.3l-1.3,8.4l1.3,2.8l-2.8,4.3l2.8,2.8l4.3-4.3l-1.5-5.6l4.3-5.6l4.1-2.8l5.8-4.3h5.6l1.3-2.8l-2.8-4.3l1.5-2.8l-1.5-5.6
		l-2.8-2.8l-4.1-2.8l-3,5.6l-1.3,4.3l-4.3-2.8v-4.3l1.5-5.6l1.3-7.1l9.9-14.1v-2.8v-4.3l1.5-5.6l12.8,4.3l5.6-3l4.1-4.1v-8.4
		l-8.4-1.5l-4.1-4.3l2.8-2.8l1.3-6.9l1.5-3l-2.8-2.8l-7.1-5.6v-4.1l11.3-19.9l5.6,2.8l8.6-8.4l2.8-4.3l-1.5-7.1l1.5-5.6l-2.8-4.1
		l-1.5-1.5l-4.3,8.4l1.5,5.8l-8.4,2.8l-5.6,4.1l-2.8-5.6l-4.3-2.8l-7.1-4.3H953l1.5,4.3l-1.5,2.8l-1.3-7.1l-3,5.8l-2.8-4.3L943-979
		v7.1h-2.8l-1.3-1.3h-2.8l-5.8-4.3l2.8-1.5l-2.8-5.6l-6.9-14.1l1.3-4.3l-9.9-1.3H912l-5.6-4.3l-2.8,1.5h-11.3l-12.8-4.3l-8.4-2.8
		L855.4-1015.8L855.4-1015.8z M947.3-925.2l11.3,2.8l-2.8,5.6l1.5,1.5l-21.2-1.5l-9.9-5.6l-1.5-1.3L947.3-925.2L947.3-925.2z
		 M691.2-812h3v4.1v2.8l-1.5,1.5h-1.5l-2.8-4.3v-2.8L691.2-812L691.2-812z M965.7-717.3l2.8,5.6h-2.8l5.6,2.8l1.5,4.3l5.6-9.9
		l-4.3-2.8l-2.8,4.3l-2.8-4.3L965.7-717.3L965.7-717.3z	">
<title  id="title4086">Solsonès</title>
	</path>
	<path id="bergueda" inkscape:connector-curvature="0" class="st0" d="M1111.4-1120.4l-8.4,1.5l-2.8,4.1l-4.3,1.5l-5.6,1.3h-1.5
		l-5.6,1.5l-2.8-1.5l-5.6,2.8l-8.4,4.3h-4.3l-5.6,4.3l-7.1,1.3l-8.4-2.8l-5.6,4.3v2.8h-5.8l-6.9,4.1l-5.6-1.3h-9.9h-11.4l-4.1,7.1
		h-1.5h-11.3l-2.8-4.3l-8.4,4.3l-1.5-1.5h-4.3H953l-5.6,1.5l-1.5,2.8l12.8,2.8l2.8,12.8l-6.9,4.1v2.8l-9.9,1.5l-5.6,1.5h-2.8
		l-14.3,5.6l-2.8,2.8l-5.6,5.6l-1.5,5.6l-9.9,18.4l1.5,11.4l2.8-1.5l5.6,4.3h2.8l9.9,1.3l-1.3,4.3l6.9,14.1l2.8,5.6l-2.8,1.5
		l5.8,4.3h2.8l1.3,1.3h2.8v-7.1l2.8-1.3l2.8,4.3l3-5.8l1.3,7.1l1.5-2.8l-1.5-4.3h2.8l7.1,4.3l4.3,2.8l2.8,5.6l5.6-4.1l8.4-2.8
		l-1.5-5.8l4.3-8.4l1.5,1.5l2.8,4.1l-1.5,5.6l1.5,7.1l-2.8,4.3l-8.6,8.4l-5.6-2.8l-11.3,19.9v4.1l7.1,5.6l2.8,2.8l-1.5,3l-1.3,6.9
		l-2.8,2.8l4.1,4.3l8.4,1.5v8.4l-4.1,4.1l-5.6,3l-12.8-4.3l-1.5,5.6v4.3v2.8l-9.9,14.1l-1.3,7.1l-1.5,5.6v4.3l4.3,2.8l1.3-4.3l3-5.6
		l4.1,2.8l2.8,2.8l1.5,5.6l-1.5,2.8l2.8,4.3l-1.3,2.8h-5.6l-5.8,4.3l-4.1,2.8l-4.3,5.6l1.5,5.6l-4.3,4.3l-2.8-2.8l2.8-4.3l-1.3-2.8
		l1.3-8.4H933l-2.8,2.8l-2.8,7.1v6.9l-2.8,4.3l2.8,2.8v4.3l4.3-5.6l-1.5-1.5l1.5-2.8l4.3,2.8v8.4l4.1-1.3l7.1-1.5l5.6,1.5l2.8,2.8
		l1.5,4.1l1.3,1.5l1.5-7.1l2.8-1.3l-7.1-11.4l2.8-8.4h2.8l5.8,7.1v2.8l6.9,2.8l-1.3,4.3v4.1l2.8,5.6l-9.9,7.1l-8.4,4.3v1.3l-8.6,4.3
		l-6.9-1.5l-2.8-2.8l5.6-9.9l-7.1-2.8l-4.3,2.8l-1.3,3l-2.8-1.5l-1.5,1.5l-4.1,12.6l1.3,7.1v1.5l7.1-4.3l7.1,2.8l4.1,9.9l2.8,1.5
		l-1.3,4.1l7.1,4.3l11.3-1.5l9.9-2.8v1.5l2.8,9.9l6.9,2.8l3,2.8l-3,5.6l7.1,1.3h8.4l1.5-4.1l4.3,5.6l2.8-1.5l1.3,4.3l14.3-5.6h9.9
		l6.9-5.6l9.9,6.9l4.3,3l2.8,4.1l5.6,4.3l-1.5,5.6l4.3,1.3v-6.9v-4.3l1.5-4.1l9.8-1.5l12.8,9.9h2.8l-1.3-5.6l2.8-8.6l-2.8-5.6
		l2.8-9.9l8.4-1.3l-1.3-2.8l5.6-2.8l12.8-7.1l9.9-11.3h14.1l9.9,43.7h9.9l1.3-4.1l-9.9-11.4l2.8-2.8l3-14.1l11.3-5.6l-7.1-8.6
		l8.4-6.9l-1.3-7.1l1.3-5.6h1.5l5.6-4.3l-1.3-4.1l1.3-7.1l5.6-9.9l4.3-8.4v-2.8l-7.1-1.5h-8.4l1.3-2.8l-1.3-2.8l4.3-4.3l2.8-12.8
		l1.3-18.4l-1.3-9.8l5.6-9.9l7.1-1.5v2.8l5.6,14.3l6.9-2.8l-2.8-7.1l1.5-2.8l8.4-2.8l2.8,7.1l2.8-11.4l-11.3-4.1l5.6-4.3l-2.8-12.8
		h9.9l4.3-4.3l1.3-4.1l-2.8-4.3h-4.3l-1.3-1.3l-4.3-4.3l-2.8-2.8l-5.6,1.3l-4.3-5.6l-5.6-4.1l-15.6,2.8v-4.3l-1.3-2.8l-7.1-14.1
		l-1.5-4.3l1.5-4.3h-8.4l-9.9,1.5v-18.4l5.6,1.3l9.9,2.8h14.1l-7.1,2.8l3,5.8l1.3,2.8l-5.6,9.9l5.6,5.6l1.5,2.8l11.3-1.5l4.3-4.1
		l1.3-5.8l4.3-4.1l5.6,4.1h9.9l2.8-5.6l-1.5-8.4l2.8-2.8l-4.1-1.5l-4.3-1.3l-1.3-14.3l1.3-4.1l1.5-4.3l-7.1-1.3l-7.1,2.8l-2.8,2.8
		l-4.1-9.9l-4.3-5.6l5.6-4.3l1.5-4.1l1.3-9.9v-1.5l5.6-7.1l4.3-8.4l5.6-5.6l1.5-2.8l9.9-5.6l2.8-5.6l-4.3-1.5l-5.6-2.8l-7.1-4.3
		l-5.6-4.1l-9.9-4.3h-8.4l-7.1,1.5l-7.1,5.6h-6.9l-18.4-11.4l-2.8-2.8l-7.1,5.6l-1.5-6.9l-12.8-1.5L1111.4-1120.4L1111.4-1120.4z
		 M1189.2-938l4.3,1.5l4.1,2.8v1.3l-8.4,4.3v7.1l-1.5,4.1l-1.3,1.5l-4.3,1.3l-1.3-1.3v-2.8l-2.8-8.4v-1.5v-2.8l9.8-1.5l1.5-1.3
		l1.3-2.8L1189.2-938L1189.2-938z M947.3-925.2l-22.7,1.5l1.5,1.3l9.9,5.6l21.2,1.5l-1.5-1.5l2.8-5.6L947.3-925.2L947.3-925.2z	">
<title  id="title4821">Berguedà</title>
	</path>
	<path id="pla-estany" inkscape:connector-curvature="0" class="st0" d="M1726.8-1011.5l-5.8,5.6l-2.8,2.8v5.6l2.8,8.6h-1.3
		l-7.1,2.8L1697-982l-9.9-4.1l-11.3,11.3h-2.8l-18.4,2.8l4.3-2.8l-1.5-1.3h-9.9v15.4l-7.1,3v6.9l3,5.6l-3,7.1l4.3,2.8l1.5,8.6
		l-7.1,5.6l1.3,5.6h-2.8l-2.8,11.3l-2.8,7.1l-7.1,4.3h1.5l11.3,2.8h11.4h5.6l4.3,1.3l5.6-8.4h14.1l7.1,2.8l5.6,2.8v5.6l11.3,5.6
		l7.1,1.5l8.4,14.1h7.1l1.5,1.5l-1.5,4.3l1.5,6.9l14.1,11.4l1.5-2.8l1.3-2.8h9.9l12.8-4.3l-2.8-9.9l11.3-1.3v-5.8l1.5-2.8l2.8-4.1
		l2.8-2.8l-1.5-5.8l7.1,2.8l1.5,1.5l2.8,5.6l4.1-1.3l2.8-2.8l1.5,1.3l-1.5,2.8l1.5,1.5l4.3-1.5l2.8-5.6v-9.9l1.3-4.1l-2.8-5.8
		l8.4-11.3v-4.3l-2.8-12.6v-5.8v-9.8l-4.1-4.3v-4.3l-4.3-4.1l5.6-7.1l1.5-1.5l-1.5-1.3l-1.3-2.8v-8.4l-2.8-3l-7.1-4.1h-2.8l1.3-9.9
		l-4.1-1.5l-7.1-4.1l-1.5,2.8l-2.8,9.9l-4.1,4.1l-1.5,1.5l-8.4,1.3l-5.6-4.1l4.1-7.1v-8.4v-1.5l1.5-1.3l-4.3,2.8h-11.3l-4.3-2.8
		l-15.6,2.8l-1.3-2.8v-1.5L1726.8-1011.5L1726.8-1011.5z	">
<title  id="title4072">Pla de l&apos;Estany</title>
	</path>
	<path id="noguera" inkscape:connector-curvature="0" class="st0" d="M579.4-939.3l-2.8,6.9l-2.8-1.3l-1.3,1.3l-4.3-4.1l-2.8,4.1
		l-7.1,11.4l-2.8,8.4l-4.1,5.6l-5.8,4.3l-6.9,12.8l-1.5,5.6l-5.6,8.4l-2.8,1.5l-7.1,6.9l8.4,9.9l2.8,7.1l-6.9,18.4l-5.6,1.5v-18.6
		l-4.3-9.8l-17.1,1.3l-11.3,2.8l-5.6-2.8l-8.4,11.4h-8.6l-21.2,1.3l-5.6-1.3l-7.1-3l-19.7,1.5l-17.1-12.8L390-863l-1.5-2.8v-1.5
		l-11.3,4.3l-14.3,1.5l-11.3-4.3l-21.2-2.8l-5.6-2.8l-19.9,4.1l-8.4-1.3l-8.6-5.6l-1.3-4.3l-19.9-1.5l-12.8-5.6L244-894l-2.8-8.4
		l-5.6,9.9l-2.8,18.4l-7.1,4.1l-4.1,12.8l1.3,4.3l1.5,7.1h2.8l1.5,2.8l-5.8,11.3l-6.9,4.3l-2.8,12.8v-1.5l-3-9.9l-14.1,4.3v4.1
		l-4.3,4.3l-1.3,9.9l-4.3,7.1l-8.4-5.8l-5.6,2.8l-5.6,5.8l-8.6,11.3l-2.8,11.3l2.8,1.5l5.6,1.3l4.3,3l18.4,8.4h-5.6l-2.8,4.1
		l2.8,7.1l-5.6,21.2l9.9,8.6l-2.8,6.9l-8.6,2.8h-4.1l-4.3,2.8l1.5,4.3l-1.5,7.1l-1.5,8.4v15.6l5.8,17.1l1.3,2.8l7.1,11.3l5.6,5.6
		l4.3,11.4l2.8,4.1l2.8,4.3l4.3,5.6l5.6,5.6l6.9,11.4L223-576l-1.3,5.8l5.6,5.6l4.3,6.9l5.6,4.3l5.6,12.8l5.6-4.3l2.8,4.3l4.3-5.6
		l1.3-1.5l5.8,2.8l8.4-8.4l2.8-5.6l8.4,9.9l5.6,8.4l2.8,8.4l8.6-1.3v-9.9l12.8-2.8h6.9h4.3l1.5-8.4L339-556h5.6l2.8,4.3l11.4-2.8
		l5.6-11.4l-8.6-2.8l8.6-12.8l6.9,1.5l12.8-1.5v2.8h14.3l1.3,18.4l8.6,12.8l8.4,4.3h7.1l8.4-2.8l7.1,1.3l2.8-2.8l2.8-4.1l2.8-19.9
		l-4.3,1.5l-2.8-4.3l-8.4,2.8l-4.3-11.3l2.8-1.5l9.9-8.4l1.5-2.8l9.8-15.6v2.8h8.6h2.8h4.1l4.3-5.6h4.3l8.4,8.4l17.1-18.4l16.9-31.1
		l1.5-2.8l-4.3,1.3l5.6-9.8l11.3-22.7l4.3,1.3l-1.3,3h8.4v2.8l4.1,1.3l1.5,12.8v7.1l-7.1,5.6l-6.9-5.6l-1.5,5.6l-1.5,5.6l1.5,4.3
		l15.6,4.1l1.5,1.5l5.6,1.3l4.1-9.8l4.3-4.3h5.6l-2.8,5.6l-8.4,8.4l1.3,8.6v8.4l5.8,1.5l11.3,4.1l4.3-5.6l9.8-9.9l5.8-4.1l8.4-11.4
		l6.9,2.8l8.6-6.9l6.9-9.9l3-4.3l-1.5-4.1l15.6-17.1l1.5,1.5l2.8-3l1.3-2.8l9.9-8.4l2.8-5.6v-5.6l4.3-5.6l2.8-8.6l-1.5-9.8l5.6-7.1
		l-1.3-4.3l9.9-14.1l2.8-9.9l-2.8-5.6l-11.4-2.8v-2.8l-2.8,1.3l-1.3-1.3l-18.4,14.1l-5.8,1.5l-4.1,1.3l2.8-4.3l8.4-28.1l-2.8-3V-812
		l1.5-1.5l2.8-8.4l-7.1-5.6l-4.3-1.5l1.5-1.3l-8.4-12.8l-1.5-2.8l2.8-9.9l-4.1-11.4l5.6-2.8l-1.5-9.9l-2.8-2.8v-2.8l-9.9-2.8v-6.9
		l-2.8-3l-2.8,1.5l-4.3-1.5L609-908l-8.4,2.8l-2.8-1.5l-1.5,1.5l-2.8,2.8H592l-5.6,1.3v-5.6l-2.8-14.1l1.5-5.6l1.3-8.6l-1.3-4.1
		L579.4-939.3L579.4-939.3z M494.7-691.8l1.3,1.3l7.1,1.5v2.8l1.5,4.3h2.8l1.3,5.6l1.5,7.1l-8.4-1.5l-3,7.1l-11.3,4.1l-4.3,5.6
		l-2.8-2.8v-5.6h-2.8l2.8-9.9l-2.8-1.3l1.5-9.9l4.1-4.3l4.3,3l4.3-3v-2.8L494.7-691.8L494.7-691.8z M445.2-613.9l1.3,1.3l-2.8,11.4
		l-2.8,4.1l-2.8,4.3l-4.3,4.3l-5.6,4.1v-1.3l1.5-2.8l8.4-7.1l4.3-9.9L445.2-613.9L445.2-613.9z	">
<title  id="title4064" style="fill:url(#radialGradient6152);fill-opacity:1">Noguera</title>
	</path>
	
		<path id="osona" inkscape:connector-curvature="0" sodipodi:nodetypes="cccccccccccccccccccccccccccccccccccccccccccccccccccccccccccccccccccccccccccccccccccccccccccccccccccccccccccccccccccccccccccccccccccccccccccccccccccccccccccccccccccccccccccccccccccccccccccccccccccccccccccccccccccccccccccccccccccccccccccccccccccccccccccccccccccccccccccccccccccccccccccccccccccccccccccccc" class="st0" d="
		M1296.7-619.6l5.6,4.1l1.5,5.6v4.3l2.8,7.1l-1.3,16.9v7.1l-3,7.1l5.8,12.8h9.8l7.1,1.3l5.6-2.8l4.3,1.5l4.3-3l2.8,3l4.1-1.5h5.6
		l1.5,1.5l5.6-3l-2.8-2.8l-2.8-1.3l2.8-5.6l-1.3-4.3l-5.8-2.8l-1.3-5.6l1.3-4.3l1.5-2.8v-1.3v-1.5l-2.8-4.3v-8.4l5.6-8.4l5.6-7.1
		l2.8-7.1v5.8l2.8,2.8l12.8,5.6l1.5-4.3l8.4-4.1l11.3,6.9l5.8,4.3l5.6,21.2h8.4l12.8-5.6v-8.4l1.5-5.8l-3-5.6l5.8-4.1l8.4-12.8
		l2.8,1.3l2.8,2.8l14.1,2.8l5.8-2.8l-4.3-1.3l1.5-2.8l-3-4.3l-1.3-5.6l1.3-7.1l4.3-5.6l4.3-2.8l1.3-1.5l-2.8-5.6v-2.8l-1.3-2.8
		l5.6-4.3h7.1l4.1-6.9l4.3-1.5l2.8-8.4v-8.4l-5.6-4.3v-1.5l1.3-5.6l5.6-2.8l4.3-4.1l5.6-4.3l1.5-2.8l7.1-7.1v-4.1v-5.8l-4.3-11.3
		h-7.1l-1.3-2.8l-2.8-1.5l-4.3-1.3h-4.3l-1.3,2.8l-4.3-5.6l2.8-7.1v-4.3l-4.1-5.6h-4.3v-4.1l7.1-4.3l2.8,2.8l4.1,1.5l1.5,1.3h2.8
		l1.5,1.5l4.1-2.8h8.4l-1.3-5.8l4.3-2.8v-4.1l5.6-2.8l-12.8-8.6l5.6-2.8l1.5-4.1l1.3,2.8l1.5,2.8l4.1-2.8l8.6-2.8l-1.5-4.3l4.3-2.8
		l-7.1-2.8v-8.4h2.8l2.8-3l2.8-5.6l-1.3-1.3l-12.8-12.8l-2.8-5.6l6.9-4.3l2.8-2.8v-2.8l-4.1-5.6h-8.4l-4.3,2.8l-1.5-5.6l-2.8-3
		l-6.9-2.8l-4.3-1.3l-1.5,4.1l-12.8,8.6l-4.1,1.3l-4.3-1.3l-7.1-7.1v-2.8l-2.8-4.3l-5.6-8.4v-1.3l-1.3-1.5l4.1-9.9l-1.3-1.3h-12.8
		l-2.8-5.8l-1.5-6.9l1.5-1.5l4.1-5.6l-5.6-2.8l-5.6-4.3l-9.9-6.9l-1.3-8.6l2.8-4.1l2.8-5.8l11.3-4.1l1.5-2.8l6.9,1.3v-2.8l-5.6-2.8
		l-4.1-1.3v-4.3l-7.1,4.3h-1.5l-9.8,2.8l-5.8,1.3l-5.6,2.8l-2.8,1.5h-5.6l-7.1,4.1l-4.1-4.1l-5.8-2.8l-4.1,1.3l-5.6-1.3h-9.9
		l4.1,1.3l7.1,4.3l1.5,2.8h4.1l-2.8,2.8l-1.3,2.8l4.1,1.5l2.8-2.8l1.5,1.3l-5.6,8.4h-4.3l-5.6-1.3l-2.8-2.8l-4.3,2.8l-4.1,2.8
		l-9.9,1.5l-2.8-5.8l-18.4,2.8l-1.5,1.5l-1.3,4.3l1.3,5.6l-2.8,1.3l-2.8-2.8l-1.5,4.3h-5.6h-4.1v-5.6l-1.5-2.8l-16.9-1.5l-11.4,4.3
		l-5.6,8.4l-8.4,8.4l-5.6-2.8l-9.9-7.1l-1.5-2.8v-2.8l-1.3-1.3v-8.6l-4.3-4.1l-5.6,2.8l-9.9-1.5v2.8l-5.6,3l-1.5,1.3h4.3l2.8,4.3
		l-1.3,4.1l-4.3,4.3h-9.9l2.8,12.8l-5.6,4.3l11.3,4.1l-2.8,11.4l-2.8-7.1l-8.4,2.8l-1.5,2.8l2.8,7.1l-6.9,2.8l-5.6-14.3v-2.8
		l-7.1,1.5l-5.6,9.9l1.3,9.8l-1.3,18.4l-2.8,12.8l-4.3,4.3l1.3,2.8l-1.3,2.8h8.4l7.1,1.5v2.8l-4.3,8.4l-5.6,9.9l-1.3,7.1l1.3,4.1
		l-5.6,4.3h-1.5l-1.3,5.6l1.3,7.1l-8.4,6.9h8.4l4.3,3h7.1l11.3,4.1l1.5,1.5v1.3l-1.5,1.5v1.3l-4.3,15.6l1.5,2.8l2.8,7.1l1.5,5.6
		l2.8,11.4l6.9,5.6l-1.3,4.1l-2.8-1.3l4.1,4.3l11.4-1.5h8.4l5.6-7.1l5.6-1.3l3,4.1h11.3l14.1-5.6l4.3-2.8l1.3,4.3l4.3,8.4h-2.8
		l-1.5,11.3l-4.1,1.5l-7.1,1.3l1.5,4.3h2.8l2.8,2.8l-2.8,7.1l4.1,8.4l4.3,1.5l4.3,5.6h5.6l3.9-3l14.1,4.2l4.2-5.7l1.4-2.8l1.4,14.1
		l1.4,7.1l4.2,2.8l-7.1,24l-5.7,9.9L1296.7-619.6z M1186.4-759.6l-2.8,1.3l-2.8,4.3l5.6,1.3l2.8-1.3l-1.5-1.5v-4.1H1186.4z	">
<title  id="title4819">Osona</title>
	</path>
	<path id="selva" inkscape:connector-curvature="0" class="st0" d="M1525.8-865.8l-2.8,2.8l-6.9,4.3l2.8,5.6l12.8,12.8l1.3,1.3
		l-2.8,5.6l-2.8,3h-2.8v8.4l7.1,2.8l-4.3,2.8l1.5,4.3l-8.6,2.8l-4.1,2.8l-1.5-2.8l-1.3-2.8l-1.5,4.1l-5.6,2.8l12.8,8.6l-5.6,2.8v4.1
		l-4.3,2.8l1.3,5.8h-8.4l-4.1,2.8l-1.5-1.5h-2.8l-1.5-1.3l-4.1-1.5l-2.8-2.8l-7.1,4.3v4.1h4.3l4.1,5.6v4.3l-2.8,7.1l4.3,5.6l1.3-2.8
		h4.3l4.3,1.3l2.8,1.5l1.3,2.8h7.1l4.3,11.3v5.8v4.1l-7.1,7.1l-1.5,2.8l-5.6,4.3l-4.3,4.1l-5.6,2.8l-1.3,5.6v1.5l5.6,4.3v8.4
		l-2.8,8.4l-4.3,1.5l-4.1,6.9h-7.1l-5.6,4.3l1.3,2.8v2.8l2.8,5.6l-1.3,1.5l-4.3,2.8l-4.3,5.6l-1.3,7.1l1.3,5.6l3,4.3l-1.5,2.8
		l4.3,1.3h8.4l8.4,7.1l1.5,8.4l8.4,4.3l11.3-4.3l-2.8,9.9l9.9,7.1l8.4,5.6h1.5l14.1,2.8l1.5,5.6l-2.8,2.8l2.8,4.3l-1.5,1.5l7.1,5.6
		l4.3,5.6l-1.5,4.3l2.8,6.9l9.9,4.3l11.3-5.6l5.8-1.5l2.8,1.5l15.6-2.8l-1.5,6.9l2.8,4.3l-4.1,8.4l-4.3,7.1l2.8,8.4l2.8,5.6l2.8,1.5
		l11.4-7.1l9.8,1.5l8.6-22.7l4.1-4.3l4.3-4.1l8.4,4.1l2.8,3l22.7-12.8l15.6-15.6l14.1,9.8l24.2-1.3v4.3l-8.6,5.6l4.3,26.8l-1.5,8.4
		l-8.4,8.6l5.6,12.6v1.5l8.6,14.1l4.1-11.3l5.6-8.4l2.8-2.8l3-1.5v1.5l-1.5,1.3l2.8-1.3l1.5-1.5v-1.3l2.8-1.5v-1.3l4.1-2.8l1.5-1.5
		v-1.5l1.3-1.3l3-1.5l4.1-1.3v-1.5l4.3-1.3l1.3-1.5l2.8,1.5l1.5-1.5l1.5-1.3l2.8-1.5l5.6-2.8h2.8l4.3,1.5l1.3-1.5h2.8l2.8-1.5h1.5
		h1.3v-1.3h1.5h2.8l1.5,1.3h1.3l1.5-1.3h1.3l2.8-1.5l2.8-1.3l-1.3-1.5l2.8-1.3h1.3h4.3h1.5l5.6-2.8h1.3h1.5l1.3-1.5l4.3-1.3h1.5
		v-1.5v-2.8l1.3-1.5l1.5-1.3l2.8-2.8h2.8v-1.5l1.3-1.3l-1.3-1.5h1.3h1.5l1.3-1.3l1.5-1.5v-2.8h1.5h1.3l1.5-1.5h-1.5v-2.8l5.6-6.9
		l2.8-4.3l-4.1-2.8l-2.8-2.8l-2.8-4.3l-4.3-5.6l-7.1,7.1l-8.4,4.1l-8.4-11.3l-7.1-2.8l-24-1.5l-8.6-11.3l-5.6-8.4l1.5-5.6l2.8-3
		l1.3-2.8l8.6-1.3v-7.1h-5.6l1.3,4.3h-9.9l-2.8-7.1l5.6-9.9l2.8-18.4h-4.1l-7.1-4.1l-4.3-7.1l-6.9,1.3l-7.1,5.8v2.8l-4.3-11.4v-12.8
		l-1.3-2.8l4.1-9.9v-5.6l1.5-8.4l-5.6-5.6h4.1v-2.8h-9.8l-7.1,1.3l-8.4,7.1l-7.1-4.3l-7.1-5.6l-9.9-12.8l-14.1,2.8h-17.1h-2.8v-2.8
		l1.5-5.6l-2.8-4.1l-11.4-11.4h-5.6l-6.9-7.1l-1.5-5.6l5.6-1.3l1.5-2.8l1.3-5.8l-2.8-2.8l-1.3-9.8l-1.5-3l-2.8-4.1v-1.5v-1.3
		l-1.5-9.9l3-1.5v-6.9l-8.6,1.3l-5.6-2.8h-2.8l-1.5,4.3l-2.8-1.5l-4.1-6.9l-8.4-1.5l-1.5-2.8l-7.1-9.9l-2.8-4.3l2.8-4.1l-4.1-4.3
		v1.5l-4.3,5.6l-1.5,5.6l-6.9,1.5l-5.6-2.8l-5.8-4.3l-6.9-1.5l-4.3,5.8l-1.5,6.9l-6.9,2.8L1542-848l-4.1-7.1l-7.1-5.6L1525.8-865.8
		L1525.8-865.8z	">
<title  id="title4084">Selva</title>
	</path>
	<path id="baix-emporda" inkscape:connector-curvature="0" class="st0" d="M1882.5-940.8l-1.5,4.3h-1.5v4.1v5.8l-8.4,4.1l-5.6,4.3
		l-11.3,2.8h-4.3l-1.5,15.6l4.3-1.5l7.1,11.4l1.3,5.6l1.5,4.1l4.3,1.5l-3,8.4l-1.3,2.8l2.8,5.8l2.8,15.6l-1.3,2.8h-7.1l-2.8-1.5
		l-7.1,4.3l-1.5,1.3l3,2.8l-4.3,21.4l4.3,5.6h5.6l6.9-1.5l4.3,4.3l4.3,8.4l-7.1,5.6v2.8l-7.1,4.3l-11.3,1.3l-2.8,7.1l1.3,17.1h-1.3
		v8.4h-4.3l-9.9,1.5l-4.1,1.3l-2.8,4.3h-2.8l-9.9-1.5l2.8,14.3l-12.8,8.4l7.1,7.1l6.9-1.5l14.3,4.3l11.3,5.6l11.4,8.4l-4.3,5.6
		l-4.3,5.6l-1.3,5.8l9.9,8.4l4.1,9.9l5.6,15.6l-2.8,4.1h-9.9l-8.4-1.3l-7.1,1.3l3,12.8l6.9,21.2l7.1,2.8l4.3,11.4l-7.1,5.6l4.3,5.6
		l2.8,4.3l2.8,2.8l4.1,2.8l2.8-1.5l3-4.1l4.1-1.5l5.6-1.3l1.5-1.5h1.3l1.5-1.3l1.5-1.5l1.3-1.3l4.3-3l6.9-2.8h4.3h1.5l1.3,1.5
		l1.5,1.3v-1.3h1.3l-1.3-1.5l-1.5-5.6h1.5h2.8h1.3l1.5,1.5h1.3l2.8-1.5v-1.3h1.5l1.5-1.5v-1.3l-1.5-3v-1.3l1.5-1.5h2.8l1.3,1.5
		l1.5,1.3v-1.3l1.3-2.8v-1.5l2.8-2.8l-1.3-1.3l2.8-2.8l-1.5-1.5h1.5v-1.5l2.8-8.4l1.5-5.6l2.8-4.3l4.1-2.8l7.1-6.9h1.5l1.3-4.3
		l4.3-5.6l5.6-2.8l7.1-1.5h2.8l2.8,1.5l1.3,1.3v1.5l-1.3,1.3h-4.3v1.5l5.6-1.5h1.5h1.3v-1.3v-2.8h1.5l1.5-1.5v1.5h1.3v-1.5l4.3-1.3
		l1.3-1.5l-1.3-2.8v-4.3h1.3h1.5l1.3-1.3v-1.5h1.5h1.3v-1.3h2.8v2.8l1.5-1.5h2.8l1.5-1.3l4.1-1.5l1.5-1.3l1.3-1.5h1.5l-1.5-2.8
		l1.5-4.3l2.8-1.3l-2.8-2.8l2.8-2.8v-2.8l1.5-1.5l4.1-1.5l1.5-2.8v-1.3h1.3l1.5-1.5l2.8,2.8l1.3-1.3l1.5-7.1l2.8-1.3v-5.8l2.8-1.3
		l-1.3-2.8v-2.8l-1.5-2.8h4.3l1.3-2.8l2.8-1.5l-2.8-2.8l1.5-2.8l-1.5-1.5l2.8-1.3l-1.3-1.5l1.3-1.3l-1.3-1.5h-1.5v-1.3l1.5-3v-2.8
		l5.6-4.1l4.3-2.8l-1.5-5.8l1.5-1.3l1.3-2.8h-1.3v1.3l-1.5-1.3v-1.5l-1.3-1.3l1.3-1.5v-1.3l-1.3-2.8l-3-3h-1.3h-2.8h-4.3h-1.3v-4.1
		l-1.5-4.3l-4.3-7.1l-2.8-12.6l-1.3-4.3l-1.5-11.3v-8.6l1.5-6.9v-7.1l1.3-4.3l1.5-2.8v-1.3l2.8,1.3l-1.5-1.3l-1.3-1.5h1.3h1.5h1.5
		h1.3v1.5l1.5-1.5v-1.3l2.8-4.3l-1.5-1.5h-1.3v-1.3v-4.3v-1.3l-1.5-1.5l-1.3-1.3l-1.5-1.5l-1.5-1.5h1.5l-4.3-2.8v-1.3l1.5-1.5v-1.3
		h-1.5v-1.5h-2.8v-4.1l-1.3-1.5l-1.5-2.8l-2.8-5.6l-1.3-1.5v-1.3l-1.5-2.8v-1.5l-2.8,1.5l-5.6,1.3l-1.5-2.8l1.5-1.3l-2.8-1.5
		l-5.8,1.5l-18.4,8.4l-4.1-8.4l-12.8,4.1v-7.1v-5.6l-5.6-1.3l-4.3-8.6l-2.8,3l-2.8,2.8l-7.1,2.8h-1.3l-8.6,1.3l-6.9,2.8l-1.5,2.8
		h-4.3l-4.1-9.8h-1.5l-8.4-5.8l-4.3-1.3l-1.3-1.5l-1.5-4.1h-2.8l-2.8-4.3L1882.5-940.8L1882.5-940.8z M1927.6-621.1l1.3,1.5v-1.5
		H1927.6z M1909.3-598.4l-4.3,1.3h1.5L1909.3-598.4L1909.3-598.4z M2037.9-855.8l-1.3,1.3l1.3,1.5h1.5l2.8-1.5v-1.3h-1.5h-1.3
		H2037.9z M2040.7-851.7v1.5l1.5-1.5H2040.7z M1978.6-662.1v1.5l1.3-1.5H1978.6z M1923.3-623.9l1.5,1.3h-1.5V-623.9z	">
<title  id="title4040">Baix Empordà</title>
	</path>
	<path id="girones" inkscape:connector-curvature="0" class="st0" d="M1831.5-919.6l-5.6,1.5l-7.1,4.1h-4.3v4.3l-8.4,11.3l2.8,5.8
		l-1.3,4.1v9.9l-2.8,5.6l-4.3,1.5l-1.5-1.5l1.5-2.8l-1.5-1.3l-2.8,2.8l-4.1,1.3l-2.8-5.6l-1.5-1.5l-7.1-2.8l1.5,5.8l-2.8,2.8
		l-2.8,4.1l-1.5,2.8v5.8l-11.3,1.3l2.8,9.9l-12.8,4.3h-9.9l-1.3,2.8l-1.5,2.8l-14.1-11.4l-1.5-6.9l1.5-4.3l-1.5-1.5h-7.1l-8.4-14.1
		l-7.1-1.5l-11.3-5.6v-5.6l-5.6-2.8l-7.1-2.8h-14.1l-5.6,8.4l-4.3-1.3h-5.6h-11.4l-11.3-2.8h-1.5l-2.8-1.5l1.5,5.6v5.6l2.8,7.1
		l-1.5,7.1l1.5,2.8v5.6l-4.3,5.6v8.6l5.8,1.3l1.3,5.6l7.1,5.6l7.1,8.6v6.9l-3,1.5l1.5,9.9v1.3v1.5l2.8,4.1l1.5,3l1.3,9.8l2.8,2.8
		l-1.3,5.8l-1.5,2.8l-5.6,1.3l1.5,5.6l6.9,7.1h5.6l11.4,11.4l2.8,4.1l-1.5,5.6v2.8h2.8h17.1l14.1-2.8l9.9,12.8l7.1,5.6l7.1,4.3
		l8.4-7.1l7.1-1.3h9.8v2.8h-4.1l5.6,5.6l-1.5,8.4v5.6l-4.1,9.9l1.3,2.8v12.8l4.3,11.4v-2.8l7.1-5.8l6.9-1.3l4.3,7.1l7.1,4.1h4.1
		l-2.8,18.4l-5.6,9.9l2.8,7.1h9.9l-1.3-4.3h5.6v7.1l-8.6,1.3l-1.3,2.8l-2.8,3l-1.5,5.6l5.6,8.4l8.6,11.3l24,1.5l7.1,2.8l8.4,11.3
		l8.4-4.1l7.1-7.1l7.1-5.6l-4.3-11.4l-7.1-2.8l-6.9-21.2l-3-12.8l7.1-1.3l8.4,1.3h9.9l2.8-4.1l-5.6-15.6l-4.1-9.9l-9.9-8.4l1.3-5.8
		l4.3-5.6l4.3-5.6l-11.4-8.4l-11.3-5.6l-14.3-4.3l-6.9,1.5l-7.1-7.1l12.8-8.4l-2.8-14.3l9.9,1.5h2.8l2.8-4.3l4.1-1.3l9.9-1.5h4.3
		v-8.4h1.3l-1.3-17.1l2.8-7.1l11.3-1.3l7.1-4.3v-2.8l7.1-5.6l-4.3-8.4l-4.3-4.3l-6.9,1.5h-5.6l-4.3-5.6l4.3-21.4l-3-2.8l1.5-1.3
		l7.1-4.3l2.8,1.5h7.1l1.3-2.8l-2.8-15.6l-2.8-5.8l1.3-2.8l3-8.4l-4.3-1.5l-1.5-4.1l-1.3-5.6l-7.1-11.4l-4.3,1.5l1.5-15.6l-5.6-1.5
		l-9.9-1.3L1831.5-919.6L1831.5-919.6z	">
<title  id="title4058">Gironès</title>
	</path>
	<path id="segarra" inkscape:connector-curvature="0" class="st0" d="M736.6-751.2l-4.3,1.5l-2.8,1.3h-4.3l-8.4,4.3l-4.1,14.1
		l-5.8-2.8l-4.1,4.3v2.8l-2.8,4.1l-5.6,4.3l-1.5,1.5l-2.8-4.3v-7.1v-8.4l-4.3-7.1l-1.3-5.6l-9.9,2.8l1.3,4.3l-5.6,7.1l1.5,9.8
		l-2.8,8.6l-4.3,5.6v5.6l-2.8,5.6l-9.9,8.4l-1.3,2.8l-2.8,3l-1.5-1.5l-15.6,17.1l1.5,4.1l-3,4.3l-6.9,9.9l-8.6,6.9l-6.9-2.8
		l-8.4,11.4l-5.8,4.1l-9.8,9.9h4.1l-7.1,11.3l1.5,5.8l2.8,2.8l1.5,4.1l-4.3,1.5l-2.8,1.3l4.3,1.5l5.6,4.3v6.9l-15.6,31.1l8.4,4.3
		l5.6-1.5l12.8-9.9l8.4,4.3l-5.6,7.1l-4.1,16.9l-3,4.3h-2.8v8.4v1.5l1.5,1.3v2.8l1.3,9.9v1.5l1.5,6.9l-4.3,1.5l1.5,15.6l-2.8,12.8
		l-12.8,5.6l-2.8,4.3l1.3,2.8v4.1l7.1,5.8h2.8l17.1,6.9l4.1,1.5l1.5,2.8v2.8l4.1,12.8l8.6-1.5l8.4,2.8l4.3-2.8l4.1-1.3l2.8,4.1
		l8.6-4.1l15.6,7.1l8.4-5.8l5.6,2.8l38.3,3l8.4,4.1l2.8,4.3l5.6,1.3l8.6-1.3v-5.6l-5.8-2.8l-1.3-8.6v-4.1l9.9-7.1l1.3-11.3H738
		l-5.6-2.8l-7.1-4.3l-1.3-4.3l-2.8,1.5l-5.6-1.5l-1.5-2.8l7.1-2.8v-2.8l12.8-4.3l1.3-5.6l2.8-2.8h21.4l5.6,5.6l1.3-4.1l2.8-1.5h4.3
		l4.3-1.3l1.3-9.9h-5.6l-7.1-8.6l-4.1-5.6v-8.4l-7.1-4.3l2.8-1.3l1.5-8.4l-12.8-1.5v-7.1l-5.8-1.3l4.3-8.4l-12.8-1.5l25.5-24
		l5.6-1.5l-4.1-4.1l-7.1-3l-4.3-4.1l5.6-19.9v-6.9l2.8-3l4.3-14.1l-1.3-2.8l4.1-7.1l14.3,1.5l9.8,1.3l9.9-1.3l2.8-2.8l11.4-8.6
		l14.1-8.4v-1.3l-11.3,4.1l-2.8-5.6l-11.4-8.4l9.9-5.6l5.6-7.1l5.6-9.9l-2.8-11.3l1.5-2.8v-11.4v-6.9l-1.5-9.9l-11.3-4.3l-5.6,5.6
		l-8.4,14.3l-12.8-4.3l-4.3-8.4l-9.9,2.8l2.8-8.4l-15.6-11.4l-4.1,1.5h-1.5L736.6-751.2L736.6-751.2z	">
<title  id="title4080">Segarra</title>
	</path>
	
		<path id="valles-oriental" inkscape:connector-curvature="0" sodipodi:nodetypes="ccccccccccccccccccccccccccccccccccccccccccccccccccccccccccccccccccccccccccccccccccccccccccccccccccccccccccccccccccccccccccccccccccccccccccccccccccccccccccccccccccccccccccccccccccccccccccccc" class="st0" d="
		M1342-554.5l4.1-1.5h5.6l1.5,1.5l5.6-3l-2.8-2.8l-2.8-1.3l2.8-5.6l-1.3-4.3l-5.8-2.8l-1.3-5.6l1.3-4.3l1.5-2.8v-1.3v-1.5l-2.8-4.3
		v-8.4l5.6-8.4l5.6-7.1l2.8-7.1v5.8l2.8,2.8l12.8,5.6l1.5-4.3l8.4-4.1l11.3,6.9l5.8,4.3l5.6,21.2h8.4l12.8-5.6v-8.4l1.5-5.8l-3-5.6
		l5.8-4.1l8.4-12.8l2.8,1.3l2.8,2.8l14.1,2.8l5.8-2.8h8.4l8.4,7.1l1.5,8.4l8.4,4.3l11.3-4.3l-2.8,9.9l9.9,7.1l8.4,5.6h1.5l14.1,2.8
		l1.5,5.6l-2.8,2.8l2.8,4.3l-1.5,1.5l7.1,5.6l4.3,5.6l-1.5,4.3l2.8,6.9l9.9,4.3l11.3-5.6l5.8-1.5l2.8,1.5l15.6-2.8l-1.5,6.9l2.8,4.3
		l-4.1,8.4l-4.3,7.1l2.8,8.4l2.8,5.6l2.8,1.5l4.3,5.6l1.3,1.5l-6.9,5.6l-2.8,9.9h-1.5l-8.4-1.5l-14.3,2.8l-6.9-1.3l-4.3,4.1
		l-2.8,5.6l-2.8,7.1l-2.8,1.5l1.3,2.8l-1.3,4.1l-2.8,3l-5.8,2.8h-2.8l-5.6,1.3h-4.1l-3,1.5h-1.3h-2.8l-5.6-7.1l1.3-1.5l-4.1,3
		l-4.3-1.5h-8.4l-4.3,1.5l-1.5-1.5l-4.1,2.8l-1.5-2.8h-4.1l-5.8,1.5l-2.8-1.5h-4.1l-1.5,1.5l-2.8,2.8h-1.3l-7.1,11.3l-4.3,4.3
		l-1.3,1.3h-2.8l-5.8,7.1h-2.8v2.8l-5.6,1.5l-12.8,19.7l-11.3,12.8l-2.8-1.5v5.8v6.9h-1.5l-1.3,4.3l1.3,1.5l-5.6,4.1l-7.1,5.6
		l2.8,2.8l5.8,1.5v4.3l-4.3,6.9l-5.6-1.3l-5.6,4.1h-1.5l-16.9-1.3l-8.6,4.1l-2.8,5.8h-2.8v2.8l-5.6,5.6l-1.5,2.8l-4.1,2.8l-2.8-1.3
		l-11.4-1.5h-1.3v-2.8l-9.9-4.3l-5.6-4.1l-1.5,2.8l-6.9-8.6l-1.5-5.6h7.1l5.6-11.3l1.3-1.5l-5.6-11.3l-4.1-5.6l-2.8-9.9l-1.5-8.4
		l2.8-1.5l1.5-2.8l1.3-4.1h4.3v-1.5v-4.3l-4.3-5.6l-2.8-6.9l-1.3-3l-1.5-8.4l-2.8,2.8l-14.3,2.8l-4.1-19.7l-9.9-11.4l-2.8-2.8
		l-2.8-2.8h-2.8l-5.6-2.8l-3-2.8h-2.8l-2.8-2.8l-4.1-7.1l-5.6-4.1l4.1-4.3l7.1-2.8l4.1-1.5h9.9l-1.3-11.3l1.3-4.3l2.8-4.1l1.5-4.3
		l-4.3-14.1v-5.8l6.8,1.4l18.4,1.4l14.1-4.2l1.4,1.4l2.8,1.4l1.4,5.7l1.4,2.8l8.5-2.8l2.8-1.4l1.4,2.8v2.8l17-5.7l1.4,4.2l1.4-2.8
		l-1.4-11.3l2.8-5.7l-2.8-2.8	">
<title  id="title4098">Vallès Oriental</title>
	</path>
	<path id="segria" inkscape:connector-curvature="0" class="st0" d="M149.5-694.6l-4.3,9.9v8.4l-6.9,12.8l-12.8-1.5h-5.6l-9.9,5.6
		l-2.8,7.1l-8.6,2.8l-5.6,7.1l-4.1,7.1l-4.3,19.7l-4.3,4.3L69-612.8L39.2-607h-5.8v7.1l-2.8,17.1l-8.4-8.6l-8.4,14.3h-1.5l-1.3,9.9
		l-2.8,2.8L-10.2-546l-9.9,12.8v15.6l5.6,1.3l12.8,25.5l2.8,2.8l-7.1,7.1l-1.3,4.1l1.3,18.6l38.3,6.9l18.4-8.4l4.3,9.9l1.3,8.4
		l-5.6,7.1l2.8,7.1l-2.8,4.1l4.3,5.6l6.9,12.8v2.8L52-392l-2.8,4.3l-8.4,9.9l-5.6,11.3L25-353.7l-1.3,1.3l-7.1,2.8L2.3-348
		l-18.4-2.8v5.6v4.3l2.8,6.9v8.6l7.1,5.6v2.8l-8.4,12.8l4.3,2.8l-1.5,7.1l-2.8,6.9l-5.6,9.9L-33-264.6l28.3,24l8.4,19.9l-5.6,7.1
		l-5.6,1.3l-7.1,12.8l2.8,2.8l11.3,8.4l-1.3,9.9v2.8l14.1,24.2l27,4.1l6.9-2.8l1.5-16.9v-21.4l7.1-8.4l9.8-5.6l2.8-2.8l5.8,7.1
		l6.9,8.4l5.8,9.9l2.8,4.1l4.1,7.1l2.8,7.1l15.6,1.3l4.3-9.9l8.4-11.3l1.5-7.1l7.1-6.9l14.1,8.4h4.3l4.1-14.1l1.5-14.3l-2.8-5.6
		l2.8-5.6v-14.3l12.8-11.3l2.8-1.5l4.1-1.3l8.6-5.6L189-273l-1.3-8.4l-4.3-9.9l2.8-17.1l1.5-4.1l4.1,2.8l7.1-5.8h11.3l4.3-1.3
		l1.5-14.3l2.8-1.3l2.8-5.6l1.3,1.3l12.8,2.8l4.3-12.8l-2.8-9.8l4.1-5.6l7.1-18.6l12.8,7.1l11.3-9.9h2.8l1.5-2.8h1.5l5.6-5.6
		l-2.8-1.3l1.3-9.9l5.6,1.3v-8.4l-15.6-5.6l-5.6-2.8h-1.3v-4.3l5.6-12.8h1.3l1.5-2.8h12.8v-8.4l-7.1-29.8l-11.3-4.1l-2.8-1.5v-2.8
		l2.8-9.9l2.8-4.1l1.3-7.1l-1.3-2.8h4.1l15.6-2.8v-7.1l1.5-5.6l-1.5-7.1L288-540l-5.6-8.4l-8.4-9.9l-2.8,5.6l-8.4,8.4l-5.8-2.8
		l-1.3,1.5l-4.3,5.6l-2.8-4.3L243-540l-5.6-12.8l-5.6-4.3l-4.3-6.9l-5.6-5.6l1.3-5.8L210.4-588l-6.9-11.4l-5.6-5.6l-4.3-5.6
		l-2.8-4.3L188-619l-4.3-11.4l-5.6-5.6l-7.1-11.3l-1.3-2.8l-5.8-17.1v-15.6l1.5-8.4L149.5-694.6L149.5-694.6z M326.3-462.6l-24,4.3
		l-11.4,19.7l5.8,4.3l4.1,2.8l14.3-8.4l4.1-7.1l5.8-9.9L326.3-462.6L326.3-462.6z	">
<title  id="title4082">Segrià</title>
	</path>
	
		<path id="bages" inkscape:connector-curvature="0" sodipodi:nodetypes="ccccccccccccccccccccccccccccccccccccccccccccccccccccccccccccccccccccccccccccccccccccccccccccccccccccccccccccccccccccccccccccccccccccccccccccccccccccccccccccccccccccccccccccccccccccccccccccccccccccccccccccccccccccccccccccccccccccccccccc" class="st0" d="
		M1202-720.1l2.8,1.3l1.3-4.1l-6.9-5.6l-2.8-11.4l-1.5-5.6l-2.8-7.1l-1.5-2.8l4.3-15.6v-1.3l1.5-1.5v-1.3l-1.5-1.5l-11.3-4.1h-7.1
		l-4.3-3h-8.4l7.1,8.6l-11.3,5.6l-3,14.1l-2.8,2.8l9.9,11.4l-1.3,4.1h-9.9l-9.9-43.7h-14.1l-9.9,11.3l-12.8,7.1l-5.6,2.8l1.3,2.8
		l-8.4,1.3l-2.8,9.9l2.8,5.6l-2.8,8.6l1.3,5.6h-2.8l-12.8-9.9l-9.8,1.5l-1.5,4.1v4.3v6.9l-4.3-1.3l1.5-5.6l-5.6-4.3l-2.8-4.1l-4.3-3
		l-9.9-6.9l-6.9,5.6h-9.9l-14.3,5.6l-1.3-4.3l-2.8,1.5l-4.3-5.6l-1.5,4.1h-8.4l-7.1-1.3l3-5.6l-3-2.8l-6.9-2.8l-2.8-9.9v-1.5
		l-9.9,2.8l-11.3,1.5l-7.1-4.3l1.3-4.1l-2.8-1.5l-4.1-9.9l-7.1-2.8l-7.1,4.3l-2.8,4.1l2.8,2.8v4.3l-4.1,2.8l6.9,12.8l-2.8,1.5
		l-4.1-1.5h-3l-5.6,7.1l-6.9,7.1l-4.3,6.9l-8.4,2.8l-2.8-1.3l-9.9,14.1h-1.5v-4.1l-5.6,2.8l-5.6,8.4l9.9,7.1l4.1-2.8l8.6-7.1
		l4.1,1.3l8.4,2.8l5.8,11.4v1.3l2.8,8.6l-2.8,8.4l2.8,2.8l-4.3,5.6l-9.9,2.8l2.8,5.6l-2.8,11.4l-12.8,6.9l-2.8,7.1l2.8,4.3v2.8h2.8
		l-1.3,1.3l2.8,5.8l-5.6,8.4l1.3,2.8l-8.4,1.5v1.3l7.1,4.3l1.3,4.1v4.3l-1.3,8.4l-1.5,2.8l-2.8,4.3l-1.3,7.1l1.3,4.1l4.3,1.5h4.1
		l5.8,11.3v2.8l-8.6-2.8l-2.8-2.8l-8.4-1.3l-8.4,2.8l-5.6,5.6l-5.8,2.8l3,2.8h5.6l4.1,5.6l11.4,4.3l8.4-1.5l2.8,7.1h1.5l8.4-4.3
		l5.6,5.8l-2.8,5.6v4.1l5.6,1.5l-2.8,5.6l5.6,4.3l-2.8,5.6l1.5,5.6l5.6,11.3h2.8v-8.4l5.6-1.3h5.6l5.6,6.9l-2.8,7.1l12.8,19.9h1.5
		l7.1-1.5l5.6,2.8l2.8-4.1l4.1-4.3v-2.8l3-2.8l4.1-4.3l4.3-2.8l1.3-4.3l19.9,1.5l7.1-2.8l4.1-4.3l5.6-1.3l-1.3,5.6l1.3,5.6l7.1,2.8
		l-1.3,8.4l-1.5,5.8v11.3l9.9,5.6l7.1,1.5l1.3,1.3l4.3,4.3l9.9,7.1h14.1h7.1l1.3-5.8l-1.3-14.1l1.3-4.3l5.6,5.6l9.9-2.8l5.6-4.1
		l-1.3-9.9l-1.5-15.6l-1.3-1.5l5.6-6.9l1.5-1.5l5.6-5.6l9.9-2.8l6.9,7.1l2.8-4.3l2.8,1.3l3,3v6.9l2.8,1.5l2.8,2.8h5.6l2.8,1.3
		l7.1-2.8h8.4l5.6-5.6h8.4l5.8-4.1v-4.3l-3-8.4v-4.3l4.3-4.3l-1.3-9.8l5.6-2.8l2.8-11.4l-2.8-11.3l-1.5-5.6l-0.3-5.8l-7.1,1.4v-12.7
		l-9.9-7.1l-7.1-4.2l-12.7,4.2l-17,4.2h-5.7l-4.2-5.7l-2.8-7.1l-2.8-1.4l1.4-1.4v-9.9h-2.8v-2.8h-7.1l15.6-4.2l14.1-2.8l14.1-4.2
		l9.9-4.2l28.3-9.9h7.1l5.7-4.2l-2.8-5.7l-4.2-7.1h-2.8l-1.4-2.8l-5.7,1.4l-5.7-11.3l-18.4-4.2l-1.4-2.8l1.4-9.9l11.3-5.7l12.7-14.1
		l1.4-2.8l-1.4-4.2l-7.1-2.8l8.5-1.4l1.4-11.3l-2.8-9.9l1.4-4.2l9.9,2.8l5.7,5.7L1202-720.1z M1186.4-759.6h1.3v4.1l1.5,1.5
		l-2.8,1.3l-5.6-1.3l2.8-4.3L1186.4-759.6z M965.7-717.3h2.8l2.8,4.3l2.8-4.3l4.3,2.8l-5.6,9.9l-1.5-4.3l-5.6-2.8h2.8L965.7-717.3z	
		">
<title  id="title4817">Bages</title>
	</path>
	<path id="urgell" inkscape:connector-curvature="0" class="st0" d="M494.7-691.8l-2.8,1.3v2.8l-4.3,3l-4.3-3l-4.1,4.3l-1.5,9.9
		l2.8,1.3l-2.8,9.9h2.8v5.6l2.8,2.8l4.3-5.6l11.3-4.1l3-7.1l8.4,1.5l-1.5-7.1l-1.3-5.6h-2.8l-1.5-4.3v-2.8l-7.1-1.5L494.7-691.8
		L494.7-691.8z M532.7-688.9l-11.3,22.7l-5.6,9.8l4.3-1.3l-1.5,2.8l-16.9,31.1l-17.1,18.4l-8.4-8.4H472l-4.3,5.6h-2.8h-1.3h-2.8
		h-8.6v-2.8l-9.8,15.6l-1.5,2.8l-9.9,8.4l-2.8,1.5l4.3,11.3l8.4-2.8l2.8,4.3l4.3-1.5l-2.8,19.9l-2.8,4.1l2.8,1.5l6.9,2.8l7.1,4.3
		l11.4-7.1l6.9-7.1l2.8,1.5L459.2-532l7.1,2.8l2.8-5.6l4.3-1.3l5.6,2.8l5.6,2.8l2.8,1.3l1.5,2.8l-5.8,5.8H479v2.8l-1.5,1.3v2.8
		l-8.4-4.1l-5.6-1.5l-4.3,5.6l4.3,2.8l-4.3,15.6l-8.4,2.8l-1.5,8.6l-1.3,1.3l-2.8,1.5l-4.3,1.3l-1.3,5.8h-3l-1.3,5.6l2.8,2.8
		l-1.5,4.1l4.3,3l-2.8,5.6l2.8,5.6l-1.3,4.3v4.1l-1.5,2.8l-5.6,8.6v1.3v5.6l-2.8,4.3l4.1,2.8l2.8,4.3l5.8,4.1l4.1,5.6l1.5,2.8
		l-2.8,1.5l2.8,8.4l-2.8,5.6l-4.3,12.8l5.6,1.5l17.1,4.3l1.3,4.1l4.3,2.8H482v5.6l1.3-2.8l9.9,7.1l7.1,5.6l5.6,1.5l8.4,6.9l7.1,3
		l4.3,1.3l4.1,1.5l1.5,6.9l8.4-2.8l7.1-2.8v-2.8l18.4-4.3l12.8-5.6h5.6l-2.8-12.8l-5.6-4.1l-1.5-7.1v-4.3h2.8l1.5-1.3l1.3-11.3h-2.8
		l-1.3-1.5h5.6l1.5-1.5v-1.3l-5.8-1.5l1.5-2.8l15.6-2.8l12.8-4.1l2.8-11.4l4.1-8.4l-4.1-12.8v-2.8l-1.5-2.8l-4.1-1.5l-17.1-6.9h-2.8
		l-7.1-5.8v-4.1l-1.3-2.8l2.8-4.3l12.8-5.6l2.8-12.8l-1.5-15.6l4.3-1.5l-1.5-6.9v-1.5l-1.3-9.9v-2.8l-1.5-1.3v-1.5v-8.4h2.8l3-4.3
		l4.1-16.9l5.6-7.1l-8.4-4.3l-12.8,9.9l-5.6,1.5l-8.4-4.3l15.6-31.1v-6.9l-5.6-4.3l-4.3-1.5l2.8-1.3l4.3-1.5l-1.5-4.1l-2.8-2.8
		l-1.5-5.8l7.1-11.3h-4.1l-4.3,5.6l-11.3-4.1l-5.8-1.5v-8.4l-1.3-8.6l8.4-8.4l2.8-5.6h-5.6l-4.3,4.3l-4.1,9.8l-5.6-1.3l-1.5-1.5
		l-15.6-4.1l-1.5-4.3l1.5-5.6l1.5-5.6l6.9,5.6l7.1-5.6v-7.1l-1.5-12.8l-4.1-1.3v-2.8h-8.4l1.3-3L532.7-688.9L532.7-688.9z
		 M445.2-613.9l-2.8,8.4l-4.3,9.9l-8.4,7.1l-1.5,2.8v1.3l5.6-4.1l4.3-4.3l2.8-4.3l2.8-4.1l2.8-11.4L445.2-613.9L445.2-613.9z
		 M529.9-544.7l1.5,2.8l-17.1,14.3l-9.8,4.3l-2.8,1.3l-3-1.3l18.4-18.6l1.5,1.5L529.9-544.7L529.9-544.7z	">
<title  id="title4092">Urgell</title>
	</path>
	<path id="valles-occidental" inkscape:connector-curvature="0" class="st0" d="M1250-544.7l-8.4,4.3l-1.3,4.3l-7.1,1.3l-4.3-2.8
		l-5.6-1.3h-5.6h-7.1l-7.1-1.5l-6.9-2.8l-2.8,1.3l-5.8,7.1h-1.3l-2.8,11.4l-5.6,2.8l1.3,9.8l-4.3,4.3v4.3l3,8.4v4.3l-5.8,4.1h-8.4
		l-5.6,5.6h-8.4l-7.1,2.8l-2.8-1.3h-5.6l-2.8-2.8l-2.8-1.5v-6.9l-3-3l-2.8-1.3l-2.8,4.3l-6.9-7.1l-9.9,2.8l-5.6,5.6l-1.5,1.5
		l-5.6,6.9l1.3,1.5l1.5,15.6l1.3,9.9l-5.6,4.1l-9.9,2.8l-5.6-5.6l-1.3,4.3l1.3,14.1l-1.3,5.8l4.1,2.8l4.3-1.5l5.6,4.3l5.6,4.1
		l-4.1,2.8l16.9,7.1h7.1l1.5,7.1l1.3,1.3l-1.3,5.8l2.8,2.8l1.3,2.8l2.8,6.9l1.5,5.8l2.8,5.6l2.8,2.8l1.5,1.3l5.6,1.5v12.8l-9.9,2.8
		l-4.3,7.1l-4.1,5.6l-1.5-1.5l-1.3,2.8l2.8,5.8l5.6,4.1l1.3,8.4l7.1,7.1l4.3-4.1v4.1l1.3,2.8l7.1,4.3l4.3-2.8l5.6,5.6l2.8,8.4
		l2.8,2.8l4.3,4.3l1.3,4.3v-8.6l2.8-6.9l1.5-5.8h9.9l6.9,3l1.5,6.9l4.1,2.8l1.5,4.3l7.1-2.8l14.1,1.3l-1.3,4.3l-1.5,2.8v1.5l2.8,4.1
		l2.8,1.5l1.5,2.8l1.3,5.6l1.5,2.8h1.3l3,1.5l-1.5-2.8v-4.3l1.5-1.5l-4.3-2.8l1.3-2.8l-2.8-5.6l7.1,4.3h1.5l5.6,2.8l4.1-4.3l4.3,2.8
		l9.9,4.3l7.1-5.6l2.8-11.4l2.8-2.8h12.8l2.8-2.8l5.6-2.8l2.8-7.1l5.6-2.8l2.8-4.1h4.3h1.3l8.6-5.6l2.8,2.8h5.6l4.3-4.3l-1.5-1.5
		l-1.3-4.1l1.3-5.6l7.1-4.3v-2.8l-9.9-4.3l-5.6-4.1l-1.5,2.8l-6.9-8.6l-1.5-5.6h7.1l5.6-11.3l1.3-1.5l-5.6-11.3l-4.1-5.6l-2.8-9.9
		l-1.5-8.4l2.8-1.5l1.5-2.8l1.3-4.1h4.3v-1.5v-4.3l-4.3-5.6l-2.8-6.9l-1.3-3l-1.5-8.4l-2.8,2.8l-14.3,2.8l-4.1-19.7l-9.9-11.4
		l-2.8-2.8l-2.8-2.8h-2.8l-5.6-2.8l-3-2.8h-2.8l-2.8-2.8l-4.1-7.1l-5.6-4.1l4.1-4.3l7.1-2.8l4.1-1.5h9.9l-1.3-11.3l1.3-4.3l2.8-4.1
		l1.5-4.3l-4.3-14.1v-5.8l-5.6,3L1250-544.7L1250-544.7z	">
<title  id="title4096">Vallès Occidental</title>
	</path>
	<path id="anoia" inkscape:connector-curvature="0" class="st0" d="M763.4-631l-4.1,7.1l1.3,2.8l-4.3,14.1l-2.8,3v6.9l-5.6,19.9
		l4.3,4.1l7.1,3l4.1,4.1l-5.6,1.5l-25.5,24l12.8,1.5l-4.3,8.4l5.8,1.3v7.1l12.8,1.5l-1.5,8.4l-2.8,1.3l7.1,4.3v8.4l4.1,5.6l7.1,8.6
		h5.6l-1.3,9.9l-4.3,1.3H769l-2.8,1.5l-1.3,4.1l-5.6-5.6h-21.4l-2.8,2.8l-1.3,5.6l-12.8,4.3v2.8l-7.1,2.8l1.5,2.8l5.6,1.5l2.8-1.5
		l1.3,4.3l7.1,4.3l5.6,2.8h9.9l-1.3,11.3l-9.9,7.1v4.1h11.3l2.8-4.1l7.1-1.5l22.7,12.8l-17.1,12.8l2.8,4.3l8.6-1.5l1.3,4.3v11.3
		l-8.4-2.8l-7.1,7.1l-15.6-2.8l-4.3,8.4l-1.3,5.6v5.6l2.8,1.5l1.5,4.1l5.6,2.8l4.1,2.8l1.5-1.3l1.3,2.8l12.8,2.8l8.6,7.1v1.3h5.6
		l4.1,2.8h5.8l1.3,7.1l5.6,2.8l1.5,5.6v8.6L788.6-292l4.3,5.6v2.8H807l5.6,7.1l7.1-5.6l16.9-5.8l-1.3-2.8l5.6,2.8v-4.1l7.1-1.5
		l1.3-4.1l8.6,1.3l4.1,7.1l17.1-7.1l-2.8-9.9l-7.1-1.3l-7.1-9.9l1.5-9.9l7.1-7.1l12.6-2.8v-2.8v-4.1l4.3-3h2.8l-2.8-8.4h5.6
		l12.8,5.6l19.9,1.5H940l14.3,31.1h2.8l5.6,5.6h1.3l3,2.8l8.4,1.5l5.6,2.8l7.1,2.8h2.8l-1.5,5.6l14.3,7.1l4.1-7.1v-1.3v-8.6
		l15.6-2.8l-2.8-5.6v-1.5l1.5-2.8l8.4,2.8v-2.8l4.3-4.1l8.4-4.3l9.9-11.3v-1.5l2.8-7.1h4.1l4.3-1.3v-8.4v-1.5l-7.1-5.6l-5.6-4.3
		l-7.1-9.8l-1.3-1.5l1.3-1.5l-2.8-1.3l-2.8-9.9l-4.1-1.3h-4.3l-2.8-1.5l-4.3-4.3l1.5-4.1l5.6-4.3l5.6-31.1l-1.3-1.3l-7.1-1.5
		l-9.9-5.6v-11.3l1.5-5.8l1.3-8.4l-7.1-2.8l-1.3-5.6l1.3-5.6l-5.6,1.3l-4.1,4.3l-7.1,2.8l-19.9-1.5l-1.3,4.3l-4.3,2.8l-4.1,4.3
		l-3,2.8v2.8l-4.1,4.3l-2.8,4.1l-5.6-2.8l-7.1,1.5H943l-12.8-19.9l2.8-7.1l-5.6-6.9h-5.6l-5.6,1.3v8.4h-2.8l-5.6-11.3l-1.5-5.6
		l2.8-5.6l-5.6-4.3l2.8-5.6l-5.6-1.5v-4.1l2.8-5.6l-5.6-5.8l-8.4,4.3H888l-2.8-7.1l-8.4,1.5l-11.4-4.3l-4.1-5.6h-5.6l-3-2.8l5.8-2.8
		l5.6-5.6l8.4-2.8l8.4,1.3l2.8,2.8l8.6,2.8v-2.8l-5.8-11.3h-4.1l-4.3-1.5l-1.3-4.1l1.3-7.1l2.8-4.3l1.5-2.8l1.3-8.4v-4.3l-1.3-4.1
		l-7.1-4.3v-1.3l-5.6-5.8l-1.5,1.5l-5.6,2.8l-2.8-1.5v5.8l-7.1,1.3l-4.1,12.8h-8.4l1.3,4.3h-2.8l-1.5-4.3l3-5.6l-4.3-1.5l-2.8-2.8
		l-2.8-4.1h-5.6v-2.8l-4.3-12.8l-14.3-2.8l1.5,1.3l-1.5,2.8l1.5,8.4l-2.8,3v2.8l-4.3-2.8l-2.8,1.3l-1.3,1.5h-2.8l-4.3-4.3l5.6-2.8
		l1.5-4.3v-5.6l1.3-11.3l-9.9,1.3l-9.8-1.3L763.4-631L763.4-631z	">
<title  id="title4034">Anoia</title>
	</path>
	<path id="alt-penedes" inkscape:connector-curvature="0" class="st0" d="M887.9-355.2l2.8,8.4h-2.8l-4.3,3v4.1v2.8L871-334
		l-7.1,7.1l-1.5,9.9l7.1,9.9l7.1,1.3l2.8,9.9l-17.1,7.1l-4.1-7.1l-8.6-1.3l-1.3,4.1l-7.1,1.5v4.1l-5.6-2.8l1.3,2.8l-16.9,5.8
		l-7.1,5.6l-5.6-7.1v1.5l-7.1,2.8l-4.1-1.5l-1.5,7.1l5.6,2.8l-1.3,2.8l-1.5,2.8l2.8,2.8l2.8,11.3l-4.1,3l-2.8,6.9l-2.8,5.6l-1.5,4.3
		l25.5-12.8l7.1,5.6l12.6,2.8l7.1,8.6l2.8,6.9l4.3,1.5l4.3-1.5l5.6,3v4.1l1.3-1.3l2.8,1.3l1.5,7.1l-5.6,1.3l-8.6,9.9l4.3,4.3
		l1.5,8.4l4.1,7.1v5.6h2.8l11.4,5.6v1.5l-4.3,9.9v4.1h1.5l8.4,5.6l7.1,2.8l2.8-6.9l6.9-4.3l1.5,1.5l2.8-2.8l2.8,1.3l-2.8,2.8h-2.8
		v4.3h1.3l-1.3,7.1l-4.3,5.6l4.3,5.6l-4.3,5.6v1.5l-1.3,6.9h-2.8l-5.8,4.3l-5.6-2.8h-2.8v-1.5l-1.3-1.3l-1.5-1.5l-16.9-2.8l4.1,5.6
		v5.6l5.6,12.8l7.1,1.5l5.6-1.5l5.6,4.3l4.3,4.3l4.3,4.1l5.6-1.3l1.3-4.3l1.5-2.8l5.6-2.8l2.8-2.8l17.1-7.1l1.3-5.6l1.5-4.3l2.8-4.1
		l9.9-11.4v-1.3l2.8-5.6l4.3-5.8l2.8-6.9L953-150l5.6-4.3l14.3,3l6.9,4.1l2.8-1.3l1.5-1.5l5.6-2.8l4.3-1.5v-4.1l4.1-2.8l-1.3-8.6
		l4.3-4.1l4.1-2.8h4.3l7.1,2.8l2.8,1.3h5.6l9.9,1.5l5.6,2.8l2.8-1.5l8.4,4.3l5.6-2.8h1.5l4.3-5.6l2.8-7.1l8.4-5.6v-4.3h7.1l6.9-5.6
		l5.6-5.6l-5.6-7.1l-1.3-8.4l-8.6-4.3l-4.1-4.1l-1.5-5.6l7.1-4.3l-1.5-7.1l1.5-5.6l5.6-2.8l-2.8-4.3l5.6-8.4l-1.3-1.5l2.8-5.6
		l2.8-1.3l1.3-1.5l-14.1-22.5l-1.5-3l-1.3-2.8v-8.4l-1.5-7.1l-6.9-5.6l-9.9-7.1l-5.6-8.4v1.5l-9.9,11.3l-8.4,4.3l-4.3,4.1v2.8
		l-8.4-2.8l-1.5,2.8v1.5l2.8,5.6l-15.6,2.8v8.6v1.3l-4.1,7.1l-14.3-7.1l1.5-5.6h-2.8l-7.1-2.8l-5.6-2.8l-8.4-1.5l-3-2.8h-1.3
		l-5.6-5.6h-2.8L940.2-348h-14.1l-19.9-1.5l-12.8-5.6h-5.5V-355.2z M904.9-165.6h5.6v1.5l-4.3,2.8l-4.3-1.5L904.9-165.6L904.9-165.6
		z	">
<title  id="title4028">Alt Penedès</title>
	</path>
	<path id="alt-camp" inkscape:connector-curvature="0" class="st0" d="M794.5-324l-4.3,1.5l-5.6,6.9l-4.1-1.3l-1.5,1.3v5.8l-2.8,4.1
		l-4.3,5.6l-8.4,4.3h-8.4l-8.4,7.1l-4.3,4.1l-14.1-11.3l-9.9,5.6l1.3,4.3l-4.1,5.6l-9.9,2.8l-7.1-2.8l-11.3,2.8v-14.1l-1.5-4.3
		l-1.3-1.3l-5.6,6.9l-3,2.8l-2.8,2.8l-1.3,5.8l-7.1,2.8l-4.3,2.8l-2.8,5.6h-2.8l-6.9,7.1l-8.6,4.1l1.5,5.6l-7.1,9.9l1.5,2.8h-9.9
		l-1.5,4.3v4.3l-6.9,1.3l-3,17.1v4.1l-1.3,2.8l-2.8,5.8l-2.8,2.8l-12.8,8.4l-5.6,12.8h-1.5l-2.8-4.3l-8.4,1.5l-5.6,2.8l-9.9,4.1
		l-5.6,3h-4.3l-5.6,2.8l-11.4-2.8l-6.9-1.5l1.3-2.8l-2.8-2.8l-25.5-5.6v-1.5l-1.3-4.3l-15.6,7.1l8.4,11.4l8.4,2.8l-6.9,9.8l1.3,18.6
		l-4.1,5.6l25.3,4.1l7.1-1.3l4.3,8.4l6.9-2.8h3l4.1,1.5l11.4,2.8l-1.5,4.1l2.8,4.3l11.3,9.9l-4.1,4.1l14.1,8.6v-1.5l4.3,1.5l5.6-7.1
		L590-87l2.8-3l1.5-1.3l1.3,1.3l1.5,1.5l7.1,7.1l2.8,2.8l4.1,1.3l1.5-4.1l4.3,1.3v1.5l-1.5,1.3l1.5,9.9h8.4l9.9,4.3v-4.3l-4.3-8.4
		l-7.1-8.4l2.8-4.3l9.9,4.3l4.3-7.1l1.3-2.8l5.8-2.8l2.8,2.8l2.8-2.8l6.9-1.5l1.5-2.8v1.5l1.5,1.3l4.1,1.5l5.6,5.6l2.8,2.8l8.6,8.4
		l5.6-1.3l2.8,5.6h1.5l1.3-4.3l1.5-2.8l4.1,1.5l1.5-4.3l-2.8-5.6l-2.8-1.5l1.3,2.8h-4.1l-1.5-2.8l-2.8-5.6l4.3,1.5l1.3-1.5l2.8,1.5
		l2.8-2.8L700-104l5.6-9.9l7.1,4.3v2.8l1.3,2.8l12.8,2.8l5.6,2.8h5.6l7-0.6l2.8-4.3l2.8-2.8l11.4-2.8l-1.5-4.3l-9.9-5.6l-15.6-1.3
		l4.3-5.8v-1.3l4.3-4.3l12.6,2.8h5.8h2.8l-4.3-8.4l2.8-4.3h-8.4l-18.4-6.9l7.1-5.8l5.6-1.3l2.8-2.8l2.8-4.3L742.2-174l-2.8-4.3
		l43.9-29.6l22.5,1.3l5.8-4.1l6.9,1.3l4.3-5.6l7.1-4.3l6.9-15.6l-12.6-2.8l-7.1-5.6l-25.5,12.8l1.5-4.3l2.8-5.6l2.8-6.9l4.1-3
		l-2.8-11.3l-2.8-2.8l1.5-2.8l1.3-2.8l-5.6-2.8l1.5-7.1l4.1,1.5l7.1-2.8v-1.5H793v-2.8l-4.3-5.6l12.8-15.6v-8.6l-1.5-5.6L794.5-324
		L794.5-324z	">
<title  id="title4024">Alt Camp</title>
	</path>
	<path id="baix-penedes" inkscape:connector-curvature="0" class="st0" d="M836.9-235l-6.9,15.6l-7.1,4.3l-4.3,5.6l-6.9-1.3
		l-5.8,4.1l-22.5-1.3l-43.9,29.6l2.8,4.3l12.8,11.3l-2.8,4.3l-2.8,2.8l-5.6,1.3l-7.1,5.8l18.4,6.9h8.4l-2.8,4.3l4.3,8.4h-2.8h-5.8
		l-12.6-2.8l-4.3,4.3v1.3l-4.3,5.8l15.6,1.3l9.9,5.6l1.5,4.3l-11.4,2.8l-2.8,2.8L745-99l-4.3,2.8L739.4-85l-4.3,4.3h-5.6l2.8,15.6
		l4.3-1.5l4.1-5.6l7.1,1.5h7.1l7.1,8.4h4.1l8.6-1.5l15.4-4.1l1.5,8.4l5.6,15.6l5.6,8.4l1.5,1.5l19.9-4.3h1.3l2.8-2.8l7.1-1.5
		l21.2-2.8l7.1-1.3h19.7h1.5l5.6-2.8l1.5,1.3l2.8-1.3h1.3l2.8-1.5v1.5l9.9-1.5l2.8-1.3l-2.8-7.1v-8.4h4.3l2.8,4.1l1.3-1.3l-4.1-8.6
		l-2.8-2.8l1.3-8.4l-2.8-5.6l-5.6,2.8l-1.5,2.8l-1.3,4.3l-5.6,1.3l-4.3-4.1l-4.3-4.3l-5.6-4.3l-5.6,1.5l-7.1-1.5l-5.6-12.8v-5.6
		l-4.1-5.6l16.9,2.8l1.5,1.5l1.3,1.3v1.5h2.8l5.6,2.8l5.8-4.3h2.8l1.3-6.9v-1.5l4.3-5.6l-4.3-5.6l4.3-5.6l1.3-7.1h-1.3v-4.3h2.8
		l2.8-2.8l-2.8-1.3l-2.8,2.8l-1.5-1.5l-6.9,4.3l-2.8,6.9l-7.1-2.8l-8.4-5.6h-1.5v-4.1l4.3-9.9v-1.5l-11.4-5.6h-2.8v-5.6l-4.1-7.1
		l-1.5-8.4l-4.3-4.3l8.6-9.9l5.6-1.3l-1.5-7.1l-2.8-1.3l-1.3,1.3v-4.1l-5.6-3l-4.3,1.5l-4.3-1.5l-2.8-6.9L836.9-235L836.9-235z
		 M904.9-165.6l-3,2.8l4.3,1.5l4.3-2.8v-1.5H904.9L904.9-165.6z	">
<title  id="title4044">Baix Penedès</title>
	</path>
	<path id="baix-camp" inkscape:connector-curvature="0" class="st0" d="M448-210.8l-2.8,4.1l-5.6,5.8l-3,9.8l-6.9,2.8l-8.6,7.1
		h-15.4l5.6,14.3l-2.8,6.9l4.1,7.1l8.4-7.1l1.5-1.3l9.9,4.1l-2.8,4.3l-1.5,14.1l4.3,11.4v2.8l-2.8-1.5l-7.1,5.8l-8.4,5.6l-4.3,5.6
		l-5.6,1.3l-12.8,1.5l-5.6,2.8l7.1,19.9v2.8v9.9l-4.3,5.6l-22.7,2.8h-4.1v4.1v5.8l9.8,2.8l9.9,1.3l-2.8,2.8v5.6l1.5,4.3l-4.3,9.9
		l-7.1,12.8l-1.3,8.4V0l-2.8,9.9l-7.1,5.6h-4.3H342l-5.6-2.8l-5.6-4.3L328,5.6l-4.3,1.3l1.5,4.3h2.8l2.8,2.8l2.8,11.4l2.8,4.1
		l9.9,2.8l9.8,8.4l-1.3,1.5l-1.5,2.8v4.3H352l-1.5-2.8l1.5-2.8v-1.5v-1.5l-4.3-1.3l-2.8,1.3l-2.8,4.3h-1.5l1.5,4.3l-1.5,2.8l1.5,5.6
		v5.6l-2.8,2.8l-5.6,1.5v1.3h-4.3l-1.3,1.5l-9.9-5.6l-4.3-4.3l-8.4,12.8l-1.5,2.8l-5.6,7.1l-5.6,5.6l-2.8,4.3l1.3,4.1v7.1l-1.3,4.3
		l-5.6,15.6l1.3,2.8l2.8,2.8l7.1,16.9l2.8,4.3l5.6,15.6l9.9,8.4l-1.3,1.5l12.8,1.3l6.9,2.8l7.1,1.5l2.8-5.6l2.8-5.6l4.3-3h2.8
		l2.8-1.3l2.8-4.3V161l1.5-2.8l2.8-1.5l6.9-9.9l2.8-2.8l3-1.3l2.8-2.8l6.9-7.1h1.5h1.3h1.5l4.3-1.5l2.8-1.3l4.1-11.4l1.5-1.3
		l1.3-1.5l12.8-14.1l5.6-5.6l3-1.5l5.6-5.6l6.9-4.3l4.3-2.8l2.8,1.5l1.5-1.5h2.8l7.1-5.6l4.1-1.3h1.5l1.3-1.5h1.5l1.3-1.5h1.5
		l1.3-1.3v-1.5l3,1.5v-1.5l1.3-1.3h1.5h1.3l1.5-1.5h1.3V65l4.3-2.8h1.3l1.5,1.3h2.8l2.8-1.3h1.5V65l-1.5,1.3L493,65v-1.5l1.5-1.3
		h4.1l4.3,1.3h2.8h1.5l5.6-2.8l9.9-1.3l8.4-3l-1.5-2.8l-8.4-6.9l-2.8-4.3l-2.8-4.3l-1.5-5.6v-6.9v-3l5.8-5.6l4.1,2.8l4.3,4.3h-1.5
		v1.5l8.6,2.8l2.8-1.5v-4.3l-1.5-2.8v-4.1l-1.3-5.6l-3-1.5l1.5-5.6l1.5-1.5l6.9,1.5l8.6,5.6l5.6,1.5l8.4,12.6h8.4l-2.8-4.1l-2.8-2.8
		l4.3-4.3l-1-7.4l-2.8-2.8l-1.3,2.8l-3-4.1l3-5.6l8.4,1.3v1.5L571-1.5l2.8,4.3l9.9,1.3l1.5-2.8l-8.6-4.1l-2.8-8.6l-5.6-4.1l-4.3-1.5
		l-9.8-15.6l-2.8-2.8l6.9-5.6l1.5-4.3h2.8l9.9-12.8v-1.3l2.8-4.3L578-75l-1.5-1.5l1.5-6.9l-4.3-2.8l-14.1-8.6l4.1-4.1l-11.3-9.9
		l-2.8-4.3l1.5-4.1l-11.4-2.8l-4.1-1.5h-3l-6.9,2.8l-4.3-8.4l-7.1,1.3l-25.3-4.1l4.1-5.6l-1.3-18.6l6.9-9.8l-8.4-2.8l-8.4-11.4
		l15.6-7.1l-11.3,1.5l-8.6-4.3l-2.8,1.5h-4.1l-3-1.5l-1.3-4.1l-5.6,4.1l-7.1,1.5v-4.3l1.5-9.8l1.3-4.3l-5.6-4.3L448-210.8L448-210.8
		z M487.5,63.5L489,65v-1.5H487.5z	">
<title  id="title4036">Baix Camp</title>
	</path>
	<path id="ripolles" inkscape:connector-curvature="0" class="st0" d="M1356.1-1226.5l-4.3,8.6l-6.9,1.3l-14.3,4.3l-5.6,2.8
		l-5.6,2.8l-14.1-1.5l-8.6-6.9l-9.9,2.8l-5.6,2.8l-5.6,2.8l-7.1,4.3l-4.1,11.3l-4.3,4.1l1.5,9.9l-8.6,4.3l-11.3,5.6l-2.8,9.9
		l-1.5,1.3l-5.6-4.1l-5.6,4.1l-7.1,3h-11.3l-9.9,1.3l-8.4,8.4l-8.4,5.8h-5.8l-2.8-3v8.6l-8.4,4.1l-4.1-1.3h-5.8l-4.1,4.1l-2.8,15.6
		l18.4,11.4h6.9l7.1-5.6l7.1-1.5h8.4l9.9,4.3l5.6,4.1l7.1,4.3l5.6,2.8l4.3,1.5l-2.8,5.6l-9.9,5.6l-1.5,2.8l-5.6,5.6l-4.3,8.4
		l-5.6,7.1v1.5l-1.3,9.9l-1.5,4.1l-5.6,4.3l4.3,5.6l4.1,9.9l2.8-2.8l7.1-2.8l7.1,1.3l-1.5,4.3l-1.3,4.1l1.3,14.3l4.3,1.3l4.1,1.5
		l-2.8,2.8l1.5,8.4l-2.8,5.6h-9.9l-5.6-4.1l-4.3,4.1l-1.3,5.8l-4.3,4.1l-11.3,1.5l-1.5-2.8l-5.6-5.6l5.6-9.9l-1.3-2.8l-3-5.8
		l7.1-2.8H1168l-9.9-2.8l-5.6-1.3v18.4l9.9-1.5h8.4l-1.5,4.3l1.5,4.3l7.1,14.1l1.3,2.8v4.3l15.6-2.8l5.6,4.1l4.3,5.6l5.6-1.3
		l2.8,2.8l4.3,4.3l1.3,1.3l1.5-1.3l5.6-3v-2.8l9.9,1.5l5.6-2.8l4.3,4.1v8.6l1.3,1.3v2.8l1.5,2.8l9.9,7.1l5.6,2.8l8.4-8.4l5.6-8.4
		l11.4-4.3l16.9,1.5l1.5,2.8v5.6h4.1h5.6l1.5-4.3l2.8,2.8l2.8-1.3l-1.3-5.6l1.3-4.3l1.5-1.5l18.4-2.8l2.8,5.8l9.9-1.5l4.1-2.8
		l4.3-2.8l2.8,2.8l5.6,1.3h4.3l5.6-8.4l-1.5-1.3l-2.8,2.8l-4.1-1.5l1.3-2.8l2.8-2.8h-4.1l-1.5-2.8l-7.1-4.3l-4.1-1.3h9.9l5.6,1.3
		l4.1-1.3l5.8,2.8l4.1,4.1l7.1-4.1h5.6l2.8-1.5l5.6-2.8l5.8-1.3l9.8-2.8h1.5v-15.6l-8.4-7.1l-1.5-7.1l-5.6-4.1l-4.3-4.3l14.3-1.5
		l7.1-2.8h2.8l5.6-12.8l-4.3,1.5l-7.1,1.3l-8.4-2.8l-1.3-6.9v-4.3l4.1-2.8l7.1-1.5l9.9-4.1l5.6-2.8v-1.5l-2.8-7.1l-1.5-2.8l8.6-5.6
		l12.6-4.1v-5.8l5.8-4.1l6.9,1.3l2.8,1.5l1.5-4.3l12.8,7.1l2.8-2.8l7.1,4.1l15.6-8.4l-2.8-12.8l9.8,1.5l7.1-2.8v15.6l2.8,4.1
		l14.3,2.8h5.6l5.6-2.8l8.4-2.8l-6.9-4.1l-17.1-1.5l4.3-14.1l-2.8-11.4l-3-5.6l3-8.4l-9.9-5.6l-12.8-2.8l-5.6,1.3l-2.8-1.3l-4.3-7.1
		l-4.3-8.4l-6.9-4.3l-2.8-7.1l-8.6-1.3l-5.6-7.1v-12.8l-21.2-1.3l-9.9-5.8l-8.4-1.3l-12.8-2.8l-8.4-5.6l-1.5-5.8l-1.3-1.3h-9.9
		l-7.1-5.6l-5.6-5.6l-9.9,5.6l-9.9-5.6l-6.9-5.8l-8.6-2.8L1356.1-1226.5L1356.1-1226.5z M1189.2-938l1.3,1.5l-1.3,2.8l-1.5,1.3
		l-9.8,1.5v2.8v1.5l2.8,8.4v2.8l1.3,1.3l4.3-1.3l1.3-1.5l1.5-4.1v-7.1l8.4-4.3v-1.3l-4.1-2.8L1189.2-938L1189.2-938z	">
<title  id="title4078">Ripollès</title>
	</path>
	<path id="pla-urgell" inkscape:connector-curvature="0" class="st0" d="M364.5-581.5l-8.6,12.8l8.6,2.8l-5.6,11.4l-11.4,2.8
		l-2.8-4.3H339l-14.1,1.5l-1.5,8.4h-4.3h-6.9l-12.8,2.8v9.9l-8.6,1.3l1.5,7.1l-1.5,5.6v7.1l-15.6,2.8h-4.1l1.3,2.8l-1.3,7.1
		l-2.8,4.1l-2.8,9.9v2.8l2.8,1.5l11.3,4.1l7.1,29.8v8.4H274l-1.5,2.8h-1.3l-5.6,12.8v4.3h1.3l5.6,2.8l15.6,5.6v8.4h8.6l2.8-8.4
		l-1.5-5.6l1.5-1.5l6.9,4.3l1.5-5.6l8.4-4.3l14.3,2.8l4.1,1.5l1.5-2.8l4.1,2.8l-1.3,1.3l2.8,2.8l9.9-6.9l-1.5-1.5h5.6l1.5-1.3
		l11.3-9.9l4.3,1.3v2.8l4.3,7.1l21.2-14.1l4.1,1.3h1.5l4.3,2.8l11.3,1.5l12.8,4.3l5.6-8.6l1.5-2.8v-4.1l1.3-4.3L438-453l2.8-5.6
		l-4.3-3l1.5-4.1l-2.8-2.8l1.3-5.6h3l1.3-5.8l4.3-1.3l2.8-1.5l1.3-1.3l1.5-8.6l8.4-2.8l4.3-15.6l-4.3-2.8l4.3-5.6l5.6,1.5l8.4,4.1
		v-2.8l1.5-1.3v-2.8h4.1l5.8-5.8l-1.5-2.8l-2.8-1.3l-5.6-2.8l-5.6-2.8l-4.3,1.3l-2.8,5.6l-7.1-2.8l21.2-19.7l-2.8-1.5l-6.9,7.1
		l-11.4,7.1l-7.1-4.3l-6.9-2.8l-2.8-1.5l-2.8,2.8l-7.1-1.3l-8.4,2.8H417l-8.4-4.3l-8.6-12.8l-1.3-18.4h-14.3v-2.8l-12.8,1.5
		L364.5-581.5L364.5-581.5z M529.9-544.7l-11.3,4.3l-1.5-1.5l-18.4,18.6l3,1.3l2.8-1.3l9.8-4.3l17.1-14.3L529.9-544.7L529.9-544.7z
		 M326.3-462.6L325-457l-5.8,9.9l-4.1,7.1l-14.3,8.4l-4.1-2.8l-5.8-4.3l11.4-19.7L326.3-462.6L326.3-462.6z	">
<title  id="title4070">Pla d&apos;Urgell</title>
	</path>
	<path id="maresme" inkscape:connector-curvature="0" class="st0" d="M1685.8-567.2l-15.6,15.6l-22.7,12.8l-2.8-3l-8.4-4.1l-4.3,4.1
		l-4.1,4.3l-8.6,22.7l-9.8-1.5l-11.4,7.1l4.3,5.6l1.3,1.5l-6.9,5.6l-2.8,9.9h-1.5l-8.4-1.5l-14.3,2.8l-6.9-1.3l-4.3,4.1l-2.8,5.6
		l-2.8,7.1l-2.8,1.5l1.3,2.8l-1.3,4.1l-2.8,3l-5.8,2.8h-2.8l-5.6,1.3h-4.1l-3,1.5h-1.3h-2.8l-5.6-7.1l1.3-1.5l-4.1,3l-4.3-1.5h-8.4
		l-4.3,1.5l-1.5-1.5l-4.1,2.8l-1.5-2.8h-4.1l-5.8,1.5l-2.8-1.5h-4.1l-1.5,1.5l-2.8,2.8h-1.3l-7.1,11.3l-4.3,4.3l-1.3,1.3h-2.8
		l-5.8,7.1h-2.8v2.8l-5.6,1.5l-12.8,19.7l-11.3,12.8l-2.8-1.5v5.8v6.9h-1.5l-1.3,4.3l1.3,1.5l-5.6,4.1l-7.1,5.6l2.8,2.8l5.8,1.5v4.3
		l-4.3,6.9l-5.6-1.3l-5.6,4.1h-1.5l-16.9-1.3l-8.6,4.1l-2.8,5.8h-2.8v2.8l-5.6,5.6l-1.5,2.8l-4.1,2.8l9.9,17.1l6.9,9.8l4.3-2.8h1.3
		h1.5l1.5-1.3l6.9-4.3l2.8-1.3l1.5-1.5h1.3l5.8-2.8h4.1l-1.3,1.5l-1.5,1.3h1.5l1.3-1.3l4.3-3l2.8-1.3l2.8-1.5h4.3l2.8-1.3l4.1-1.5
		h1.5h1.5l2.8-1.3l2.8-1.5h1.3l2.8-1.3l1.5-1.5l1.3-1.3h1.5l1.5,1.3h1.3l1.5-1.3v-1.5h1.3l1.5-1.5l2.8-1.3l2.8-1.5l1.3-1.3l4.3-2.8
		h1.5l1.3-1.5h1.5l2.8-2.8h1.3l1.5-1.3l1.3-1.5l2.8-4.3l3-1.3l1.3-1.5l2.8-1.3l1.5-1.5h1.3l7.1-5.6l1.5-1.3l2.8-1.5h1.3l1.5-2.8v1.3
		h1.3v-1.3l1.5-2.8l1.3-1.5l2.8-1.3l1.5-1.5v-1.3l2.8-1.5l2.8-2.8h2.8l5.6-2.8l7.1-1.5l1.5-1.3h2.8l1.3-1.5h1.5v-1.3h1.3l1.5-2.8
		h1.5l1.3-1.5h1.5v1.5l-1.5,1.3l2.8-1.3v-1.5l2.8-1.3h1.5l4.1-4.3l7.1-2.8l11.3-7.1l5.8-1.3v-1.5h1.3h1.5h1.3l-1.3,4.3h-1.5v1.3
		l2.8-1.3l1.5-2.8l4.1-3l1.5-1.3l17.1-7.1l8.4-4.1l12.8-5.8l4.1-2.8l5.6-1.3l24.2-9.9l22.5-8.4l7.1-4.3l4.3-1.3l4.1-4.3h1.5
		l12.8-7.1l5.6-2.8l14.1-1.3l1.5-1.5l1.5-1.5l-8.6-14.1v-1.5l-5.6-12.6l8.4-8.6l1.5-8.4l-4.3-26.8l8.6-5.6v-4.3l-24.2,1.3
		L1685.8-567.2L1685.8-567.2z M1432.6-326.9h-3v1.5L1432.6-326.9z M1428.3-325.4v1.3h1.3L1428.3-325.4z	">
<title  id="title4060">Maresme</title>
	</path>
	<path id="baix-llobregat" inkscape:connector-curvature="0" class="st0" d="M1036.4-438.6l-5.6,31.1l-5.6,4.3l-1.5,4.1l4.3,4.3
		l2.8,1.5h4.3l4.1,1.3l2.8,9.9l2.8,1.3l-1.3,1.5l1.3,1.5l7.1,9.8l5.6,4.3l7.1,5.6v1.5v8.4l-4.3,1.3h-4.1l-2.8,7.1l5.6,8.4l9.9,7.1
		l6.9,5.6l1.5,7.1v8.4l1.3,2.8l1.5,3l14.1,22.5l-1.3,1.5l-2.8,1.3l-2.8,5.6l1.3,1.5l-5.6,8.4l2.8,4.3l-5.6,2.8l-1.5,5.6l1.5,7.1
		l-7.1,4.3l1.5,5.6l4.1,4.1l8.6,4.3l1.3,8.4l5.6,7.1l-5.6,5.6l-6.9,5.6h-7.1v4.3l-8.4,5.6l-2.8,7.1l-4.3,5.6h-1.5l1.5,1.5l-1.5,6.9
		l2.8,9.9l15.6,5.6l-2.8,12.8l1.5,1.5h1.3h8.6v-2.8h1.3l9.9,2.8l2.8-4.3l2.8,1.5l5.6-7.1l5.8-1.5l1.3,2.8l11.3,8.6l-2.8,2.8v4.1
		l4.3,8.6h41.1l15.6-2.8l15.6-2.8l19.7-5.8l21.4-8.4l11.3-5.6l2.8-4.3l4.3-1.3h1.3h2.8l1.5,1.3l-1.5-2.8l-1.3-1.3h1.3h1.5l2.8-2.8
		l-2.8-1.5l4.1-8.4l1.5-2.8l2.8,2.8h1.5l-3-2.8v-1.5v-1.3l-12.6-1.5l-12.8-5.6l-7.1-8.4l-5.6-4.3l1.3-1.5l-4.1-4.1l8.4-5.6l-2.8-5.8
		l-4.3-4.1l-2.8-4.3l1.5-1.3l4.1,1.3l4.3-1.3l2.8-9.9l-1.3-2.8v-4.3l-3-7.1l4.3-5.6l-1.3-4.1l-1.5-4.3h-11.3l-4.3,5.6l-4.3-2.8v-4.3
		l5.8-2.8v-1.3l-3-1.5l-4.1,4.3v-2.8l2.8-1.5l-1.5-2.8l-4.1,2.8l-4.3,2.8l-1.3,2.8l-1.5-2.8v-1.3l1.5-1.5l-3-7.1l3-1.3v-8.4h1.3
		v-1.5l1.5-2.8l1.3-4.3l-14.1-1.3l-7.1,2.8l-1.5-4.3l-4.1-2.8l-1.5-6.9l-6.9-3h-9.9l-1.5,5.8l-2.8,6.9v8.6l-1.3-4.3l-4.3-4.3
		l-2.8-2.8l-2.8-8.4l-5.6-5.6l-4.3,2.8l-7.1-4.3l-1.3-2.8v-4.1l-4.3,4.1l-7.1-7.1l-1.3-8.4l-5.6-4.1l-2.8-5.8l1.3-2.8l1.5,1.5
		l4.1-5.6l4.3-7.1l9.9-2.8v-12.8l-5.6-1.5l-1.5-1.3l-2.8-2.8l-2.8-5.6l-1.5-5.8l-2.8-6.9l-1.3-2.8l-2.8-2.8l1.3-5.8l-1.3-1.3
		l-1.5-7.1h-7.1l-16.9-7.1l4.1-2.8l-5.6-4.1l-5.6-4.3l-4.3,1.5l-4.1-2.8h-7.1H1051l-9.9-7.1L1036.4-438.6L1036.4-438.6z	">
<title  id="title4042">Baix Llobregat</title>
	</path>
	<path id="garrigues" inkscape:connector-curvature="0" class="st0" d="M398.5-437.1L377.3-423l-4.3-7.1v-2.8l-4.3-1.3l-11.3,9.9
		l-1.5,1.3h-5.6l1.5,1.5l-9.9,6.9l-2.8-2.8l1.3-1.3l-4.1-2.8l-1.5,2.8l-4.1-1.5l-14.3-2.8l-8.4,4.3l-1.5,5.6l-6.9-4.3l-1.5,1.5
		l1.5,5.6l-2.8,8.4H288l-5.6-1.3l-1.3,9.9l2.8,1.3l-5.6,5.6h-1.5l-1.5,2.8h-2.8l-11.3,9.9l-12.8-7.1l-7.1,18.6l-4.1,5.6l2.8,9.8
		l-4.3,12.8l-12.8-2.8l-1.3-1.3l-2.8,5.6l-2.8,1.3l-1.5,14.3l-4.3,1.3H199l-7.1,5.8l-4.1-2.8l-1.5,4.1l-2.8,17.1l4.3,9.9l1.3,8.4
		l-4.1,12.8l-8.6,5.6l-4.1,1.3l-2.8,1.5l-12.8,11.3v14.3l-2.8,5.6l2.8,5.6l-1.5,14.3l-4.1,14.1v2.8l2.8,8.4l8.4,11.4l8.4,2.8
		l7.1,1.3h7.1l5.6-5.6l8.4-2.8l8.4-1.5l8.6-6.9l6.9,1.3h2.8l4.3-2.8l4.3-1.3l5.6,1.3l4.1-1.3l5.8,1.3l8.4-2.8l15.6-1.3v-4.3l2.8-5.6
		l2.8-4.3l5.6-1.3l2.8,1.3l9.9,2.8l7.1,2.8h2.8l9.9,1.5l5.6-1.5l4.3-21.2l2.8-4.1l1.3-4.3l9.9-2.8l1.5,7.1l11.3,16.9l15.6-2.8
		l9.9-4.3l4.1-1.3l5.8-1.5h14.1l9.9-1.3h4.1l5.8-2.8l4.1-4.3h-2.8v-2.8v-4.3l7.1-5.6l1.3-4.3l2.8-6.9l4.3-7.1l7.1,2.8l1.3-1.3v-3
		l7.1-5.6l-1.3-4.1l9.8,1.3l5.8-5.6h2.8l2.8-7.1v-4.1h5.6l2.8-8.6l2.8-9.8l5.6-1.5l2.8-1.3l2.8-8.6l9.9-5.6l-5.6-4.3l-8.4-2.8
		l-8.4-6.9l-4.3-5.8l5.6-4.1l2.8-2.8l-8.4-11.4v-5.6h-12.8l-4.3-2.8l-1.3-4.1l-17.1-4.3l-5.6-1.5l4.3-12.8l2.8-5.6l-2.8-8.4l2.8-1.5
		l-1.5-2.8l-4.1-5.6l-5.8-4.1l-2.8-4.3l-4.1-2.8l2.8-4.3v-5.6v-1.3l-12.8-4.3l-11.3-1.5l-4.3-2.8h-1.5L398.5-437.1L398.5-437.1z	">
<title  id="title4054">Garrigues</title>
	</path>
	<path id="conca-barbera" inkscape:connector-curvature="0" class="st0" d="M757.8-423.1l-7.1,1.5l-2.8,4.1h-11.3l1.3,8.6l5.8,2.8
		v5.6l-8.6,1.3l-5.6-1.3l-2.8-4.3l-8.4-4.1l-38.3-3l-5.6-2.8l-8.4,5.8l-15.6-7.1l-8.6,4.1L639-416l-4.1,1.3l-4.3,2.8l-8.4-2.8
		l-8.6,1.5l-4.1,8.4l-2.8,11.4l-12.8,4.1l-15.6,2.8l-1.5,2.8l5.8,1.5v1.3l-1.5,1.5h-5.6l1.3,1.5h2.8l-1.3,11.3l-1.5,1.3H574v4.3
		l1.5,7.1l5.6,4.1l2.8,12.8h-5.6l-12.8,5.6l-18.4,4.3v2.8l-7.1,2.8l-8.4,2.8l-1.5-6.9l-4.1-1.5l-4.3-1.3l-7.1-3l-8.4-6.9l-5.6-1.5
		l-7.1-5.6l-9.9-7.1l-1.3,2.8l8.4,11.4l-2.8,2.8l-5.6,4.1l4.3,5.8l8.4,6.9l8.4,2.8l5.6,4.3l-9.9,5.6l-3.1,9l-2.8,1.3l-5.6,1.5
		l-2.8,9.8l-2.8,8.6h-5.6v4.1l-2.8,7.1h-2.8L465-259l-9.8-1.3l1.3,4.1l-7.1,5.6v3l-1.3,1.3l-7.1-2.8l-4.3,7.1l-2.8,6.9l-1.3,4.3
		l-7.1,5.6v4.3v2.8h2.8l-4.1,4.3l-5.8,2.8H414l-9.9,1.3H390l-5.8,1.5l1.5,5.6v8.4v5.6l19.9,7.1H421l8.6-7.1l6.9-2.8l3-9.8l5.6-5.8
		l2.8-4.1l2.8,1.3l5.6,4.3l-1.3,4.3l-1.5,9.8v4.3l7.1-1.5l5.6-4.1l1.3,4.1l3,1.5h4.1l2.8-1.5l8.6,4.3l11.3-1.5l1.3,4.3v1.5l25.5,5.6
		l2.8,2.8l-1.3,2.8l6.9,1.5l11.4,2.8l5.6-2.8h4.3l5.6-3l9.9-4.1l5.6-2.8l8.4-1.5l2.8,4.3h1.5l5.6-12.8l12.8-8.4l2.8-2.8l2.8-5.8
		l1.3-2.8v-4.1l3-17.1l6.9-1.3v-4.3l1.5-4.3h9.9l-1.5-2.8l7.1-9.9l-1.5-5.6l8.6-4.1l6.9-7.1h2.8l2.8-5.6l4.3-2.8l7.1-2.8l1.3-5.8
		l2.8-2.8l3-2.8l5.6-6.9l1.3,1.3l1.5,4.3v14.1l11.3-2.8l7.1,2.8l9.9-2.8l4.1-5.6l-1.3-4.3l9.9-5.6l14.1,11.3l4.3-4.1l8.4-7.1h8.4
		l8.4-4.3l4.3-5.6l2.8-4.1v-5.8l1.5-1.3l4.1,1.3l5.6-6.9l4.3-1.5l-1.3-7.1h-5.8l-4.1-2.8h-5.6v-1.3l-8.6-7.1l-12.8-2.8l-1.3-2.8
		l-1.5,1.3l-4.1-2.8l-5.6-2.8l-1.5-4.1l-2.8-1.5v-5.6l1.3-5.6l4.3-8.4l15.6,2.8l7.1-7.1l8.4,2.8V-390l-1.3-4.3l-8.6,1.5l-2.8-4.3
		l17.1-12.8L757.8-423.1L757.8-423.1z	">
<title  id="title4050">Conca de Barberà</title>
	</path>
	<path id="barcelones" inkscape:connector-curvature="0" class="st0" d="M1329.3-329.7l-7.1,4.3l-1.3,5.6l1.3,4.1l1.5,1.5l-4.3,4.3
		h-5.6l-2.8-2.8l-8.6,5.6h-1.3h-4.3l-2.8,4.1l-5.6,2.8l-2.8,7.1l-5.6,2.8l-2.8,2.8h-12.8l-2.8,2.8l-2.8,11.4l-7.1,5.6l-9.9-4.3
		l-4.3-2.8l-4.1,4.3l-5.6-2.8h-1.5l-7.1-4.3l2.8,5.6l-1.3,2.8l4.3,2.8l-1.5,1.5v4.3l1.5,2.8v1.3l-5.8,2.8v4.3l4.3,2.8l4.3-5.6h11.3
		l1.5,4.3l1.3,4.1l-4.3,5.6l3,7.1v4.3l1.3,2.8l-2.8,9.9l-4.3,1.3l-4.1-1.3l-1.5,1.3l2.8,4.3l4.3,4.1l2.8,5.8l-8.4,5.6l4.1,4.1
		l-1.3,1.5l5.6,4.3l7.1,8.4l12.8,5.6l12.6,1.5h1.5l1.5-1.5h1.3v-1.5l1.5-4.1h4.1v-1.5l1.5-4.1l2.8-7.1l-1.5-1.5h-2.8h-1.3l-1.5,1.5
		l-2.8,5.6l-1.3,4.3h-3l1.5-2.8l-2.8-1.5l1.3-1.3h3l1.3-9.9l1.5,2.8v1.3l5.6-4.1l-1.5-1.5l1.5-2.8h1.3l2.8,2.8v1.5l4.3-8.4l-2.8-3
		l1.5-1.3l2.8,1.3l1.3-1.3l-1.3-1.5h-1.5l1.5-2.8l2.8,1.5l1.3-2.8l-2.8-1.5v-4.1h1.5l1.3,1.3h1.5l-2.8-2.8l2.8-4.3v1.5l-1.5,1.3
		l1.5,1.5l1.3-2.8l-1.3-2.8h1.3h1.5v1.3v1.5v1.3h-1.5v3l1.5-1.5v1.5l-1.5,1.3v2.8h1.5v1.5h1.3l-1.3,2.8l-1.5,5.6l1.5-4.3l1.3-1.3
		l1.5-5.6h-1.5v-1.5l3-7.1l1.3-1.3l1.5-2.8l1.3-1.5v-1.3v-1.5h1.5h1.3v-1.3l4.3-5.8l2.8-2.8l1.5-1.3l1.3-1.5v-1.3l5.6-4.3v-1.5
		l1.5,1.5l1.3-4.3l1.5,1.5v-1.5l-1.5-1.3h-1.3l1.3-2.8l1.5,1.3v1.5l1.3-1.5l-1.3-1.3h1.3v-2.8l1.5-2.8l1.5-1.5l1.3-1.5v-1.3l1.5-2.8
		v-1.5l2.8-5.6v4.3l1.3-4.3v-1.3v-1.5h1.5v-1.3l1.3-3l1.5-1.3l1.3-1.5l1.5-2.8l2.8-2.8l1.5-1.3l4.1-2.8l2.8-3l-6.9-9.8l-9.9-17.1
		l-2.8-1.3l-11.4-1.5L1329.3-329.7L1329.3-329.7z M1333.4-256.2l-1.3,5.6l2.8-5.6H1333.4z M1312.2-230.7v1.5l1.5-1.5H1312.2z
		 M1312.2-229.2l-1.3,1.3v1.5L1312.2-229.2L1312.2-229.2z M1301-210.8l-1.5,1.3h1.5V-210.8z M1209.1-275.9v8.4l-3,1.3l3,7.1
		l-1.5,1.5v1.3l1.5,2.8l1.3-2.8l4.3-2.8l4.1-2.8l-1.3-5.6l-1.5-2.8l-2.8-1.5l-2.8-4.1H1209.1L1209.1-275.9z M1220.3-259l-2.8,1.5
		v2.8l4.1-4.3H1220.3L1220.3-259z M1298.2-209.5l-2.8,5.6l-2.8,5.8l-2.8,4.1v4.3v2.8v1.3v1.5v2.8l1.3-7.1l1.5-6.9l2.8-5.6l2.8-7.1
		V-209.5z	">
<title  id="title4046">Barcelonès</title>
	</path>
	<path id="priorat" inkscape:connector-curvature="0" class="st0" d="M341.8-223.5l-9.9,2.8l-1.3,4.3l-2.8,4.1l-4.3,21.2l-5.6,1.5
		l-9.9-1.5h-2.8l-7.1-2.8l-9.9-2.8l-2.8-1.3l-5.6,1.3l-2.8,4.3l-2.8,5.6v4.3v2.8l-7.1,4.1L264-174h-5.6l-7.1,2.8l-5.6,1.3l-2.8,8.6
		l-5.6,9.9l-4.3,4.1l2.8,9.9v8.4l-5.6,5.6l-2.8,7.1l-2.8,1.5v1.3l1.3,7.1l-1.3,5.6l-1.5,2.8l2.8,5.6l4.3-1.3l8.4,7.1L223-72.2h-2.8
		l-8.4,8.4l-1.5,1.5l-5.6,2.8l5.6,7.1l7.1,9.8v7.1l2.8,5.6l5.6,7.1l4.3,11.3l1.5,2.8h-2.8l-1.5,1.5l1.5,2.8l1.3,1.5l2.8,2.8h2.8
		l1.5,4.1l4.1,2.8v4.3l2.8,2.8l-4.1,4.3l8.4,2.8h4.3l1.3-1.5l2.8,4.3l9.9,7.1l1.5,6.9h6.9l3-4.1l1.3-4.3l2.8,8.4l8.4,5.8l5.8,6.9
		l5.6,2.8l4.1,2.8l1.5,1.5h4.3l1.3-1.5v-2.8l5.6-4.1l1.5-5.6v-4.3l-1.5-1.5h-1.3v-1.3l4.1-8.4l1.5-1.5l1.5,1.5h2.8l5.6-2.8L330.6,14
		l-2.8-2.8H325l-1.5-4.3l4.3-1.3l2.8,2.8l5.6,4.3l5.6,2.8h11.3h4.3l7.1-5.6l2.8-9.9v-4.3l1.3-8.4l7.1-12.8l4.3-9.9l-1.5-4.3v-5.6
		l2.8-2.8l-9.9-1.3l-9.8-2.8V-58v-4.1h4.1l22.7-2.8l4.3-5.6v-9.9v-2.8l-7.1-19.9l5.6-2.8l12.8-1.5l5.6-1.3l4.3-5.6l8.4-5.6l7.1-5.8
		l2.8,1.5v-2.8l-4.3-11.4l1.5-14.1l2.8-4.3l-9.9-4.1L421-160l-8.4,7.1l-4.1-7.1l2.8-6.9l-5.6-14.3l-19.9-7.1v-5.6v-8.4l-1.5-5.6
		l-4.1,1.3l-9.9,4.3l-15.6,2.8l-11.3-16.9L341.8-223.5L341.8-223.5z	">
<title  id="title4074">Priorat</title>
	</path>
	<path id="ribera-ebre" inkscape:connector-curvature="0" class="st0" d="M67.3-205.2l-2.8,2.8l-9.8,5.6l-7.1,8.4v21.4l-1.5,17
		l-6.9,2.8l-27-4.1h-1.3l-7.1,15.6v8.4L1-120.2l2.8,6.9l2.8,2.8L0.9-109l-1.5,2.8l1.5,4.3L-0.6-99l-1.3,5.6l-2.8,2.8v2.8v2.8
		l8.4-5.6H8h2.8l9.9-2.8l1.3-2.8l9.9-2.8l9.9-4.3l11.3,7.1l4.3,4.1l2.8,4.3l1.3,7.1L76-79.3l4.1,4.3l5.8,2.8l1.3,1.5l1.5,1.3
		l2.8,19.9l-4.3,5.6l1.5,7.1l-2.8,4.1l-1.5,4.3l-2.8,5.6l1.3,4.3l5.8,2.8l9.8,4.1l9.9,7.1L117,0l9.8,2.8L124,6.9l-5.6,5.8l-5.6,8.4
		v4.3l-2.8,2.8l-5.6,8.4l-4.3,7.1l-4.3,2.8l-5.8,3l-4.1,4.1l2.8,4.3l5.6-1.5l4.1-1.3h7.1l1.5,7.1l4.1,2.8l5.8,1.3l2.8,4.3V79
		l5.6,4.3h1.3l4.3,5.6l1.5,2.8l2.8,5.6l-7.1,2.8l-2.8,1.5l2.8,5.6l2.8,1.5l5.6,5.6l-1.3,2.8l4.1,2.8l-6.9,4.3l-1.5,5.6l7.1,6.9
		l5.6,1.5l-2.8,7.1l4.1,4.1v7.1l4.3,2.8v4.3l-2.8,8.4h7.1h2.8v4.3l2.8,1.3l2.8,2.8l9.9-2.8l22.5-6.9h8.6l2.8-1.5h4.1l4.3,2.8
		l2.8,1.5l2.8-2.8l35.4,5.6l7.1,6.9h2.8l31.1-5.6l15.6-1.3l1.3-1.5l-9.9-8.4l-5.6-15.6l-2.8-4.3l-7.1-16.9l-2.8-2.8l-1.3-2.8
		l5.6-15.6l1.3-4.3V97l-1.3-4.1l2.8-4.3l5.6-5.6l5.6-7.1l1.5-2.8l8.4-12.8l4.3,4.3l9.9,5.6l1.3-1.5h4.3v-1.3l5.6-1.5l2.8-2.8v-5.6
		l-1.5-5.6l1.5-2.8l-1.5-4.3h1.5l2.8-4.3l2.8-1.3l4.3,1.3V42v1.5l-1.5,2.8l1.5,2.8h1.3v-4.3l1.5-2.8l1.3-1.5l-9.8-8.4l-9.9-2.8
		l-2.8-4.1l-5.6,2.8H325l-1.5-1.5L322,28l-4.1,8.4V38h1.3l1.5,1.5v4.3l-1.5,5.6l-5.6,4.1v2.8l-1.3,1.5H308l-1.5-1.5l-4.1-2.8
		l-5.6-2.8l-5.8-6.9l-8.4-5.8l-2.8-8.4l-1.3,4.3l-3,4.1h-6.9l-1.5-6.9l-9.9-7.1l-2.8-4.3l-1.3,1.5h-4.3l-8.4-2.8l4.1-4.3l-2.8-2.8
		V6.9l-4.1-2.8L235.7,0h-2.8l-2.8-2.8l-1.3-1.5l-1.5-2.8l1.5-1.5h2.8l-1.5-2.8l-4.3-11.3l-5.6-7.1l-2.8-5.6v-7.1l-7.1-9.8l-5.6-7.1
		l5.6-2.8l1.5-1.5l8.4-8.4h2.8l15.6-14.1l-8.4-7.1l-4.3,1.3l-2.8-5.6l1.5-2.8l1.3-5.6l-1.3-7.1v-1.3l2.8-1.5l2.8-7.1l5.6-5.6v-8.4
		l-2.8-9.9l4.3-4.1l5.6-9.9l2.8-8.6l5.6-1.3l7.1-2.8h5.6l2.8-1.5l7.1-4.1v-2.8l-15.6,1.3l-8.4,2.8l-5.8-1.3l-4.1,1.3l-5.6-1.3
		l-4.3,1.3l-4.3,2.8H223l-6.9-1.3l-8.6,6.9l-8.4,1.5l-8.4,2.8l-5.6,5.6H178l-7.1-1.3l-8.4-2.8l-8.4-11.4L151-184v-2.8h-4.3
		l-14.1-8.4l-7.1,6.9l-1.5,7.1l-8.4,11.3l-4.3,9.9l-15.6-1.3l-2.8-7.1l-4.1-7.1l-2.8-4.1l-5.8-9.9l-6.9-8.4L67.3-205.2L67.3-205.2z	
		">
<title  id="title4076">Ribera d&apos;Ebre</title>
	</path>
	<path id="garraf" inkscape:connector-curvature="0" class="st0" d="M1005.3-176.8l-4.1,2.8l-4.3,4.1l1.3,8.6l-4.1,2.8v4.1l-4.3,1.5
		l-5.6,2.8l-1.5,1.5l-2.8,1.3l-6.9-4.1l-14.3-3L953-150l1.5,4.3l-2.8,6.9l-4.3,5.8l-2.8,5.6v1.3l-9.9,11.4l-2.8,4.1l-1.5,4.3
		l-1.3,5.6L912-93.6l-2.8,2.8l2.8,5.6l-1.3,8.4l2.8,2.8l4.1,8.6l-1.3,1.3l-2.8-4.1h-4.3v8.4l2.8,7.1l1.5-1.5h4.1l-1.3,1.5l-4.3,1.3
		h7.1v-1.3v-1.5l12.8-1.3l4.3-3l2.8-1.3l2.8-1.5l4.1-2.8l7.1-1.3l7.1-1.5l4.1-1.3h5.8l1.3,1.3L970-71l5.6-1.5l1.3,5.6h1.5l-1.5-2.8
		l1.5-1.3l2.8-3h4.3h2.8l2.8-1.3l4.1,1.3l1.5-1.3h1.3l1.5-1.5h1.5h1.3l4.3-2.8l2.8,1.5l2.8-1.5v1.5l1.3-1.5v-1.3l3-1.5l1.3-1.3
		l2.8-1.5l7.1-2.8h2.8l2.8-1.5l2.8-1.3l1.5,1.3v1.5h1.3l1.5-1.5l1.3,1.5v-1.5l1.5-1.3l7.1,2.8l1.3-1.5l2.8,1.5l1.5-1.5h2.8l4.3,1.5
		l2.8-1.5l1.3-2.8h2.8v1.5l1.5-1.5l-1.5-1.3h1.5v-1.5l9.9-4.1l5.6-1.5l4.1-1.3l2.8-3h1.5l2.8-1.3l2.8-1.5l12.8-4.1l-1.3,1.3
		l-1.5,1.5h1.5l4.1-2.8l4.3-1.5l5.6-1.3l-4.3-8.6v-4.1l2.8-2.8l-11.3-8.6l-1.3-2.8l-5.8,1.5l-5.6,7.1l-2.8-1.5l-2.8,4.3l-9.9-2.8
		h-1.3v2.8h-8.6h-1.3l-1.5-1.5l2.8-12.8l-15.6-5.6l-2.8-9.9l1.5-6.9l-1.5-1.5l-5.6,2.8l-8.4-4.3l-2.8,1.5l-5.6-2.8l-9.9-1.5h-5.6
		l-2.8-1.3l-7.1-2.8L1005.3-176.8L1005.3-176.8z M1095.8-104.8l-1.5,3l-1.3,1.3h1.3L1095.8-104.8z M1042-87.8l-1.3,1.5h1.3V-87.8z
		 M975.6-66.6l-1.5,1.5l-2.8,2.8l2.8-1.5L975.6-66.6z	">
<title  id="title4052">Garraf</title>
	</path>
	<path id="terra-alta" inkscape:connector-curvature="0" class="st0" d="M-4.7-114.6l-1.5,5.6v4.1l-2.8,1.5h-2.8l-5.6-1.5l-5.6-2.8
		h-1.5l-1.3,4.3l-1.5,1.5l-2.8,1.3l-5.6-2.8v1.5l-2.8,2.8l-1.5,8.4L-47.1-68l-1.3,5.6l-1.5,4.1l-1.3,12.8l-1.5,2.8l-2.8-1.3
		l-4.1,1.3v1.5h-3l-12.6,8.4L-88.1-34v1.3l1.3,2.8v2.8l-2.8,2.8v4.3l-1.3,2.8l-3,2.8H-98l-2.8-1.3l-11.4-5.6h-4.1h-1.5l2.8,1.3
		l1.5,1.5v1.3l-1.5,1.5l-8.4,1.3l-2.8,1.5v2.8l5.6,5.6l-2.8,9.9l-4.3,1.3v18.6l1.5,2.8h2.8l5.6-1.5l4.3,1.5l1.3,2.8v1.3l-2.8,1.5
		h-1.3V35l2.8,1.5v4.1l-2.8,4.3l2.8,5.6l4.1,2.8v2.8v1.5l-1.3,1.5l-2.8,1.3l-2.8,2.8V65v2.8h2.8l2.8-2.8l2.8-1.5h1.5l1.3,1.5v1.3
		l-1.3,2.8L-108,72v1.5l1.5,1.5l5.6,1.3h1.3l1.5-1.3v-4.3v-1.5h1.3l1.5,1.5L-94,75l4.3,4.1l7.1,5.6h2.8l2.8,1.5l4.3,2.8v1.5
		l-2.8,1.3l-3-1.3h-4.1H-84l-2.8,1.3l-1.3,1.5l1.3,4.1L-84,99h4.3l1.3,2.8l1.5,2.8l-2.8,1.5l-1.5,2.8v2.8l1.5,1.3l1.3,2.8l4.3,4.3
		l1.5,5.6v4.3v4.1h4.1l2.8,1.5v1.3l-4.1,5.8h-1.5v5.6v1.3l-1.3,2.8l-1.5,3l-2.8,1.3l-1.5,1.5l-2.8,4.1l1.5,7.1l-5.6,7.1h-2.8
		l-5.8,5.6v9.9h-2.8l-1.3,1.3v1.5l2.8,4.1l-2.8,1.5v7.1l-2.8,2.8v4.1l-4.3,1.5l-1.3,1.3l1.3,1.5l4.3,2.8l2.8,1.5l2.8,4.1v4.3
		l-2.8,7.1l1.3,2.8v4.1l1.5,2.8l4.3,15.6l5.6,7.1l4.1,4.3l1.5,2.8l-1.5,1.3h-1.3l-1.5,1.5l14.3,2.8l14.1-22.7l12.8-4.1l4.3-8.6
		l6.9-6.9l14.3-17.1v-4.1l5.6-5.8l-4.3-6.9l1.5-2.8l-1.5-7.1l1.5-2.8v-5.6l1.3-1.5v-11.3l4.3-5.6v-5.8l4.3-1.3l4.1,1.3l5.8-6.9v-1.5
		l4.1-1.3h2.8l8.6-4.3h5.6l5.6-1.5h5.6l7.1-2.8l6.9-12.8l8.6,1.5l4.1-1.5l7.1,2.8l7.1-6.9l4.1-4.3l4.3-2.8l4.3-4.3l8.4-1.3l11.3-7.1
		l9.9-4.1l4.3-4.3l2.8-1.5l7.1-2.8l-2.8-5.6l-1.5-2.8l-4.3-5.6h-1.3l-5.6-4.3v-8.4l-2.8-4.3l-5.8-1.3l-4.1-2.8l-1.5-7.1h-7.1
		l-4.1,1.3l-5.6,1.5l-2.8-4.3l4.1-4.1l5.6-2.8l4.3-2.8l4.3-7.1l5.6-8.4l2.8-2.8v-4.3l5.6-8.4l5.6-5.8l2.8-4.1L117,0l-8.6-4.3
		l-9.9-7.1l-9.8-4.1l-5.8-2.8l-1.3-4.3l2.8-5.6l1.5-4.3l2.8-4.1l-1.5-7.1l4.3-5.6l-2.8-19.9l-1.5-1.3L85.9-72l-5.8-3L76-79.3
		l-14.3-1.3l-1.3-7.1L57.6-92l-4.3-4.1L42-103.3L32.1-99l-9.9,2.8l-1.3,2.8L11-90.6H8.1H3.8L-4.7-85v-2.8v-2.8l2.8-2.8l1.3-5.6
		l1.5-2.8l-1.5-4.3l1.5-2.8l5.6-1.5l-2.8-2.8L-4.7-114.6L-4.7-114.6z	">
<title  id="title4090">Terra Alta</title>
	</path>
	<path id="tarragones" inkscape:connector-curvature="0" class="st0" d="M705.4-113.3l-5.6,9.9l1.3,4.3l-2.8,2.8l-2.8-1.5l-1.3,1.5
		l-4.3-1.5l2.8,5.6l1.5,2.8h4.1l-1.3-2.8l2.8,1.5l2.8,5.6l-1.5,4.3l-4.1-1.5l-1.5,2.8l-1.3,4.3h-1.5l-2.8-5.6l-5.6,1.3l-8.6-8.4
		l-2.8-2.8l-5.6-5.6l-4.1-1.5l-1.5-1.3v-1.5l-1.5,2.8l-6.9,1.5l-2.8,2.8l-2.8-2.8l-5.8,2.8l-1.3,2.8l-4.3,7.1l-9.9-4.3l-2.8,4.3
		l7.1,8.4l4.3,8.4v4.3l-9.9-4.3h-8.4l-1.5-9.9l1.5-1.3v-1.5l-4.3-1.3l-1.5,4.1l-4.1-1.3l-2.8-2.8l-7.1-7.1l-1.5-1.5l-1.3-1.3
		l-1.5,1.3l-2.8,3l-5.6-7.1l-5.6,7.1l-4.3-1.5v1.5l4.3,2.8l-1.5,6.9l1.5,1.5l-2.8,11.3l-2.8,4.3v1.3l-9.9,12.8h-2.8l-1.5,4.3
		l-6.9,5.6l2.8,2.8l9.8,15.6l4.3,1.5l5.6,4.1l2.8,8.6l8.6,4.1l-1.5,2.8l-9.9-1.3L571-1.5l4.3-1.3v-1.5l-8.4-1.3l-3,5.6l3,4.1
		l1.3-2.8l2.8,2.8l1.5,7.1l-4.3,4.3l2.8,2.8l2.8,4.1h-8.4L557,9.8l-5.6-1.5l-8.6-5.6l-6.9-1.5l-1.5,1.5l-1.5,5.6l3,1.5l1.3,5.6v4.1
		l1.5,2.8v4.3l-2.8,1.5l-8.6-2.8V24h1.5l-4.3-4.3l-4.1-2.8l-5.8,5.6v3v6.9l1.5,5.6l2.8,4.3l2.8,4.3l8.4,6.9l1.5,2.8l4.3-1.3h4.1h1.5
		h2.8l4.1,1.3l1.5,3l2.8,1.3v2.8h4.3l2.8,1.5v2.8h1.3V69l1.5,2.8h-1.5l1.5,1.5l4.3-1.5v1.5h2.8l4.1-5.6h1.5l1.3-2.8l-1.3-1.5v-2.8
		l4.1-8.4l4.3-9.9l5.6-5.6l5.6-4.3l1.5,2.8l2.8,2.8l1.5-2.8l-1.5-2.8l7.1-5.6h1.3l-1.3,4.3l1.3-1.5v2.8h1.5l1.3-1.3l-1.3-4.3h1.3
		l1.5,4.3l5.6-2.8l-1.3-1.5v-1.3l2.8,1.3h1.3l-2.8-1.3L619,24l2.8-1.5l2.8,1.5l-1.5,2.8v-1.3l-1.3,1.3l1.3,1.5l-9.9,4.1l-1.3,4.3
		l-1.5-1.5l-2.8,5.6l1.5,1.5l-4.3,4.3V48l4.3-4.1l4.1-7.1l9.9-5.6l1.5-2.8l1.3-1.5l1.5-2.8h1.3v-1.5l1.5-1.3l1.5-1.5l2.8-1.3
		l2.8,1.3v1.5l1.3-1.5h1.5h1.3v-1.3l1.5-1.5v-1.3l5.6-2.8l8.4-4.3l5.8-1.5L674,5.8l5.6,1.3h8.4l5.8,3l1.3-3l4.3,1.5l6.9-2.8l9.9-2.8
		l5.6-1.5l1.5,1.5l2.8,1.3h4.3l1.3-1.3h2.8l1.5-2.8h1.3L736-1.3l26.8-15.6l14.3-8.4l18.4-5.6l8.4-2.8l-1.5-1.5l-5.6-8.4l-5.6-15.6
		l-1.5-8.4l-15.4,4.1l-8.6,1.5h-4.1l-7.1-8.4h-7.1l-7.1-1.5l-4.1,5.6l-4.3,1.5l-2.8-15.6h5.6l4.3-4.3l1.3-11.3l4.7-3l-7.1,1.3h-5.6
		l-5.6-2.8l-12.8-2.8l-1.3-2.8v-2.8L705.4-113.3L705.4-113.3z M628.9,24l-1.3,2.8l1.3-1.3V24z	">
<title  id="title4088">Tarragonès</title>
	</path>
	<path id="baix-ebre" inkscape:connector-curvature="0" class="st0" d="M125.5,101.8l-4.3,4.3l-9.9,4.1l-11.3,7.1l-8.4,1.3l-4.3,4.3
		l-4.3,2.8l-4.1,4.3l-7.1,6.9l-7.1-2.8l-4.1,1.5l-8.6-1.5L44.8,147l-7.1,2.8h-5.6l-5.6,1.5h-5.6l-8.6,4.3H9.4l-4.1,1.3v1.5l-5.8,6.9
		l-4.1-1.3l-4.3,1.3v5.8l-4.3,5.6V188l-1.3,1.5v5.6l-1.5,2.8l1.5,7.1l-1.5,2.8l4.3,6.9l-5.6,5.8v4.1l-14.3,17.1l-6.9,6.9l-4.3,8.6
		l-12.8,4.1L-69.7,284l-14.3-2.8l-4.1,2.8l-5.8,14.1l-6.9,1.5l-4.3,5.6l-7.1,4.3v7.1l14.3-1.5l9.9,1.5l4.1,1.3l2.8,7.1l-4.1,1.3
		l1.3,2.8l1.5,3l1.3,1.3l1.5-2.8l5.6-1.5v9.9l1.5,2.8l1.3,4.3h5.6l9.9,5.6l5.6-5.6h4.3l2.8-9.9l8.4,4.3l28.3-2.8v1.3L15,357.8
		l14.3,2.8l7.1,1.5h18.4l5.6,1.3l9.9-1.3h6.9h4.3l11.3-4.3l2.8-2.8l5.8,1.5l2.8-2.8l4.1,2.8l7.1,1.3l7.1-6.9l2.8,1.3l5.6,17.1
		l2.8,15.6l14.1,8.4l9.9,2.8l21.2-8.4l12.8-2.8l11.4-2.8l4.1,4.1l5.8,2.8h4.1l39.6,5.6l5.8,3l16.9,11.3h11.3l17.1-9.9l12.8-7.1
		l16.9-4.1h15.6l-2.8-7.1l-2.8-8.4l-1.3,1.3v2.8h-4.3L339,372h-2.8l-1.5,1.3l-2.8,1.5l-4.1,1.3H325h-4.3l-2.8-1.3l-4.3-5.6l-5.6-5.8
		l-18.4-25.3l-7.1-12.8l-2.8-2.8l-4.3-2.8l-2.8-2.8l-5.6-1.5h-8.4h-4.3H250l-2.8,1.5l-3,2.8l4.3,2.8h4.3h2.8l2.8,1.3l4.3,1.5
		l4.1,1.3l5.6,2.8l4.3,1.5l7.1,4.3L281,338h-1.5l-2.8,2.8l-2.8,1.3l-1.5,1.5l-4.1,1.3l-9.9-1.3l-9.9-4.3l-4.3-2.8l-6.9-8.4l-1.5-1.5
		l-4.1-4.1l-4.3-5.6l-4.3-9.9l1.5-2.8l2.8-2.8l1.5-1.5l1.3-1.5l2.8-1.3l4.3-1.5h1.3l1.5-2.8l2.8-1.3l4.3-1.5l1.3-2.8l1.5-1.3h2.8
		v1.3l1.3-1.3l1.5-3l-1.5-1.3v-1.5l2.8-6.9v-1.5h1.5l1.3-1.3v-3l3-2.8h1.3h1.5h2.8h1.3l1.5-2.8v-1.3l2.8-2.8l1.3-2.8l1.5-1.5
		l7.1-1.3l4.1-3v-1.3h1.5l1.3-1.5l1.5-1.3l2.8-4.3l-1.3-1.3h1.3v-1.5l1.5-1.3l1.3-1.5l1.5-2.8l1.3-1.5v1.5v1.3l1.5-1.3v-1.5v-1.3
		l1.3-1.5v-1.3l1.5-1.5h1.3l1.5-1.3l2.8-1.5l1.5-4.3l2.8-1.3l1.3-2.8v-1.5h1.5v-1.3v-1.5v-1.3l1.3-1.5l1.5-1.3h1.3v-3h1.5v-1.3h1.5
		l1.3-4.3l2.8-1.3l4.3-4.3l1.3-1.3l1.5-1.5v-1.3v-1.5l2.8-2.8l-7.1-1.5l-6.9-2.8l-12.8-1.3l-15.6,1.3l-31.1,5.6h-2.8l-7.1-6.9
		l-35.4-5.6l-2.8,2.8l-2.8-1.5l-4.3-2.8h-4.1l-2.8,1.5h-8.6l-22.5,6.9l-9.9,2.8l-2.8-2.8l-2.8-1.3v-4.3h-2.8h-7.1l2.8-8.4v-4.3
		l-4.3-2.8v-7.1l-4.1-4.1l2.8-7.1l-5.6-1.5l-7.1-6.9l1.5-5.6l6.9-4.3l-4.1-2.8l1.3-2.8l-5.6-5.6l-2.8-1.5L125.5,101.8L125.5,101.8z
		 M300.8,233.2l-1.3,1.5v1.5L300.8,233.2z M232.9,297l-1.3,2.8l1.3-1.5V297z	">
<title  id="title4038">Baix Ebre</title>
	</path>
	<path id="montsia" inkscape:connector-curvature="0" class="st0" d="M-98.1,315.4l-14.3,1.5v2.8l-2.8,8.4l-2.8,1.3h-2.8l-8.4-1.3
		l-8.4,9.9l-1.5-1.5h-1.3l-1.5,2.8l-2.8,4.3h-1.5l-1.3-1.5l-1.5-2.8l-1.3,1.5l-4.3-1.5l-1.3,7.1v2.8v2.8l-3-1.3l-2.8-4.3l-2.8-2.8
		h-1.3v1.3l2.8,4.3v2.8l2.8,8.4l11.3,5.8l4.3-4.3l2.8,7.1l7.1-1.5l1.3-2.8l4.3-1.5l2.8-1.3h7.1l-1.5,8.4l7.1,21.2l4.1,1.5l5.8-2.8
		l5.6-2.8h2.8l4.3,2.8l2.8,1.3l4.1,8.6l8.6,4.1l1.3,4.3l-5.6,8.4l-1.5,2.8l-4.1,1.5h-1.5l-4.1,11.3v8.4v1.5l-1.5,1.3l1.5,5.8v1.3
		l2.8,2.8h1.3l1.5,4.3l1.3,4.3l7.1,4.1h1.5l2.8-1.3h1.3l1.5,2.8l8.4,5.6l12.8,5.6l11.3,4.3l22.7,1.3h7.1l2.8,1.5l6.9,2.8l3,4.1
		l1.3,4.3l9.9,7.1l7.1,7.1h8.4v1.3l-1.5,1.5l-1.3,1.3l-1.5,2.8l-1.3,5.6l1.3,7.1v9.9l7.1,5.6l8.4,2.8l12.8,7.1l9.9,4.3l7.1,2.8
		l6.9,1.3l2.8,1.5l1.5-5.6l4.3-9.9v-1.5v-1.3l6.9-9.9l1.5-2.8L101,524l5.6-4.1h1.3l2.8,2.8l-2.8-4.3l9.9-9.9l15.6-18.4l5.6-6.9
		l4.3-1.5l1.3-1.3h-1.3h-1.5v-1.5l2.8-1.3h1.5l-1.5,1.3h1.5l1.3,1.5h4.3v-1.5H151l-1.5-1.3v1.3l-4.3-2.8l1.5-1.5l1.3,1.5v-1.5h1.5
		l1.5-1.3h1.3l8.4,1.3l22.7-1.3l4.3-1.5l4.1-1.3l7.1-1.5l5.6-4.1l8.6-2.8l18.4-1.5h11.3h1.3l7.1,1.5v4.1l-1.3,2.8l-8.6,14.3
		L227.2,503l-1.5,1.5l-4.1,2.8h-2.8h-1.5h-2.8h-1.3h-1.5l-2.8-1.5l-1.5,1.5L199,503l-5.6,1.5h-2.8H189l-2.8,4.1l-4.1,1.5l-11.4,2.8
		h-2.8l-5.6-1.3l-4.3-4.3v5.6v2.8v1.5v1.3h-1.3h-2.8l-1.5-1.3l-1.3-1.5h-1.5v1.5L148,519l-4.1-1.3l-1.5-1.5l1.5,8.4l2.8,4.3l2.8,5.6
		l5.6,4.3l5.6,1.3l7.1,1.5l5.6-1.5l7.1-1.3l12.8-2.8l5.6-2.8l11.3-5.6l5.8-4.3l4.1-5.6l7.1-9.9l28.3-42.4l4.1-4.3l5.8-5.6l12.8-7.1
		l9.8-4.3l28.3-12.6l9.9-5.8l7.1-5.6l6.9-5.6l5.8-9.9l2.8-8.4l2.8-5.6l1.3-2.8h-15.6l-16.9,4.1l-12.8,7.1l-17.1,9.9h-11.3
		l-16.9-11.3l-5.8-3l-39.6-5.6h-4.1l-5.8-2.8l-4.1-4.1l-11.4,2.8l-12.8,2.8l-21.2,8.4l-9.9-2.8l-14.1-8.4l-2.8-15.6l-5.6-17.1
		l-2.8-1.3l-7.1,6.9l-7.1-1.3l-4.1-2.8l-2.8,2.8l-5.8-1.5l-2.8,2.8l-11.3,4.3H77h-6.9l-9.9,1.3l-5.6-1.3H36.4l-7.1-1.5L15,357.8
		l-21.2-18.4v-1.3l-28.3,2.8l-8.4-4.3l-2.8,9.9H-50l-5.6,5.6l-9.9-5.6h-5.6l-1.3-4.3l-1.5-2.8v-9.9l-5.6,1.5l-1.5,2.8l-1.3-1.3
		l-1.5-3l-1.3-2.8l4.1-1.3l-2.8-7.1l-4.1-1.3L-98.1,315.4L-98.1,315.4z M152.3,473.8v4.3h1.5L152.3,473.8z M148,480.9h-1.3v1.3
		L148,480.9z	">
<title  id="title4062">Montsià</title>
	</path>
	<path id="moianes" inkscape:connector-curvature="0" class="st0" d="M1227.1-717.4h-8.5l-11.3,1.4l-5.3-4.1l-3.2-0.1l-5.7-5.7
		l-9.9-2.8l-1.4,4.2l2.8,9.9l-1.4,11.3l-8.5,1.4l7.1,2.8l1.4,4.2l-1.4,2.8l-12.7,14.1l-11.3,5.7l-1.4,9.9l1.4,2.8l18.4,4.2l5.7,11.3
		l5.7-1.4l1.4,2.8h2.8l4.2,7.1l2.8,5.7l-5.7,4.2h-7.1l-28.3,9.9l-9.9,4.2l-14.1,4.2l-14.1,2.8l-15.6,4.2h7.1v2.8h2.8v9.9l-1.4,1.4
		l2.8,1.4l2.8,7.1l4.2,5.7h5.7l17-4.2l12.7-4.2l7.1,4.2l5.7,4.2l4.2,2.8v12.7l7.1-1.4l1.4,5.7l4.5,17l6.8-7.1l2.8-1.4l7.1,2.8
		l5.9,1.6l8.2-0.2h5.7l5.7,1.4l4.2,2.8l7.1-1.4l1.4-4.2l8.5-4.2l9.9,5.7l5.7-2.8l5.7,1.4l18.4,1.4l14.1-4.2l1.4,1.4l2.8,1.4l1.4,5.7
		l1.4,2.8l8.5-2.8l2.8-1.4l1.4,2.8v2.8l17-5.7l1.4,4.2l1.4-2.8l-1.4-11.3l2.8-5.7l-3.9-2.6l-2.8-3l-3.2,2.8l-4.2-1.4l-6.8,2.9
		l-5.9-1.5h-9.9l-6.9-12.6l4-7.2v-7.1l0.3-16.8l-2.8-7.1v-4.3l-0.3-5.7l-5.7-4.2l2.8-2.8l5.7-9.9l7.1-24l-4.2-2.8l-1.4-7.1
		l-1.4-14.1l-5.7,8.5l-14.1-4.2l-2.8,2.8h-5.7l-4.2-5.7l-4.2-1.4l-4.2-8.5l1.7-7l-1.7-2.9h-2.8l-1.4-4.2l6-1.3l5.3-1.5l1.4-11.3h2.8
		l-4.2-8.5l-2.5-4.2l-3.1,2.8l-14.1,5.7h-11.3l-2.8-4.2l-6.8,1.5L1227.1-717.4z	">
<title  id="title4825">Moianès</title>
	</path>
	<g id="g8071" transform="matrix(3.0002076,0,0,3.0002076,337.91199,-1140.5266)">
		<g id="g5225">
			<text transform="matrix(0.3333 0 0 0.3333 273.2412 185.6941)" class="st1 st2">Moianès</text>
			<g id="g5006">
				<text transform="matrix(0.3333 0 0 0.3333 -4.7587 135.6936)" class="st1 st2">Noguera</text>
				<g id="g4901">
					<text transform="matrix(0.3333 0 0 0.3333 6.2411 33.6942)" class="st1 st2">Pallars</text>
					<text transform="matrix(0.3333 0 0 0.3333 6.2411 48.6938)" class="st1 st2"> Jussà</text>
					<g id="g4800">
						<text transform="matrix(0.3333 0 0 0.3333 -4.5162 -119.8204)" class="st1 st2">Aran</text>
						<text transform="matrix(0.3333 0 0 0.3333 -21.7589 -55.3061)" class="st1 st2">    Alta</text>
						<text transform="matrix(0.3333 0 0 0.3333 -21.7589 -40.3059)" class="st1 st2">Ribagorça</text>
						<g id="g4705">
							<text transform="matrix(0.3333 0 0 0.3333 68.2411 -76.306)" class="st1 st2">Pallars</text>
							<text transform="matrix(0.3333 0 0 0.3333 68.2411 -61.3057)" class="st1 st2">Sobirà</text>
							<g id="g4614">
								<text transform="matrix(0.3333 0 0 0.3333 286.2409 302.6938)" class="st1 st2">Barcelonès</text>
								<text transform="matrix(0.3333 0 0 0.3333 246.2411 314.6939)" class="st1 st2">   Baix</text>
								<text transform="matrix(0.3333 0 0 0.3333 246.2411 329.6938)" class="st1 st2">Llobregat</text>
								<text transform="matrix(0.3333 0 0 0.3333 204.2411 344.6938)" class="st1 st2">Garraf</text>
								<text transform="matrix(0.3333 0 0 0.3333 136.2413 338.6939)" class="st1 st2">   Baix</text>
								<text transform="matrix(0.3333 0 0 0.3333 136.2413 353.6938)" class="st1 st2">Penedès</text>
								<text transform="matrix(0.3333 0 0 0.3333 80.2412 369.694)" class="st1 st2">Tarragonès</text>
								<text transform="matrix(0.3333 0 0 0.3333 17.241 378.694)" class="st1 st2"> Baix</text>
								<text transform="matrix(0.3333 0 0 0.3333 17.241 393.694)" class="st1 st2">Camp</text>
								<text transform="matrix(0.3333 0 0 0.3333 -90.759 465.6939)" class="st1 st2">Baix</text>
								<text transform="matrix(0.3333 0 0 0.3333 -90.759 480.6938)" class="st1 st2">Ebre</text>
								<text transform="matrix(0.3333 0 0 0.3333 -118.759 527.6938)" class="st1 st2">Montsià</text>
								<text transform="matrix(0.3333 0 0 0.3333 -127.759 389.6939)" class="st1 st2">Terra</text>
								<text transform="matrix(0.3333 0 0 0.3333 -127.759 404.6939)" class="st1 st2"> Alta</text>
								<text transform="matrix(0.3333 0 0 0.3333 -61.759 404.6939)" class="st1 st2">Ribera</text>
								<text transform="matrix(0.3333 0 0 0.3333 -61.759 419.6938)" class="st1 st2">d&apos;Ebre</text>
								<text transform="matrix(0.3333 0 0 0.3333 -76.759 241.6938)" class="st1 st2">Segrià</text>
								<text transform="matrix(0.3333 0 0 0.3333 185.2411 298.6941)" class="st1 st2">    Alt</text>
								<text transform="matrix(0.3333 0 0 0.3333 185.2411 313.694)" class="st1 st2">Penedès</text>
								<text transform="matrix(0.3333 0 0 0.3333 95.2412 315.6938)" class="st1 st2">  Alt</text>
								<text transform="matrix(0.3333 0 0 0.3333 95.2412 330.6938)" class="st1 st2">Camp</text>
								<text transform="matrix(0.3333 0 0 0.3333 57.2412 284.6941)" class="st1 st2">Conca de</text>
								<text transform="matrix(0.3333 0 0 0.3333 57.2412 299.694)" class="st1 st2"> Barberà</text>
								<text transform="matrix(0.3333 0 0 0.3333 -28.759 351.694)" class="st1 st2">Priorat</text>
								<text transform="matrix(0.3333 0 0 0.3333 -27.7588 283.6938)" class="st1 st2">Garrigues</text>
								<text transform="matrix(0.3333 0 0 0.3333 -12.7588 207.6938)" class="st1 st2">   Pla</text>
								<text transform="matrix(0.3333 0 0 0.3333 -12.7588 222.6938)" class="st1 st2">d&apos;Urgell</text>
								<text transform="matrix(0.3333 0 0 0.3333 41.241 225.6939)" class="st1 st2">Urgell</text>
								<g id="g4570">
									<text transform="matrix(0.3333 0 0 0.3333 408.2409 159.6939)" class="st1 st2">Selva</text>
									<text transform="matrix(0.3333 0 0 0.3333 370.241 239.6939)" class="st1 st2">Maresme</text>
									<text transform="matrix(0.3333 0 0 0.3333 137.2412 98.6942)" class="st1 st2">Solsonès</text>
									<g id="g4543">
										<text transform="matrix(0.3333 0 0 0.3333 476.2411 4.6943)" class="st1 st2">     Alt</text>
										<text transform="matrix(0.3333 0 0 0.3333 476.2411 19.6939)" class="st1 st2">Empordà</text>
										<text transform="matrix(0.3333 0 0 0.3333 507.2409 117.6942)" class="st1 st2">   Baix</text>
										<text transform="matrix(0.3333 0 0 0.3333 507.2409 132.6938)" class="st1 st2">Empordà</text>
										<text transform="matrix(0.3333 0 0 0.3333 443.2411 64.694)" class="st1 st2"> Pla de</text>
										<text transform="matrix(0.3333 0 0 0.3333 443.2411 79.6943)" class="st1 st2">l&apos;Estany</text>
										<text transform="matrix(0.3333 0 0 0.3333 448.2411 118.6942)" class="st1 st2">Gironès</text>
										<g id="g4528">
											<text transform="matrix(0.3333 0 0 0.3333 120.2411 8.694)" class="st1 st2">  Alt</text>
											<text transform="matrix(0.3333 0 0 0.3333 120.2411 23.6942)" class="st1 st2">Urgell</text>
											<text transform="matrix(0.3333 0 0 0.3333 207.2412 -10.306)" class="st1 st2">Cerdanya</text>
											<text transform="matrix(0.3333 0 0 0.3333 311.2411 18.6939)" class="st1 st2">Ripollès</text>
											<text transform="matrix(0.3333 0 0 0.3333 382.2411 49.6937)" class="st1 st2">Garrotxa</text>
											<text transform="matrix(0.3333 0 0 0.3333 217.2412 71.6942)" class="st1 st2">Berguedà</text>
											<text transform="matrix(0.3333 0 0 0.3333 318.241 116.6936)" class="st1 st2">Osona</text>
										</g>
									</g>
									<text transform="matrix(0.3333 0 0 0.3333 341.241 207.6938)" class="st1 st2"> Vallès</text>
									<text transform="matrix(0.3333 0 0 0.3333 341.241 222.6938)" class="st1 st2">Oriental</text>
									<text transform="matrix(0.3333 0 0 0.3333 258.2409 240.6938)" class="st1 st2">   Vallès</text>
									<text transform="matrix(0.3333 0 0 0.3333 258.2409 255.6938)" class="st1 st2">Occidental</text>
									<text transform="matrix(0.3333 0 0 0.3333 207.2412 184.6938)" class="st1 st2">Bages</text>
									<text transform="matrix(0.3333 0 0 0.3333 86.2411 188.6939)" class="st1 st2">Segarra</text>
								</g>
							</g>
						</g>
					</g>
				</g>
			</g>
		</g>
		<text transform="matrix(0.3333 0 0 0.3333 159.4079 241.9949)" class="st1 st2">Anoia</text>
	</g>
</g>
</svg>
