<svg id="Capa_2" data-name="Capa 2" xmlns="http://www.w3.org/2000/svg" viewBox="0 0 430 430"><defs><style>.cls-1{fill:none;stroke:#000;stroke-width:10px;}</style></defs><title>Logo-CatalunyaVirtual-N</title><path d="M441.7,438.46h-3.81a5.86,5.86,0,0,1-4.27-1.47,5.66,5.66,0,0,1-1.5-4.24V421.66a5.66,5.66,0,0,1,1.5-4.24,5.86,5.86,0,0,1,4.27-1.47h3.81a5.83,5.83,0,0,1,4.25,1.49,5.63,5.63,0,0,1,1.52,4.22v1.64a0.68,0.68,0,0,1-.77.77h-2.94a0.67,0.67,0,0,1-.74-0.77v-1.43a1.74,1.74,0,0,0-2.06-2.07h-2.38a2.15,2.15,0,0,0-1.56.47,2.2,2.2,0,0,0-.47,1.59v10.67a2.2,2.2,0,0,0,.47,1.59,2.15,2.15,0,0,0,1.56.47H441a1.74,1.74,0,0,0,2.06-2.07v-1.43a0.67,0.67,0,0,1,.74-0.77h2.94a0.68,0.68,0,0,1,.77.77v1.64A5.63,5.63,0,0,1,446,437,5.83,5.83,0,0,1,441.7,438.46Z" transform="translate(-185 -85)"/><path d="M457.21,438.46h-0.84A5.86,5.86,0,0,1,452.1,437a5.65,5.65,0,0,1-1.5-4.24v-6.44a5.65,5.65,0,0,1,1.5-4.24,5.85,5.85,0,0,1,4.27-1.47h8.08a0.67,0.67,0,0,1,.77.73v16.38a0.67,0.67,0,0,1-.77.74h-2.94a0.65,0.65,0,0,1-.74-0.74v-1.15h-0.14a2.65,2.65,0,0,1-1.37,1.42A4.69,4.69,0,0,1,457.21,438.46Zm3.57-6.51v-7.11a0.36,0.36,0,0,0-.42-0.38h-3.29a2.13,2.13,0,0,0-1.58.47,2.26,2.26,0,0,0-.46,1.59v6a2.26,2.26,0,0,0,.46,1.59,2.14,2.14,0,0,0,1.58.47h1.29Q460.78,434.61,460.78,432Z" transform="translate(-185 -85)"/><path d="M469.46,424.46h-1.4a0.89,0.89,0,0,1-.58-0.14,0.75,0.75,0,0,1-.16-0.56v-2.42a0.65,0.65,0,0,1,.74-0.73h1.4a0.34,0.34,0,0,0,.39-0.39V416.9a0.67,0.67,0,0,1,.77-0.74h2.94a0.65,0.65,0,0,1,.73.74v3.32a0.36,0.36,0,0,0,.42.39h2.73a0.65,0.65,0,0,1,.74.73v2.42a0.75,0.75,0,0,1-.16.54,0.81,0.81,0,0,1-.58.16h-2.73a0.36,0.36,0,0,0-.42.38v7.74a2.09,2.09,0,0,0,.49,1.56,2.27,2.27,0,0,0,1.61.47h1.4a0.65,0.65,0,0,1,.74.73v2.42a0.76,0.76,0,0,1-.16.54,0.82,0.82,0,0,1-.58.16h-2.13a5.92,5.92,0,0,1-4.29-1.47,5.57,5.57,0,0,1-1.52-4.2v-7.95A0.34,0.34,0,0,0,469.46,424.46Z" transform="translate(-185 -85)"/><path d="M487.69,438.46h-0.84a5.86,5.86,0,0,1-4.27-1.47,5.65,5.65,0,0,1-1.5-4.24v-6.44a5.65,5.65,0,0,1,1.5-4.24,5.85,5.85,0,0,1,4.27-1.47h8.08a0.67,0.67,0,0,1,.77.73v16.38a0.67,0.67,0,0,1-.77.74H492a0.65,0.65,0,0,1-.74-0.74v-1.15h-0.14a2.65,2.65,0,0,1-1.37,1.42A4.69,4.69,0,0,1,487.69,438.46Zm3.57-6.51v-7.11a0.36,0.36,0,0,0-.42-0.38h-3.29a2.13,2.13,0,0,0-1.58.47,2.26,2.26,0,0,0-.46,1.59v6a2.26,2.26,0,0,0,.46,1.59,2.14,2.14,0,0,0,1.58.47h1.29Q491.26,434.61,491.26,432Z" transform="translate(-185 -85)"/><path d="M503.44,438.46h-3a0.65,0.65,0,0,1-.74-0.74V414.59a0.65,0.65,0,0,1,.74-0.74h3a0.65,0.65,0,0,1,.74.74v23.13A0.65,0.65,0,0,1,503.44,438.46Z" transform="translate(-185 -85)"/><path d="M514.64,438.46h-1.16a5.33,5.33,0,0,1-4.08-1.47,6,6,0,0,1-1.38-4.24V421.35a0.65,0.65,0,0,1,.74-0.73h3a0.65,0.65,0,0,1,.74.73v11.2a2.2,2.2,0,0,0,.47,1.59,2.14,2.14,0,0,0,1.56.47h1.29q2.42,0,2.42-2.66V421.35a0.65,0.65,0,0,1,.74-0.73h2.94a0.66,0.66,0,0,1,.77.73v16.38a0.67,0.67,0,0,1-.77.74h-2.94a0.65,0.65,0,0,1-.74-0.74v-1.15h-0.14a2.65,2.65,0,0,1-1.37,1.42A4.69,4.69,0,0,1,514.64,438.46Z" transform="translate(-185 -85)"/><path d="M530.22,438.46h-3a0.65,0.65,0,0,1-.74-0.74V421.35a0.65,0.65,0,0,1,.74-0.73h3a0.65,0.65,0,0,1,.74.73v1.16h0.14q0.77-1.89,3.43-1.89h1.12q5.49,0,5.5,5.71v11.41a0.67,0.67,0,0,1-.77.74h-2.94a0.65,0.65,0,0,1-.73-0.74v-11.2a1.74,1.74,0,0,0-2.07-2.07h-1.26q-2.42,0-2.42,2.66v10.6A0.65,0.65,0,0,1,530.22,438.46Z" transform="translate(-185 -85)"/><path d="M547.72,444.38h-2.24a0.65,0.65,0,0,1-.7-0.77v-2.34a0.65,0.65,0,0,1,.7-0.77h0.74a5.18,5.18,0,0,0,3-.61,4.17,4.17,0,0,0,1.21-2.36h-1.86a0.87,0.87,0,0,1-.87-0.73l-4.09-15.44c-0.14-.49,0-0.73.52-0.73h3.12a0.84,0.84,0,0,1,.88.73l3,12.92h0.14l3-12.92a0.81,0.81,0,0,1,.88-0.73H558q0.87,0,.7.77l-4.27,17.08a9.07,9.07,0,0,1-2.38,4.41A6.15,6.15,0,0,1,547.72,444.38Z" transform="translate(-185 -85)"/><path d="M567.56,438.46h-0.84a5.86,5.86,0,0,1-4.27-1.47,5.65,5.65,0,0,1-1.5-4.24v-6.44a5.65,5.65,0,0,1,1.5-4.24,5.85,5.85,0,0,1,4.27-1.47h8.08a0.67,0.67,0,0,1,.77.73v16.38a0.67,0.67,0,0,1-.77.74h-2.94a0.65,0.65,0,0,1-.74-0.74v-1.15H571a2.65,2.65,0,0,1-1.37,1.42A4.69,4.69,0,0,1,567.56,438.46Zm3.57-6.51v-7.11a0.36,0.36,0,0,0-.42-0.38h-3.29a2.13,2.13,0,0,0-1.58.47,2.26,2.26,0,0,0-.46,1.59v6a2.26,2.26,0,0,0,.46,1.59,2.14,2.14,0,0,0,1.58.47h1.29Q571.13,434.61,571.13,432Z" transform="translate(-185 -85)"/><path d="M492.42,480.46h-4.58a0.81,0.81,0,0,1-.87-0.74l-5.43-21q-0.24-.8.7-0.8h3.29a0.79,0.79,0,0,1,.84.74L490,475.91h0.14l3.67-17.22a0.79,0.79,0,0,1,.84-0.74H498a0.6,0.6,0,0,1,.7.8l-5.42,21A0.82,0.82,0,0,1,492.42,480.46Z" transform="translate(-185 -85)"/><path d="M501.31,459.6v-3a0.62,0.62,0,0,1,.7-0.7h3a0.6,0.6,0,0,1,.7.67v3.08a0.62,0.62,0,0,1-.7.7h-3A0.62,0.62,0,0,1,501.31,459.6Zm0,20.13V463.35a0.63,0.63,0,0,1,.7-0.73h3a0.65,0.65,0,0,1,.74.73v16.38a0.81,0.81,0,0,1-.16.6,0.82,0.82,0,0,1-.54.14h-3A0.65,0.65,0,0,1,501.31,479.73Z" transform="translate(-185 -85)"/><path d="M513.49,480.46h-3a0.65,0.65,0,0,1-.74-0.74V463.35a0.65,0.65,0,0,1,.74-0.73h3a0.65,0.65,0,0,1,.74.73v1.19h0.14a2.73,2.73,0,0,1,1.37-1.44,4.56,4.56,0,0,1,2.07-.49h1.26a0.63,0.63,0,0,1,.7.73v2.42a0.81,0.81,0,0,1-.16.58,0.67,0.67,0,0,1-.54.12h-2.42q-2.42,0-2.42,2.73v10.53A0.65,0.65,0,0,1,513.49,480.46Z" transform="translate(-185 -85)"/><path d="M522.38,466.46H521a0.89,0.89,0,0,1-.58-0.14,0.75,0.75,0,0,1-.16-0.56v-2.42a0.65,0.65,0,0,1,.74-0.73h1.4a0.34,0.34,0,0,0,.39-0.39V458.9a0.67,0.67,0,0,1,.77-0.74h2.94a0.65,0.65,0,0,1,.73.74v3.32a0.36,0.36,0,0,0,.42.39h2.73a0.65,0.65,0,0,1,.74.73v2.42a0.75,0.75,0,0,1-.16.54,0.81,0.81,0,0,1-.58.16h-2.73a0.36,0.36,0,0,0-.42.38v7.74a2.09,2.09,0,0,0,.49,1.56,2.27,2.27,0,0,0,1.61.47h1.4a0.65,0.65,0,0,1,.74.73v2.42a0.76,0.76,0,0,1-.16.54,0.82,0.82,0,0,1-.58.16h-2.13a5.92,5.92,0,0,1-4.29-1.47,5.57,5.57,0,0,1-1.52-4.2v-7.95A0.34,0.34,0,0,0,522.38,466.46Z" transform="translate(-185 -85)"/><path d="M540.79,480.46h-1.16a5.33,5.33,0,0,1-4.08-1.47,6,6,0,0,1-1.38-4.24V463.35a0.65,0.65,0,0,1,.74-0.73h3a0.65,0.65,0,0,1,.74.73v11.2a2.2,2.2,0,0,0,.47,1.59,2.14,2.14,0,0,0,1.56.47h1.29q2.42,0,2.42-2.66V463.35a0.65,0.65,0,0,1,.74-0.73H548a0.66,0.66,0,0,1,.77.73v16.38a0.67,0.67,0,0,1-.77.74h-2.94a0.65,0.65,0,0,1-.74-0.74v-1.15h-0.14a2.65,2.65,0,0,1-1.37,1.42A4.69,4.69,0,0,1,540.79,480.46Z" transform="translate(-185 -85)"/><path d="M558.92,480.46h-0.84a5.86,5.86,0,0,1-4.27-1.47,5.65,5.65,0,0,1-1.5-4.24v-6.44a5.65,5.65,0,0,1,1.5-4.24,5.85,5.85,0,0,1,4.27-1.47h8.08a0.67,0.67,0,0,1,.77.73v16.38a0.67,0.67,0,0,1-.77.74h-2.94a0.65,0.65,0,0,1-.74-0.74v-1.15h-0.14A2.65,2.65,0,0,1,561,480,4.69,4.69,0,0,1,558.92,480.46Zm3.57-6.51v-7.11a0.36,0.36,0,0,0-.42-0.38h-3.29a2.13,2.13,0,0,0-1.58.47,2.26,2.26,0,0,0-.46,1.59v6a2.26,2.26,0,0,0,.46,1.59,2.14,2.14,0,0,0,1.58.47h1.29Q562.49,476.61,562.49,474Z" transform="translate(-185 -85)"/><path d="M574.67,480.46h-3a0.65,0.65,0,0,1-.74-0.74V456.59a0.65,0.65,0,0,1,.74-0.74h3a0.65,0.65,0,0,1,.74.74v23.13A0.65,0.65,0,0,1,574.67,480.46Z" transform="translate(-185 -85)"/><rect class="cls-1" x="5" y="5" width="420" height="420" rx="20" ry="20"/><rect x="97.5" y="77.5" width="15" height="15" rx="2" ry="2"/><rect x="97.5" y="57.5" width="15" height="15" rx="2" ry="2"/><rect x="97.5" y="37.5" width="15" height="15" rx="2" ry="2"/><rect x="97.5" y="137.5" width="15" height="15" rx="2" ry="2"/><rect x="97.5" y="117.5" width="15" height="15" rx="2" ry="2"/><rect x="97.5" y="97.5" width="15" height="15" rx="2" ry="2"/><rect x="97.5" y="197.5" width="15" height="15" rx="2" ry="2"/><rect x="97.5" y="177.5" width="15" height="15" rx="2" ry="2"/><rect x="97.5" y="157.5" width="15" height="15" rx="2" ry="2"/><rect x="97.5" y="257.5" width="15" height="15" rx="2" ry="2"/><rect x="97.5" y="237.5" width="15" height="15" rx="2" ry="2"/><rect x="97.5" y="217.5" width="15" height="15" rx="2" ry="2"/><rect x="97.5" y="317.5" width="15" height="15" rx="2" ry="2"/><rect x="97.5" y="297.5" width="15" height="15" rx="2" ry="2"/><rect x="97.5" y="277.5" width="15" height="15" rx="2" ry="2"/><rect x="97.5" y="357.5" width="15" height="15" rx="2" ry="2"/><rect x="97.5" y="337.5" width="15" height="15" rx="2" ry="2"/><rect x="117.5" y="77.5" width="15" height="15" rx="2" ry="2"/><rect x="117.5" y="57.5" width="15" height="15" rx="2" ry="2"/><rect x="117.5" y="37.5" width="15" height="15" rx="2" ry="2"/><rect x="117.5" y="137.5" width="15" height="15" rx="2" ry="2"/><rect x="117.5" y="117.5" width="15" height="15" rx="2" ry="2"/><rect x="117.5" y="97.5" width="15" height="15" rx="2" ry="2"/><rect x="117.5" y="197.5" width="15" height="15" rx="2" ry="2"/><rect x="117.5" y="177.5" width="15" height="15" rx="2" ry="2"/><rect x="117.5" y="157.5" width="15" height="15" rx="2" ry="2"/><rect x="117.5" y="257.5" width="15" height="15" rx="2" ry="2"/><rect x="117.5" y="237.5" width="15" height="15" rx="2" ry="2"/><rect x="117.5" y="217.5" width="15" height="15" rx="2" ry="2"/><rect x="117.5" y="317.5" width="15" height="15" rx="2" ry="2"/><rect x="117.5" y="297.5" width="15" height="15" rx="2" ry="2"/><rect x="117.5" y="277.5" width="15" height="15" rx="2" ry="2"/><rect x="137.5" y="97.5" width="15" height="15" rx="2" ry="2"/><rect x="137.5" y="77.5" width="15" height="15" rx="2" ry="2"/><rect x="137.5" y="57.5" width="15" height="15" rx="2" ry="2"/><rect x="137.5" y="157.5" width="15" height="15" rx="2" ry="2"/><rect x="137.5" y="137.5" width="15" height="15" rx="2" ry="2"/><rect x="137.5" y="117.5" width="15" height="15" rx="2" ry="2"/><rect x="137.5" y="217.5" width="15" height="15" rx="2" ry="2"/><rect x="137.5" y="197.5" width="15" height="15" rx="2" ry="2"/><rect x="137.5" y="177.5" width="15" height="15" rx="2" ry="2"/><rect x="137.5" y="277.5" width="15" height="15" rx="2" ry="2"/><rect x="137.5" y="257.5" width="15" height="15" rx="2" ry="2"/><rect x="137.5" y="237.5" width="15" height="15" rx="2" ry="2"/><rect x="137.5" y="297.5" width="15" height="15" rx="2" ry="2"/><rect x="157.5" y="97.5" width="15" height="15" rx="2" ry="2"/><rect x="157.5" y="77.5" width="15" height="15" rx="2" ry="2"/><rect x="157.5" y="57.5" width="15" height="15" rx="2" ry="2"/><rect x="157.5" y="157.5" width="15" height="15" rx="2" ry="2"/><rect x="157.5" y="137.5" width="15" height="15" rx="2" ry="2"/><rect x="157.5" y="117.5" width="15" height="15" rx="2" ry="2"/><rect x="157.5" y="217.5" width="15" height="15" rx="2" ry="2"/><rect x="157.5" y="197.5" width="15" height="15" rx="2" ry="2"/><rect x="157.5" y="177.5" width="15" height="15" rx="2" ry="2"/><rect x="157.5" y="277.5" width="15" height="15" rx="2" ry="2"/><rect x="157.5" y="257.5" width="15" height="15" rx="2" ry="2"/><rect x="157.5" y="237.5" width="15" height="15" rx="2" ry="2"/><rect x="157.5" y="297.5" width="15" height="15" rx="2" ry="2"/><rect x="177.5" y="137.5" width="15" height="15" rx="2" ry="2"/><rect x="177.5" y="117.5" width="15" height="15" rx="2" ry="2"/><rect x="177.5" y="97.5" width="15" height="15" rx="2" ry="2"/><rect x="177.5" y="197.5" width="15" height="15" rx="2" ry="2"/><rect x="177.5" y="177.5" width="15" height="15" rx="2" ry="2"/><rect x="177.5" y="157.5" width="15" height="15" rx="2" ry="2"/><rect x="177.5" y="257.5" width="15" height="15" rx="2" ry="2"/><rect x="177.5" y="237.5" width="15" height="15" rx="2" ry="2"/><rect x="177.5" y="217.5" width="15" height="15" rx="2" ry="2"/><rect x="177.5" y="277.5" width="15" height="15" rx="2" ry="2"/><rect x="197.5" y="137.5" width="15" height="15" rx="2" ry="2"/><rect x="197.5" y="117.5" width="15" height="15" rx="2" ry="2"/><rect x="197.5" y="97.5" width="15" height="15" rx="2" ry="2"/><rect x="197.5" y="197.5" width="15" height="15" rx="2" ry="2"/><rect x="197.5" y="177.5" width="15" height="15" rx="2" ry="2"/><rect x="197.5" y="157.5" width="15" height="15" rx="2" ry="2"/><rect x="197.5" y="257.5" width="15" height="15" rx="2" ry="2"/><rect x="197.5" y="237.5" width="15" height="15" rx="2" ry="2"/><rect x="197.5" y="217.5" width="15" height="15" rx="2" ry="2"/><rect x="197.5" y="277.5" width="15" height="15" rx="2" ry="2"/><rect x="217.5" y="137.5" width="15" height="15" rx="2" ry="2"/><rect x="217.5" y="117.5" width="15" height="15" rx="2" ry="2"/><rect x="217.5" y="97.5" width="15" height="15" rx="2" ry="2"/><rect x="217.5" y="197.5" width="15" height="15" rx="2" ry="2"/><rect x="217.5" y="177.5" width="15" height="15" rx="2" ry="2"/><rect x="217.5" y="157.5" width="15" height="15" rx="2" ry="2"/><rect x="217.5" y="257.5" width="15" height="15" rx="2" ry="2"/><rect x="217.5" y="237.5" width="15" height="15" rx="2" ry="2"/><rect x="217.5" y="217.5" width="15" height="15" rx="2" ry="2"/><rect x="237.5" y="157.5" width="15" height="15" rx="2" ry="2"/><rect x="237.5" y="137.5" width="15" height="15" rx="2" ry="2"/><rect x="237.5" y="117.5" width="15" height="15" rx="2" ry="2"/><rect x="237.5" y="217.5" width="15" height="15" rx="2" ry="2"/><rect x="237.5" y="197.5" width="15" height="15" rx="2" ry="2"/><rect x="237.5" y="177.5" width="15" height="15" rx="2" ry="2"/><rect x="237.5" y="257.5" width="15" height="15" rx="2" ry="2"/><rect x="237.5" y="237.5" width="15" height="15" rx="2" ry="2"/><rect x="257.5" y="137.5" width="15" height="15" rx="2" ry="2"/><rect x="257.5" y="117.5" width="15" height="15" rx="2" ry="2"/><rect x="257.5" y="97.5" width="15" height="15" rx="2" ry="2"/><rect x="257.5" y="197.5" width="15" height="15" rx="2" ry="2"/><rect x="257.5" y="177.5" width="15" height="15" rx="2" ry="2"/><rect x="257.5" y="157.5" width="15" height="15" rx="2" ry="2"/><rect x="257.5" y="257.5" width="15" height="15" rx="2" ry="2"/><rect x="257.5" y="237.5" width="15" height="15" rx="2" ry="2"/><rect x="257.5" y="217.5" width="15" height="15" rx="2" ry="2"/><rect x="277.5" y="137.5" width="15" height="15" rx="2" ry="2"/><rect x="277.5" y="117.5" width="15" height="15" rx="2" ry="2"/><rect x="277.5" y="97.5" width="15" height="15" rx="2" ry="2"/><rect x="277.5" y="197.5" width="15" height="15" rx="2" ry="2"/><rect x="277.5" y="177.5" width="15" height="15" rx="2" ry="2"/><rect x="277.5" y="157.5" width="15" height="15" rx="2" ry="2"/><rect x="277.5" y="237.5" width="15" height="15" rx="2" ry="2"/><rect x="277.5" y="217.5" width="15" height="15" rx="2" ry="2"/><rect x="297.5" y="157.5" width="15" height="15" rx="2" ry="2"/><rect x="297.5" y="137.5" width="15" height="15" rx="2" ry="2"/><rect x="297.5" y="117.5" width="15" height="15" rx="2" ry="2"/><rect x="297.5" y="217.5" width="15" height="15" rx="2" ry="2"/><rect x="297.5" y="197.5" width="15" height="15" rx="2" ry="2"/><rect x="297.5" y="177.5" width="15" height="15" rx="2" ry="2"/><rect x="317.5" y="137.5" width="15" height="15" rx="2" ry="2"/><rect x="317.5" y="117.5" width="15" height="15" rx="2" ry="2"/><rect x="317.5" y="97.5" width="15" height="15" rx="2" ry="2"/><rect x="317.5" y="197.5" width="15" height="15" rx="2" ry="2"/><rect x="317.5" y="177.5" width="15" height="15" rx="2" ry="2"/><rect x="317.5" y="157.5" width="15" height="15" rx="2" ry="2"/><rect x="317.5" y="217.5" width="15" height="15" rx="2" ry="2"/><rect x="337.5" y="137.5" width="15" height="15" rx="2" ry="2"/><rect x="337.5" y="117.5" width="15" height="15" rx="2" ry="2"/><rect x="337.5" y="97.5" width="15" height="15" rx="2" ry="2"/><rect x="337.5" y="197.5" width="15" height="15" rx="2" ry="2"/><rect x="337.5" y="177.5" width="15" height="15" rx="2" ry="2"/><rect x="337.5" y="157.5" width="15" height="15" rx="2" ry="2"/><rect x="357.5" y="137.5" width="15" height="15" rx="2" ry="2"/><rect x="357.5" y="117.5" width="15" height="15" rx="2" ry="2"/><rect x="357.5" y="97.5" width="15" height="15" rx="2" ry="2"/><rect x="357.5" y="197.5" width="15" height="15" rx="2" ry="2"/><rect x="357.5" y="177.5" width="15" height="15" rx="2" ry="2"/><rect x="357.5" y="157.5" width="15" height="15" rx="2" ry="2"/><rect x="377.5" y="157.5" width="15" height="15" rx="2" ry="2"/><rect x="377.5" y="117.5" width="15" height="15" rx="2" ry="2"/><rect x="377.5" y="177.5" width="15" height="15" rx="2" ry="2"/><rect x="77.5" y="197.5" width="15" height="15" rx="2" ry="2"/><rect x="77.5" y="177.5" width="15" height="15" rx="2" ry="2"/><rect x="77.5" y="157.5" width="15" height="15" rx="2" ry="2"/><rect x="77.5" y="257.5" width="15" height="15" rx="2" ry="2"/><rect x="77.5" y="237.5" width="15" height="15" rx="2" ry="2"/><rect x="77.5" y="217.5" width="15" height="15" rx="2" ry="2"/><rect x="77.5" y="317.5" width="15" height="15" rx="2" ry="2"/><rect x="77.5" y="297.5" width="15" height="15" rx="2" ry="2"/><rect x="77.5" y="277.5" width="15" height="15" rx="2" ry="2"/><rect x="77.5" y="377.5" width="15" height="15" rx="2" ry="2"/><rect x="77.5" y="357.5" width="15" height="15" rx="2" ry="2"/><rect x="77.5" y="337.5" width="15" height="15" rx="2" ry="2"/><rect x="57.5" y="237.5" width="15" height="15" rx="2" ry="2"/><rect x="57.5" y="217.5" width="15" height="15" rx="2" ry="2"/><rect x="57.5" y="197.5" width="15" height="15" rx="2" ry="2"/><rect x="57.5" y="297.5" width="15" height="15" rx="2" ry="2"/><rect x="57.5" y="277.5" width="15" height="15" rx="2" ry="2"/><rect x="57.5" y="257.5" width="15" height="15" rx="2" ry="2"/><rect x="57.5" y="357.5" width="15" height="15" rx="2" ry="2"/><rect x="57.5" y="337.5" width="15" height="15" rx="2" ry="2"/><rect x="57.5" y="317.5" width="15" height="15" rx="2" ry="2"/><rect x="57.5" y="377.5" width="15" height="15" rx="2" ry="2"/><rect x="37.5" y="297.5" width="15" height="15" rx="2" ry="2"/><rect x="37.5" y="357.5" width="15" height="15" rx="2" ry="2"/><rect x="37.5" y="337.5" width="15" height="15" rx="2" ry="2"/><rect x="37.5" y="317.5" width="15" height="15" rx="2" ry="2"/><rect x="37.5" y="217.5" width="15" height="15" rx="2" ry="2"/></svg>