<svg id="Capa_1" data-name="Capa 1" xmlns="http://www.w3.org/2000/svg" viewBox="0 0 552.69 366.98"><defs><style>.cls-1{fill:none;stroke:#8b0000;stroke-miterlimit:10;stroke-opacity:0.75;stroke-width:3px;}</style></defs><title>alt-emporda</title><path id="alt-emporda" class="cls-1" d="M579.44,125l-12.8,9.9-4.1,11.3-5.6,2.8-11.4-2.8-12.8-2.8-8.4-5.6-4.1,4.3-1.5,8.4-15.6-4.3-4.3,5.6-1.3,8.6-4.3,5.6-5.6-1.5-7.1,8.6-1.3-1.5-5.6,12.8h-3l-6.9,1.3-4.3,4.3-4.3,1.5-4.1-4.3-5.6-7.1-12.8-1.3-11.4,1.3-11.3,8.6-11.3,6.9h-7.1l-7.1,4.3V214l-4.1,1.5-8.6-2.8,4.3,6.9,1.5,7.1v2.8l2.8,7.1,5.6,2.8,1.3,9.9v7.1l-6.9,1.3-5.8-1.3-5.6-1.5H362l-4.3-2.8h-15.6l-5.6-2.8-9.9-4.3v-2.8l-8.4-1.3-14.3,4.1-1.3,5.6-2.8,5.8-5.8,8.4,9.9,9.9,5.6,4.1,9.9-4.1,1.5-2.8,8.4-1.5,15.6,9.9-1.3,2.8,2.8,2.8,2.8,1.5,6.9-3V293l-1.3,6.9,11.3-1.3,8.4,1.3,4.3,8.6,2.8,14.1-2.8,4.3v2.8l5.6,1.3v4.3l1.5,1.5,1.3-4.3V331h9.9l-8.4-6.9,4.3-1.5,14.1,1.5,2.8,5.6-2.8,5.6-1.5,5.6,3,2.8,8.4-1.3,2.8,5.6,4.3-5.6,1.3-8.4,1.5-3,12.8,4.3,15.4,7.1-1.3,12.8,7.1,9.8-2.8,5.8,2.8,8.4,2.8,8.4v1.5l1.3,2.8,15.6-2.8,4.3,2.8h11.3l4.3-2.8-1.5,1.3v9.9l-4.1,7.1,5.6,4.1,8.4-1.3,1.5-1.5,4.1-4.1,2.8-9.9,1.5-2.8,7.1,4.1,4.1,1.5-1.3,9.9h2.8l7.1,4.1,2.8,3v8.4l1.3,2.8,1.5,1.3-1.5,1.5-5.6,7.1,4.3,4.1V444l4.1,4.3v15.6l2.8,12.6h4.3l7.1-4.1,5.6-1.5,2.8,1.5,9.9,1.3,5.6,1.5h4.3l11.3-2.8,5.6-4.3,8.4-4.1v-9.9h1.5l1.5-4.3h4.1l2.8,4.3h2.8l1.5,4.1,1.3,1.5L633,461l8.4,5.8h1.5l4.1,9.8h4.3l1.5-2.8,6.9-2.8,8.6-1.3h1.3l7.1-2.8,2.8-2.8,2.8-3,4.3,8.6,5.6,1.3v12.7l12.8-4.1,4.1,8.4,18.4-8.4,5.8-1.5,2.8,1.5,2.8-1.5,1.3-1.5-1.3-1.3h-1.5l-1.3-2.8-1.5,1.3h-2.8l-2.8-1.3-5.6-4.3-1.5-1.3v1.3h-2.8l1.5,1.5-1.5,1.3h-6.9l1.3-5.6-1.3-4.3h-8.6l-1.3-5.6v-2.8l-1.5-1.3-2.8-8.6-2.8-26.8-1.5-26.8,1.5-8.6,4.3-11.3,4.1-11.3,7.1-9.9,2.8-5.6,8.4-7.1,4.3-2.8,7.1-1.5h2.8l2.8,3,2.8,1.3,1.3,1.5v1.3h-1.3v1.5H743v2.8h-2.8v1.3H743v1.5l1.5,1.3v1.5h5.6l2.8-1.5,1.5,4.3,4.1,1.5,4.3,1.3-1.3,1.5,5.6,2.8,2.8,2.8,1.3-2.8,2.8-2.8v-1.5h3l-1.5-2.8,1.5-1.3-1.5-4.3,1.5-2.8,5.6,4.1,1.3-2.8,2.8,1.5,2.8,5.6,5.8,4.3,4.1,1.3,1.5-1.3,1.3-4.3-1.3-1.3h-5.6l-1.5-1.5,1.5-1.5V341l1.3,1.5h4.3L805,341h5.8l2.8-1.3v-2.8l4.1-8.6-1.3-4.1-1.5-1.5-1.3-1.3-2.8-5.8,1.3-1.3v-1.5l-1.3-1.3V310l2.8-1.3,2.8,1.3,4.1,2.8,1.5,1.5v-1.5h2.8V310l-1.5-4.1h-2.8l-2.8-2.8,1.5-1.5,1.3-2.8-1.3-1.5,1.3-2.8h-2.8l1.5-2.8,2.8-1.3,1.3,1.3,3,1.5v-2.8l2.8-2.8,2.8-1.5v-1.5l2.31-.73,1.08-2,3.07,0.72a0.06,0.06,0,0,0,.06-0.08l-0.93-2,4.3-1.5-1.5-1.3-4.51-4.09L834,276.17l-2.06-1.29v-2.8l-2.11-.41-0.77,1-7-3.43-1.5,1.3-1.3-1.3-2.8,2.8v-5.8h-2.8l-1.5-1.3-1.3-1.5-9.9-4.1h-1.5v2.8l-1.3,1.3V265h-5.6v2.8H791l-2.8-5.6-2.8,1.3v-2.8l-2.8-4.1v-4.3l-2.8-1.5-1.5-1.3-2.8-1.5-2.8,2.8h-5.6l-2.8,1.5-1.5,2.8-1.17-1.3h-3.13l-2.8,4.1h2.8v1.5l-1.3,2.8-2.8,1.3-8.4-6.9,1.3-7.1V248H746v1.5h-1.5L743,248l1.5-1.3h-2.8l-1.5-1.5h-1.3l-2.8-2.8-2.8-1.3-1.5-2.8v-11.4h-1.3v1.5l-1.5,1.3h-1.5v-4.1l-1.3-4.3,4.3-4.3,2.8-4.1h-1.5l-2.8-1.5-5.6-1.3,2.8-4.3,5.6-4.3-1.3-2.8h-4.3l4.3-6.9,1.3-2.8,2.8-1.5v-4.3h-1.3l1.3-4.1-5.6-2.8,1.5-2.8h4.1l4.3-3-1.5-1.3h-6.9l-4.3,1.3h-9.9l-12.8-1.3-4.1-1.5-7.1,1.5-4.3,5.6v2.8l-8.4,1.5h-2.8l-7.1-8.6-2.8-1.3-2.8-4.3-4.3-4.1-8.4-8.6-2.8-8.4-4.3-11.3h-5.6l-6.9,2.8-5.8,4.1-8.4-4.1-8.4-4.3-7.1,7.1-8.4,2.8-9.9-11.3-4.4-4.6h0Zm244.7,181.1,1.5-4.3h-1.5l-1.3,2.8,1.3,1.5h0Zm-104.6,162.6v-1.3l-1.3,1.3h1.3Z" transform="translate(-292.09 -122.96)"/></svg>