<svg id="Capa_1" data-name="Capa 1" xmlns="http://www.w3.org/2000/svg" viewBox="0 0 354.06 502.44"><defs><style>.cls-1{fill:none;stroke:#8b0000;stroke-miterlimit:10;stroke-opacity:0.75;stroke-width:3px;}</style></defs><title>alt-urgell</title><path id="alt-urgell" class="cls-1" d="M745.28,25.79L731.66,32l-3.75,1.31-3.58,3.58-6.2,2.44-4.89,6.2-8.64,4.89-2.44-3.58-4.89-1.31V62.8L696,67.69l-1.13,4.89-10,3.75v4.89l-3.58,6.2-10,14.75-3.58,3.75-7.51-3.75-6,1.31h-2.44l-6.2,2.44-6.2,1.13-2.44-2.44-3.75-2.44-2.44-2.44-3.58,7.33,3.58,10,1.31,9.87h-7.33l-2.44,3.75v24.53l-6.2,11.17v1.31L600,175l-6.2,7.33-7.33,1.31L584,192.27l-7.51,8.64,1.31,1.13-7.33,11.17V217l-11.17,1.13H552L550.68,223l-4.89,5.06,13.62,8.56,3.58,2.44,3.75,5.06v6L563,253.91v3.75l-1.13,1.13,4.89,10-11.17,7.33V281l2.44,4.89,11.17,4.89h1.31l1.13,14.93-4.89,4.89-1.13,3.75,3.58,1.13,8.64,6.2,3.75,6.2v3.58l-2.44,1.31v2.44l-1.31,4.89L574.07,345H570.5l-1.31,2.44h-2.44v3.75l-1.13,4.89L563,360.94v10h5.06l1.13,3.58L568.05,382l-1.31,4.89,2.44,12.31v4.89l4.89-1.13h1.31l2.44-2.44,1.31-1.31,2.44,1.31,7.33-2.44,3.58,8.56,3.75,1.31,2.44-1.31,2.44,2.62v6l8.64,2.44v2.44l2.44,2.44,1.31,8.64-4.89,2.44,3.58,10-2.44,8.64,1.31,2.44,7.33,11.17L617.12,467l3.75,1.31,6.2,4.89-2.44,7.33-1.31,1.31v11l2.44,2.62L618.43,520,616,523.77l3.58-1.13,5.06-1.31L640.69,509l1.13,1.13,2.44-1.13-2.44-3.75,2.44-3.75,1.31-1.13,1.13-3.75-1.13-1.13H648l2.44-7.51,4.89-4.89-2.44-2.44V479.5h2.44l7.51,1.13,2.44,1.31h6l6.2-2.44H680l9.87-7.51-2.44-7.33L685,457.33l1.31-7.51h1.13l-1.13-7.33,2.44-3.58L686,438.3l1.13-6.2V413.59l-2.44-1.13-2.44,2.44H679.8l-8.64-3.75-6-13.62,2.44-16.06,4.89-4.89,3.58-1.31,1.31-1.13,3.75-1.31,1.13-3.58H686l2.44-1.31,3.75-7.33-3.75-2.44-1.31-1.31v-3.75h1.31l2.44-1.13,1.31,1.13V352h1.13l7.33-3.75,5.06,2.44h6l12.48-6h8.64l1.13,4.89,8.64,6.2,17.2-10,14.93-11.17,12.31-9.87,1.31-3.75,3.75-2.44v-9.87l11.17-3.75L817,306.21l7.33,2.44,11.17,3.75h9.87l-1.31-10,8.64-16.06L854,281.5l4.89-4.89,2.44-2.44,12.48-4.89h2.44l4.89-1.31,8.64-1.31v-2.44l6-3.58-2.44-11.17L882.17,247h-6l-6.2-4.89,3.75-39.64,2.44-3.58-5.06-10,5.06-9.87-1.31-2.44h-2.44l2.44-10-2.44-12.31-4.89-6.2-13.62-8.64-4.89-6-7.51-6.2v-2.44L839,112.39l-9.87-7.33-4.89-2.44-4.89-3.75h-3.75l-1.31,3.75,1.31,4.89-3.75,4.89-1.13,6.2-11.17,1.31-9.87,2.44-12.48-3.75-9.87-1.13-11.17-1.31-10-2.44-2.44-4.89h2.44l-2.44-4.89,2.44-8.64-3.58-3.75,1.13-8.64-7.33-6-6.2-1.31,3.75-6.2,12.31-3.58,13.62-12.48-7.33-13.62-1.13-8.56-6.2-5.32h0Zm-85.3,457L657.54,484v2.44l2.44,3.75h1.31l1.31-1.31v-6H660Z" transform="translate(-543.43 -24.02)"/></svg>