<svg id="Capa_1" data-name="Capa 1" xmlns="http://www.w3.org/2000/svg" viewBox="0 0 305.02 279.79"><defs><style>.cls-1{fill:none;stroke:#8b0000;stroke-miterlimit:10;stroke-opacity:0.75;stroke-width:3px;}</style></defs><title>alt-penedes</title><path id="alt-penedes" class="cls-1" d="M449.94,112.63l3.7,7.65h-2.8l-4.3,3v6.9l-12.6,2.9-7.1,7.1-1.5,9.9,7.1,9.9,7.1,1.3,2.8,9.9-17.1,7.1-4.1-7.1-8.6-1.3-1.3,4.1-7.1,1.5v4.1l-5.6-2.8-0.81,3.52-14.79,5.08-7.1,5.6-5.6-7.1-1.35,2-5.75,2.27-4.1-1.5-1.5,7.1,5.6,2.8-1.3,2.8-1.5,2.8,2.8,2.8,2.8,11.3-4.1,3-2.8,6.9-2.8,5.6-0.49,3.1,24.49-11.6,7.1,5.6,12.6,2.8,7.1,8.6,2.8,6.9,4.3,1.5,4.3-1.5,5.6,3v4.1l1.3-1.3,2.8,1.3,1.5,7.1-5.6,1.3-8.6,9.9,4.3,4.3,1.5,8.4,4.1,7.1V298h2.8l11.4,5.6v1.5l-4.3,9.9v4.1h1.5l8.4,5.6,7.1,2.8,2.8-6.9,6.9-4.3,1.5,1.5,2.8-2.8,2.8,1.3-2.8,2.8h-2.8v4.3h1.3l-1.3,7.1-4.3,5.6,4.3,5.6-4.3,5.6v1.5l-1.3,6.9H455l-5.8,4.3-5.6-2.8h-2.8v-1.5l-1.3-1.3-1.5-1.5-14.54-1.63,1.74,4.43v5.6l5.6,12.8,7.1,1.5,5.6-1.5,5.6,4.3,4.3,4.3,4.3,4.1,5.6-1.3,1.3-4.3,1.5-2.8,5.6-2.8,2.8-2.8,17.1-7.1,1.3-5.6,1.5-4.3,2.8-4.1,9.9-11.4V339l2.8-5.6,4.3-5.8,2.8-6.9-1.1-3.6,5.6-4.3,14.3,3,6.9,4.1,2.8-1.3,1.5-1.5,5.6-2.8,4.3-1.5v-4.1l4.1-2.8-1.3-8.6,4.3-4.1,4.1-2.8h4.3l7.1,2.8,2.8,1.3h5.6l9.9,1.5,5.6,2.8,2.8-1.5,8.4,4.3,5.6-2.8h1.5l4.3-5.6,2.8-7.1,8.4-5.6v-4.3h7.1l6.9-5.6,5.6-5.6-5.6-7.1-1.3-8.4-8.6-4.3-4.1-4.1-1.5-5.6,7.1-4.3-1.5-7.1,1.5-5.6,5.6-2.8-2.8-4.3,5.6-8.4-1.3-1.5,2.8-5.6,2.8-1.3,1.3-1.5-14.1-22.5-1.5-3-1.3-2.8v-8.4l-1.5-7.1-6.9-5.6-9.9-7.1-5.6-8.4L612.83,132l-6.69,9-8.4,4.3-4.3,4.1v2.8l-8.4-2.8-1.5,2.8v1.5l2.8,5.6-15.6,2.8V172l-4.1,7.1-14.3-7.1,1.5-5.6H551l-7.1-2.8-5.6-2.8-8.4-1.5-3-2.8h-1.3l-5.6-5.6h-2.8l-14.1-31.8H489l-19.9-1.5-12.8-5.6-3.71-1.6Zm17.9,188.85h5.6V303l-4.3,2.8-4.3-1.5,3-2.8h0Z" transform="translate(-353.83 -108.63)"/></svg>