<svg id="Capa_1" data-name="Capa 1" xmlns="http://www.w3.org/2000/svg" viewBox="0 0 202.39 318.96"><defs><style>.cls-1{fill:none;stroke:#8b0000;stroke-miterlimit:10;stroke-opacity:0.75;stroke-width:3px;}</style></defs><title>alta-ribagorça</title><path id="alta-ribagorça" class="cls-1" d="M659.14,46.68l-2.8,5.6L645,56.58l-5.6,4.1-3,4.3-6.9,4.3-7.1,2.8-2.8-8.4-5.6-4.3-4.3-1.5-9.9,2.8L582.94,65v1.5l-7.1,15.6v15.6l-4.3,11.3-2.8,9.9-6.9,7.1,5.6,9.8-5.6-1.3-4.3-4.3-8.4,11.3v7.1l-1.5,7.1,5.6,2.8,5.8,4.3-3,1.3-2.8,7.1-11.3,8.4-4.3-2.8L532,174l-1.3,7.1h-4.3l-1.5,1.3,11.4,24.2v9.8l4.1,17.1,9.9,8.4,4.3,9.9-4.3,4.3-1.3,2.8,6.9,5.6,4.3,15.6-2.8,5.6-2.8,1.3-1.5,4.3-8.4,2.8,7.1,5.6,4.1,1.5L563,304l7.1,1.5h1.3l-1.3-1.5,1.3-5.6,4.3-5.6,4.3-4.3,8.4,1.5,1.5,1.3h2.8l4.1,5.6,7.1,7.1-1.5,4.3-4.1,1.3-1.5,2.8-12.8,2.8h-5.6l-4.1-2.8-3,1.5,4.3,4.1,7.1,3-4.3,5.6L594,335l2.8,4.3h5.6l7.1,5.6,21.2,2.8,7.1,7.1,11.3,6.9,9.9-5.6v-12.8l1.5-6.9,1.3-7.1-9.9-7.1h-2.8v-5.6l-1.3-1.5-1.5-5.6v-4.1l-2.8-8.6-11.3-1.3-4.3-4.3-2.8-7.1h-1.3l-8.6-14.1,8.6-7.1-7.1-12.8,5.6-8.4h17.1l4.1-2.8,7.1-12.8-9.9-12.8h2.8l4.3-5.6,8.4,1.5h1.5l8.4-15.6,8.4-2.8,12.8-4.3,1.5-7.1-1.5-7.1v-4.1l5.6-7.1,1.5-4.3,9.9-1.3v-5.6l5.6-2.8,4.1-4.3-1.3-7.1,2.8-2.8,2.8-4.1,5.6-4.3-1.3-19.9-7.1-6.9h-9.9l-1.3-2.8-4.3-7.1-7.1-1.5-7.1-4.1-1.3-5.8-4.3-5.6-5.6-2.8-4.1-1.3v-4.3l1.3-2.8,1.5-4.3-4.3-2.8-5.6-2.8-4.3-3h0Z" transform="translate(-523.1 -44.45)"/></svg>