<svg id="Capa_1" data-name="Capa 1" xmlns="http://www.w3.org/2000/svg" viewBox="0 0 354.02 358.2"><defs><style>.cls-1{fill:none;stroke:#8b0000;stroke-miterlimit:10;stroke-opacity:0.75;stroke-width:3px;}</style></defs><title>anoia</title><path id="anoia" class="cls-1" d="M443.34,38.08l-4.1,7.1,1.3,2.8-4.3,14.1-2.8,3V72l-5.6,19.9,4.3,4.1,7.1,3,4.1,4.1-5.6,1.5-25.5,24,12.8,1.5-4.3,8.4,5.8,1.3v7.1l12.8,1.5-1.5,8.4-2.8,1.3,7.1,4.3v8.4l4.1,5.6,7.1,8.6h5.6l-1.3,9.9-4.3,1.3h-4.4l-2.8,1.5-1.3,4.1-5.6-5.6h-21.4L415,199l-1.3,5.6-12.8,4.3v2.8l-7.1,2.8,1.5,2.8,5.6,1.5,2.8-1.5,1.3,4.3,7.1,4.3,5.6,2.8h9.9l-1.3,11.3-9.9,7.1v4.1h11.3l2.8-4.1,7.1-1.5,22.7,12.8-17.1,12.8,2.8,4.3,8.6-1.5,1.3,4.3v11.3l-8.4-2.8-7.1,7.1-15.6-2.8-4.3,8.4-1.3,5.6v5.6l2.8,1.5,1.5,4.1,5.6,2.8,4.1,2.8,1.5-1.3,1.3,2.8,12.8,2.8,8.6,7.1v1.3H463l4.1,2.8h5.8l1.3,7.1,5.6,2.8,1.5,5.6v8.6l-12.8,15.6,4.3,5.6v2.8h14.1l5.6,7.1,7.1-5.6,16.9-5.8-1.3-2.8,5.6,2.8v-4.1l7.1-1.5,1.3-4.1,8.6,1.3,4.1,7.1,17.1-7.1-2.8-9.9-7.1-1.3-7.1-9.9,1.5-9.9,7.1-7.1,12.6-2.8V325l4.3-3h2.8l-2.8-8.4h5.6l12.8,5.6,19.9,1.5h14.1l14.3,31.1H637l5.6,5.6h1.3l3,2.8,8.4,1.5,5.6,2.8,7.1,2.8h2.8l-1.5,5.6,14.3,7.1,4.1-7.1V363l15.6-2.8-2.8-5.6v-1.5l1.5-2.8,8.4,2.8v-2.8l4.3-4.1,8.4-4.3,9.9-11.3v-1.5l2.8-7.1h4.1l4.3-1.3v-9.9l-7.1-5.6-5.6-4.3-7.1-9.8-1.3-1.5,1.3-1.5-2.8-1.3-2.8-9.9-4.1-1.3h-4.3l-2.8-1.5-4.3-4.3,1.5-4.1,5.6-4.3,5.6-31.1-1.3-1.3-7.1-1.5-9.9-5.6v-11.3l1.5-5.8,1.3-8.4-7.1-2.8-1.3-5.6,1.3-5.6-5.6,1.3-4.1,4.3-7.1,2.8-19.9-1.5-1.3,4.3-4.3,2.8-4.1,4.3-3,2.8v2.8l-4.1,4.3-2.8,4.1-5.6-2.8-7.1,1.5h-1.5l-12.8-19.9,2.8-7.1-5.6-6.9h-5.6l-5.6,1.3v8.4h-2.8l-5.6-11.3-1.5-5.6,2.8-5.6-5.6-4.3,2.8-5.6-5.6-1.5v-4.1l2.8-5.6-5.6-5.8-8.4,4.3h-1.5l-2.8-7.1-8.4,1.5-11.4-4.3-4.1-5.6h-5.6l-3-2.8,5.8-2.8,5.6-5.6,8.4-2.8,8.4,1.3,2.8,2.8,8.6,2.8v-2.8l-5.8-11.3h-4.1l-4.3-1.5-1.3-4.1,1.3-7.1,2.8-4.3,1.5-2.8,1.3-8.4v-4.3l-1.3-4.1-7.1-4.3v-1.3l-5.6-5.8-1.5,1.5-5.6,2.8-2.8-1.5V68l-7.1,1.3-4.1,12.8h-8.4l1.3,4.3h-2.8l-1.5-4.3,3-5.6-4.3-1.5-2.8-2.8-2.8-4.1h-5.6v-2.8l-4.3-12.8L486,49.68l0.7,2.8-0.7,1.3,1.5,8.4-2.8,3V68l-4.3-2.8-2.8,1.3-1.3,1.5h-2.8l-4.3-4.3,5.6-2.8,1.5-4.3V51l1.3-11.3-9.9,1.3-9.8-1.3-14.6-1.6h0Z" transform="translate(-391.72 -36.48)"/></svg>