<svg id="Capa_1" data-name="Capa 1" xmlns="http://www.w3.org/2000/svg" viewBox="0 0 284.23 265.54"><defs><style>.cls-1{fill:none;stroke:#8b0000;stroke-miterlimit:10;stroke-opacity:0.75;stroke-width:3px;}</style></defs><title>aran</title><path id="aran" class="cls-1" d="M536,73l-14.3,5.6h-5.6l-2.8,8.6L502,94.08l2.8,8.6,2.8,2.8-1.5,8.4,1.5,7.1,1.3,6.9-8.4,5.8-4.3,8.4-4.1,4.3L499,152l5.8,2.8-5.8,4.1-5.6,4.3-8.4,9.9,12.8,1.3,4.3,2.8v7.1l2.8,4.3,2.8,7.1L509,197l4.3,5.6-4.3,2.8,5.6,11.4-4.1,5.6L509,228v5.6l-4.1,1.5-1.5-1.5h-4.3l4.3,7.1,4.3,1.3,4.1,12.8,5.8,5.8,4.1,2.8,2.8,14.1v17.1l9.9,6.9,8.4,4.3,11.4,2.8,2.8-1.5,7.1,3,8.4,1.3,16.9-4.3,9.9-2.8,4.3,1.5,5.6,4.3,2.8,8.4,7.1-2.8,6.9-4.3,3-4.3,5.6-4.1,11.3-4.3,2.8-5.6,4.3,2.8,5.6,2.8,4.3,2.8-1.5,4.3-1.3,2.8v4.3l4.1,1.3,5.6,2.8,4.3,5.6,1.3,5.8,7.1,4.1,7.1,1.5,4.3,1.3,6.9-5.6v-5.6l8.6-2.8,2.8-11.3h-4.3l-2.8-7.1,2.8-2.8,1.5-7.1,4.1-5.6,2.8-9.9,7.1-25.5,2.8-5.6-8.4-8.4,5.6-7.1,9.9-4.3,7.1-8.4,5.6,4.3,9.9-2.8-4.3-12.8,4.3-5.6,1.3-7.1,1.5-12.8,1.3-4.3h-2.8l1.5-5.6v-8.4l4.1-7.1,1.5-6.9-7.1,1.3-15.6-5.6-11.3,4.3-4.3-1.5-2.8-4.3-1.5-4.1-4.1-2.8-2.8-2.8-4.3-2.8-9.9,4.1-6.9,5.6-1.5,5.8-2.8-1.5-8.4-4.3-4.3-2.8-4.3-4.1-6.9-7.1-11.4-7.1h-5.6l-8.4-11.3-12.8-2.8h-5.6l-18.4-11.4-7.1,1.5-8.4,1.3-7.1-1.3-8.4-4.3-17.1-5.6-2.8-7.1-8.4-4.1h-2.8L536,73h0Z" transform="translate(-482.05 -71.4)"/></svg>