<svg id="Capa_1" data-name="Capa 1" xmlns="http://www.w3.org/2000/svg" viewBox="0 0 357.46 358.8"><defs><style>.cls-1{fill:none;stroke:#8b0000;stroke-miterlimit:10;stroke-opacity:0.75;stroke-width:3px;}</style></defs><title>bages</title><path id="bages" class="cls-1" d="M738.94,126l2.8,1.3,1.3-4.1-6.9-5.6-2.8-11.4-1.5-5.6-2.8-7.1-1.5-2.8,4.3-15.6v-1.3l1.5-1.5V71l-1.5-1.5-11.3-4.1h-7.1l-4.3-3h-8.4l7.1,8.6-11.3,5.6-3,14.1-2.8,2.8,9.9,11.4-1.3,4.1h-9.9l-9.9-43.7h-14.1l-9.9,11.3-12.8,7.1-5.6,2.8,1.3,2.8-8.4,1.3-2.8,9.9,2.8,5.6-2.8,8.6,1.3,5.6h-2.8l-12.8-9.9-9.8,1.5-1.5,4.1v11.2l-4.3-1.3,1.5-5.6-5.6-4.3-2.8-4.1-4.3-3-9.9-6.9-6.9,5.6h-9.9l-14.3,5.6-1.3-4.3-2.8,1.5-4.3-5.6-1.5,4.1h-8.4l-7.1-1.3,3-5.6-3-2.8-6.9-2.8-2.8-9.9V85l-9.9,2.8-11.3,1.5-7.1-4.3,1.3-4.1-2.8-1.5-4.1-9.9-7.1-2.8-7.1,4.3-2.8,4.1,2.8,2.8v4.3l-4.1,2.8,6.9,12.8-2.8,1.5-4.1-1.5h-3l-5.6,7.1-6.9,7.1-4.3,6.9-8.4,2.8-2.8-1.3-9.9,14.1h-1.5v-4.1l-5.6,2.8-5.6,8.4,9.9,7.1,4.1-2.8,8.6-7.1,4.1,1.3,8.4,2.8,5.8,11.4v1.3l2.8,8.6-2.8,8.4,2.8,2.8-4.3,5.6-9.9,2.8,2.8,5.6-2.8,11.4-12.8,6.9-2.8,7.1,2.8,4.3v2.8h2.8l-1.3,1.3,2.8,5.8-5.6,8.4,1.3,2.8-8.4,1.5V243l7.1,4.3,1.3,4.1v4.3l-1.3,8.4-1.5,2.8-2.8,4.3-1.3,7.1,1.3,4.1,4.3,1.5h4.1l5.8,11.3V298l-8.6-2.8-2.8-2.8-8.4-1.3-8.4,2.8-5.6,5.6-5.8,2.8,3,2.8h5.6l4.1,5.6L414,315l8.4-1.5,2.8,7.1h1.5l8.4-4.3,5.6,5.8-2.8,5.6v4.1l5.6,1.5-2.8,5.6,5.6,4.3-2.8,5.6,1.5,5.6,5.6,11.3h2.8v-8.4L459,356h5.6l5.6,6.9-2.8,7.1,12.8,19.9h1.5l7.1-1.5,5.6,2.8,2.8-4.1,4.1-4.3V380l3-2.8,4.1-4.3,4.3-2.8,1.3-4.3,19.9,1.5,7.1-2.8,4.1-4.3,5.6-1.3-1.3,5.6,1.3,5.6,7.1,2.8-1.3,8.4-1.5,5.8v11.3l9.9,5.6,7.1,1.5,1.3,1.3,4.3,4.3,9.9,7.1h21.2l1.3-5.8-1.3-14.1L610,394l5.6,5.6,9.9-2.8,5.6-4.1-1.3-9.9-1.5-15.6-1.3-1.5,5.6-6.9,1.5-1.5,5.6-5.6,9.9-2.8,6.9,7.1,2.8-4.3,2.8,1.3,3,3v6.9l2.8,1.5,2.8,2.8h5.6l2.8,1.3,7.1-2.8h8.4l5.6-5.6h8.4l5.8-4.1v-4.3l-3-8.4V339l4.3-4.3-1.3-9.8,5.6-2.8,2.8-11.4-2.8-11.3-1.5-5.6-0.3-5.8-7.1,1.4v-12.7l-9.9-7.1-7.1-4.2-12.7,4.2-17,4.2h-5.7l-4.2-5.7-2.8-7.1-2.8-1.4,1.4-1.4v-9.9h-2.8v-2.8l-1.29-1,9.79-3.22,14.1-2.8,14.1-4.2,9.9-4.2,28.3-9.9h7.1l5.7-4.2-2.8-5.7-4.2-7.1h-2.8l-1.4-2.8-5.7,1.4-5.7-11.3-18.4-4.2-1.4-2.8,1.4-9.9,11.3-5.7,12.7-14.1,1.4-2.8-1.4-4.2-7.1-2.8,8.5-1.4,1.4-11.3-2.8-9.9,1.4-4.2,9.9,2.8,5.7,5.7Zm-15.6-39.5h1.3v4.1l1.5,1.5-2.8,1.3-5.6-1.3,2.8-4.3Zm-220.7,42.3h2.8l2.8,4.3,2.8-4.3,4.3,2.8-5.6,9.9-1.5-4.3-5.6-2.8h2.8Z" transform="translate(-387.31 -60.88)"/></svg>