<svg id="Capa_1" data-name="Capa 1" xmlns="http://www.w3.org/2000/svg" viewBox="0 0 191.3 205.55"><defs><style>.cls-1{fill:none;stroke:#8b0000;stroke-miterlimit:10;stroke-opacity:0.75;stroke-width:3px;}</style></defs><title>baix-penedes</title><path id="baix-penedes" class="cls-1" d="M517.84,139.08l-6.9,15.6-7.1,4.3-4.3,5.6-6.9-1.3-5.8,4.1-22.5-1.3-43.9,29.6,2.8,4.3,12.8,11.3-2.8,4.3-2.8,2.8-5.6,1.3-7.1,5.8,18.4,6.9h8.4l-2.8,4.3,4.3,8.4h-8.6l-12.6-2.8-4.3,4.3v1.3l-4.3,5.8,15.6,1.3,9.9,5.6,1.5,4.3-11.4,2.8-2.8,2.8-3.1,4.6-4.3,2.8-1.3,11.2-4.3,4.3h-5.6l2.8,15.6,4.3-1.5,4.1-5.6,7.1,1.5h7.1l7.1,8.4H447l8.6-1.5,15.4-4.1,1.5,8.4,5.6,15.6,5.6,8.4,1.5,1.5,19.9-4.3h1.3l2.8-2.8,7.1-1.5,21.2-2.8,7.1-1.3h21.2l5.6-2.8,1.5,1.3,2.8-1.3H577l2.8-1.5v1.5l9.9-1.5,2.8-1.3-2.8-7.1v-8.4H594l2.8,4.1,1.3-1.3-4.1-8.6-2.8-2.8,1.3-8.4-2.8-5.6-5.6,2.8-1.5,2.8-1.3,4.3-5.6,1.3-4.3-4.1-4.3-4.3-5.6-4.3-5.6,1.5-7.1-1.5-5.6-12.8v-5.6l-4.1-5.6L556,261l1.5,1.5,1.3,1.3v1.5h2.8l5.6,2.8,5.8-4.3h2.8l1.3-6.9v-1.5l4.3-5.6-4.3-5.6,4.3-5.6,1.3-7.1h-1.3v-4.3h2.8l2.8-2.8-2.8-1.3-2.8,2.8-1.5-1.5-6.9,4.3-2.8,6.9-7.1-2.8-8.4-5.6h-1.5v-4.1l4.3-9.9v-1.5l-11.4-5.6h-2.8v-5.6l-4.1-7.1-1.5-8.4-4.3-4.3,8.6-9.9,5.6-1.3-1.5-7.1L544.5,161l-3.5.14,1-2.89-5.6-3-4.3,1.5-4.3-1.5-2.8-6.9-7.2-9.3h0Zm68,69.4-3,2.8,4.3,1.5,4.3-2.8v-1.5h-5.6Z" transform="translate(-408.65 -136.17)"/></svg>