<svg id="Capa_1" data-name="Capa 1" xmlns="http://www.w3.org/2000/svg" viewBox="0 0 251.42 369.1"><defs><style>.cls-1{fill:none;stroke:#8b0000;stroke-miterlimit:10;stroke-opacity:0.75;stroke-width:3px;}</style></defs><title>baix-emporda</title><path id="baix-emporda" class="cls-1" d="M798.44,217.68v-1.5h4.3l0.51,2.07,1.75-1.56-0.76-1.81,2.8-4.3-1.5-1.5h-1.3v-6.9l-1.5-1.5-1.3-1.3-1.5-1.5-1.5-1.5,1.89-1.54-4.69-1.26v-1.3l1.5-1.5v-1.3h-1.5V188h-2.8v-4.1l-1.3-1.5-1.5-2.8-2.8-5.6-1.3-1.5v-1.3l-1.5-2.8v-1.5l-2.8,1.5-5.6,1.3-1.5-2.8,1.5-1.3-2.8-1.5-5.8,1.5L749,174l-4.1-8.4-12.8,4.1V157l-5.6-1.3-4.3-8.6-2.8,3-2.8,2.8-7.1,2.8h-1.3l-8.6,1.3-6.9,2.8-1.5,2.8h-4.3l-4.1-9.8h-1.5l-8.4-5.8-4.3-1.3-1.3-1.5-1.5-4.1H663l-2.8-4.3-3.8-.5h0l-1.5,4.3h-1.5v9.9l-8.4,4.1-5.6,4.3-11.3,2.8h-4.3l-1.5,15.6,4.3-1.5,7.1,11.4,1.3,5.6,1.5,4.1,4.3,1.5-3,8.4-1.3,2.8,2.8,5.8,2.8,15.6-1.3,2.8h-7.1l-2.8-1.5-7.1,4.3-1.5,1.3,3,2.8-4.3,21.4,4.3,5.6h5.6l6.9-1.5,4.3,4.3,4.3,8.4-7.1,5.6v2.8l-7.1,4.3-11.3,1.3-2.8,7.1,1.3,17.1h-1.3v8.4h-4.3l-9.9,1.5-4.1,1.3-2.8,4.3h-2.8l-9.9-1.5,2.8,14.3-12.8,8.4,7.1,7.1,6.9-1.5,14.3,4.3,11.3,5.6,11.4,8.4-4.3,5.6-4.3,5.6-1.3,5.8,9.9,8.4,4.1,9.9,5.6,15.6-2.8,4.1h-9.9l-8.4-1.3-7.1,1.3,3,12.8,6.9,21.2,7.1,2.8,4.3,11.4-7.1,5.6,4.3,5.6,2.8,4.3,2.8,2.8L635,501l2.8-1.5,3-4.1,4.1-1.5,5.6-1.3,1.5-1.5h1.3l1.5-1.3,1.5-1.5,1.3-1.3,4.3-3,6.9-2.8h4.3l1.11,0.95,1.25,1.5,1.94,0.35v-1.3l1.31-.8-1.56-1.61-1.26-4.69h5.6l1.5,1.5h1.3l2.8-1.5v-1.3h1.5l1.5-1.5v-1.3l-1.5-3v-1.3l1.5-1.5h2.8l1.3,1.5,1.5,1.3v-1.3l1.3-2.8v-1.5l2.8-2.8-1.3-1.3,2.8-2.8-1.5-1.5h1.5V453l2.8-8.4,1.5-5.6,2.8-4.3,4.1-2.8,7.1-6.9h1.5l1.3-4.3,4.3-5.6,5.6-2.8,7.1-1.5h2.8l2.8,1.5,1.3,1.3v1.5l-1.65.86-3.95.44v1.5l5.6-1.5h2.8v-4.1h1.5l0.8-1.46,0.7,1.46h1.3l-0.31-2.71,4.61-.09L759,408l-1.3-2.8v-4.3h2.8l1.3-1.3v-1.5h2.8v-1.3h2.8v2.8l1.5-1.5h2.8l1.5-1.3,4.1-1.5,1.5-1.3,1.3-1.5h1.5l-1.5-2.8,1.5-4.3,2.8-1.3-2.8-2.8,2.8-2.8v-2.8l1.5-1.5,4.1-1.5,1.5-2.8v-1.3h1.3l1.5-1.5,2.8,2.8,1.3-1.3,1.5-7.1,2.8-1.3v-5.8l2.8-1.3-1.3-2.8v-2.8l-1.5-2.8H807l1.3-2.8,2.8-1.5-2.8-2.8,1.5-2.8-1.5-1.5,2.8-1.3-1.3-1.5,1.3-1.3-1.3-1.5h-1.5v-1.3l1.5-3v-2.8l5.6-4.1,4.3-2.8-1.5-5.8,1.5-1.3,1.3-2.8h-1.3v1.3l-1.5-1.3v-1.5l-1.3-1.3,1.3-1.5v-1.3l-1.3-2.8-3-3h-9.7v-4.1l-1.5-4.3-4.3-7.1-2.8-12.6-1.3-4.3-1.5-11.3v-8.6l1.5-6.9v-7.1l1.3-4.3,1.5-2.8Zm13.4,2.6-1.3,1.3,1.3,1.5h1.5l2.8-1.5v-1.3h-4.3Zm2.8,4.1v1.5l1.5-1.5h-1.5Z" transform="translate(-571.97 -133.63)"/></svg>