<svg id="Capa_1" data-name="Capa 1" xmlns="http://www.w3.org/2000/svg" viewBox="0 0 469 311.22"><defs><style>.cls-1{fill:none;stroke:#8b0000;stroke-miterlimit:10;stroke-opacity:0.75;stroke-width:3px;}</style></defs><title>baix-ebre</title><path id="baix-ebre" class="cls-1" d="M485.44,137.88l-4.3,4.3-9.9,4.1-11.3,7.1-8.4,1.3-4.3,4.3-4.3,2.8-4.1,4.3-7.1,6.9-7.1-2.8-4.1,1.5-8.6-1.5-7.2,12.9-7.1,2.8H392l-5.6,1.5h-5.6l-8.6,4.3h-2.9l-4.1,1.3v1.5l-5.8,6.9-4.1-1.3-4.3,1.3v5.8l-4.3,5.6v11.3l-1.3,1.5v5.6l-1.5,2.8,1.5,7.1-1.5,2.8,4.3,6.9-5.6,5.8v4.1l-14.3,17.1-6.9,6.9-4.3,8.6-12.8,4.1-14.1,22.7-14.3-2.8-4.1,2.8-5.8,14.1-6.9,1.5-4.3,5.6-7.1,4.3v7.1l14.3-1.5,9.9,1.5L276,354l2.8,7.1-4.1,1.3,1.3,2.8,1.5,3,1.3,1.3,1.5-2.8,5.6-1.5v9.9l1.5,2.8,1.3,4.3h5.6l9.9,5.6,5.6-5.6h4.3l2.8-9.9,8.4,4.3,28.3-2.8v1.3l21.3,18.8,14.3,2.8,7.1,1.5h18.4l5.6,1.3,9.9-1.3h11.2l11.3-4.3,2.8-2.8,5.8,1.5,2.8-2.8,4.1,2.8,7.1,1.3,7.1-6.9,2.8,1.3,5.6,17.1,2.8,15.6,14.1,8.4,9.9,2.8,21.2-8.4,12.8-2.8,11.4-2.8,4.1,4.1,5.8,2.8H577l39.6,5.6,5.8,3,16.9,11.3h11.3l17.1-9.9,12.8-7.1,16.9-4.1H713l-2.8-7.1-2.8-8.4-1.3,1.3v2.8h-4.3l-2.9-4.4h-2.8l-1.5,1.3-2.8,1.5-4.1,1.3h-7.1l-2.8-1.3-4.3-5.6-5.6-5.8-18.4-25.3-7.1-12.8-2.8-2.8-4.3-2.8-2.8-2.8-5.6-1.5h-17l-2.8,1.5-3,2.8,4.3,2.8h7.1l2.8,1.3,4.3,1.5,4.1,1.3,5.6,2.8,4.3,1.5,7.1,4.3-2.8,2.8h-1.5l-2.8,2.8-2.8,1.3-1.5,1.5-4.1,1.3-9.9-1.3-9.9-4.3-4.3-2.8-6.9-8.4-1.5-1.5-4.1-4.1-4.3-5.6-4.3-9.9,1.5-2.8,2.8-2.8,1.5-1.5,1.3-1.5,2.8-1.3,4.3-1.5h1.3l1.5-2.8,2.8-1.3,4.3-1.5,1.3-2.8,1.5-1.3h2.8v1.3L614,322l1.5-3-1.5-1.3v-1.5l2.8-6.9v-1.5h1.5l1.3-1.3v-3l3-2.8h6.9l1.5-2.8v-1.3l2.8-2.8,1.3-2.8,1.5-1.5,7.1-1.3,4.1-3v-1.3h1.5l1.3-1.5,1.5-1.3,1.43-2.2,0.07-3.4h1.3V274l1.5-1.3,1.3-1.5,1.5-2.8,1.3-1.5v2.8l1.5-1.3v-2.8l1.3-1.5v-1.3l1.5-1.5h1.3l1.5-1.3,2.8-1.5,1.5-4.3,2.8-1.3,1.3-2.8v-1.5h1.5v-4.1l1.3-1.5,1.5-1.3h1.3v-3h1.5v-1.3h1.5l1.3-4.3,2.8-1.3,4.3-4.3,1.3-1.3,1.5-1.5v-2.8l2.8-2.8-7.1-1.5-6.9-2.8-12.8-1.3-15.6,1.3-31.1,5.6h-2.8l-7.1-6.9-35.4-5.6-2.8,2.8-2.8-1.5-4.3-2.8h-4.1l-2.8,1.5h-8.6l-22.5,6.9-9.9,2.8-2.8-2.8-2.8-1.3v-4.3h-9.9l2.8-8.4v-4.3l-4.3-2.8v-7.1l-4.1-4.1,2.8-7.1-5.6-1.5L491,167l1.5-5.6,6.9-4.3-4.1-2.8,1.3-2.8-5.6-5.6-2.8-1.5-2.8-6.5h0Zm107.4,195.2" transform="translate(-246.24 -135.25)"/></svg>