<svg id="Capa_1" data-name="Capa 1" xmlns="http://www.w3.org/2000/svg" viewBox="0 0 304.48 396.58"><defs><style>.cls-1{fill:none;stroke:#8b0000;stroke-miterlimit:10;stroke-opacity:0.75;stroke-width:3px;}</style></defs><title>baix-camp</title><path id="baix-camp" class="cls-1" d="M541.94,72.28l-2.8,4.1-5.6,5.8-3,9.8-6.9,2.8-8.6,7.1h-15.4l5.6,14.3-2.8,6.9,4.1,7.1,8.4-7.1,1.5-1.3,9.9,4.1-2.8,4.3-1.5,14.1,4.3,11.4v2.8l-2.8-1.5-7.1,5.8-8.4,5.6-4.3,5.6-5.6,1.3-12.8,1.5-5.6,2.8,7.1,19.9v12.7l-4.3,5.6-22.7,2.8h-4.1v9.9l9.8,2.8,9.9,1.3-2.8,2.8V243l1.5,4.3-4.3,9.9-7.1,12.8-1.3,8.4v4.7l-2.8,9.9-7.1,5.6h-15.6l-5.6-2.8-5.6-4.3-2.8-2.8-4.3,1.3,1.5,4.3h2.8l2.8,2.8,2.8,11.4,2.8,4.1,9.9,2.8,9.8,8.4-0.21,2.06-0.67,3.67-1.93,2.88h-1.3l-1.5-2.8,0.79-1.47L445,326.67l-0.83-2.17-2.53-2-2.8,1.3-2.8,4.3h-1.5l1.5,4.3-1.5,2.8,1.5,5.6v5.6l-2.8,2.8-5.6,1.5V352h-4.3l-1.3,1.5-9.9-5.6-4.3-4.3-8.4,12.8-1.5,2.8-5.6,7.1-5.6,5.6-2.8,4.3,1.3,4.1v7.1l-1.3,4.3-5.6,15.6,1.3,2.8,2.8,2.8,7.1,16.9,2.8,4.3,5.6,15.6,9.9,8.4-1.3,1.5,12.8,1.3,6.9,2.8,7.1,1.5,2.8-5.6,2.8-5.6,4.3-3H446l2.8-1.3,2.8-4.3v-1.3l1.5-2.8,2.8-1.5,6.9-9.9,2.8-2.8,3-1.3,2.8-2.8,6.9-7.1h4.3l4.3-1.5,2.8-1.3,4.1-11.4,1.5-1.3,1.3-1.5,12.8-14.1,5.6-5.6,3-1.5,5.6-5.6,6.9-4.3,4.3-2.8,2.8,1.5,1.5-1.5h2.8l7.1-5.6,4.1-1.3h1.5l1.3-1.5h1.5l1.3-1.5h1.5l1.3-1.3v-1.5l3,1.5v-1.5l1.3-1.3h2.8l1.5-1.5h1.3v-1.4l4.3-2.8H577l1.5,1.3h2.8l2.8-1.3h1.5l-1.14,2-0.36,2.05,2.8-1.3v-1.5l1.5-1.3h4.1l4.3,1.3h4.3l5.6-2.8,9.9-1.3,8.4-3-1.5-2.8-8.4-6.9-2.8-4.3-2.8-4.3-1.5-5.6v-9.9l5.8-5.6,4.1,2.8,4.3,4.3h-1.5v1.5l8.6,2.8,2.8-1.5v-4.3l-1.5-2.8v-4.1l-1.3-5.6-3-1.5,1.5-5.6,1.5-1.5,6.9,1.5,8.6,5.6,5.6,1.5,8.4,12.6h8.4l-2.8-4.1-2.8-2.8,4.3-4.3-1-7.4-2.8-2.8-1.3,2.8-3-4.1,3-5.6,8.4,1.3v1.5l-4.3,1.3,2.8,4.3,9.9,1.3,1.5-2.8-8.6-4.1-2.8-8.6-5.6-4.1-4.3-1.5-9.8-15.6-2.8-2.8,6.9-5.6,1.5-4.3h2.8l9.9-12.8v-1.3l2.8-4.3,2.8-11.3-1.5-1.5,1.5-6.9-4.3-2.8-14.1-8.6,4.1-4.1-11.3-9.9-2.8-4.3,1.5-4.1-11.4-2.8-4.1-1.5h-3l-6.9,2.8-4.3-8.4-7.1,1.3-25.3-4.1,4.1-5.6-1.3-18.6,6.9-9.8-8.4-2.8-8.4-11.4,11.6-3.79a0.28,0.28,0,0,0,0-.54l-7.26-1.27-8.6-4.3-2.8,1.5h-4.1l-3-1.5-1.3-4.1-5.6,4.1-7.1,1.5v-4.3l1.5-9.8,1.3-4.3-5.6-4.3-2.9-1.6h0Z" transform="translate(-376.72 -70.3)"/></svg>