<svg id="Capa_1" data-name="Capa 1" xmlns="http://www.w3.org/2000/svg" viewBox="0 0 254.76 327.65"><defs><style>.cls-1{fill:none;stroke:#8b0000;stroke-miterlimit:10;stroke-opacity:0.75;stroke-width:3px;}</style></defs><title>baix-llobregat</title><path id="baix-llobregat" class="cls-1" d="M470.34,142.48l-5.6,31.1-5.6,4.3-1.5,4.1,4.3,4.3,2.8,1.5H469l4.1,1.3,2.8,9.9,2.8,1.3-1.3,1.5,1.3,1.5,7.1,9.8,5.6,4.3,7.1,5.6v9.9l-4.3,1.3h-4.1l-2.8,7.1,5.6,8.4,9.9,7.1,6.9,5.6,1.5,7.1v8.4l1.3,2.8,1.5,3,14.1,22.5-1.3,1.5L524,309l-2.8,5.6,1.3,1.5-5.6,8.4,2.8,4.3-5.6,2.8-1.5,5.6,1.5,7.1-7.1,4.3,1.5,5.6,4.1,4.1,8.6,4.3,1.3,8.4,5.6,7.1-5.6,5.6-6.9,5.6h-7.1v4.3l-8.4,5.6-2.8,7.1-3.51,4.58-2.29,1,1.16,3-1.16,5.36,2.8,9.9,15.6,5.6-2.8,12.8,1.5,1.5h9.9v-2.8h1.3l9.9,2.8,2.8-4.3,2.8,1.5,5.6-7.1,5.8-1.5,1.3,2.8,11.3,8.6-2.8,2.8V457l4.3,8.6h41.1l15.6-2.8,15.6-2.8,19.7-5.8,21.4-8.4,11.3-5.6,2.8-4.3,2-1.3,2.44-.51,1.63,0.21,2.5,0.6-0.2-1.8-0.8-1.3,1.06-.15,1.24,0.15,2.08-2.08-2.08-2.22,4.1-8.4,1.22-1.26,3,1.81,1.58-.55-2.26-2.76-0.74-1.54v-1.3l-12.6-1.5-12.8-5.6-7.1-8.4-5.6-4.3,1.3-1.5-4.1-4.1,8.4-5.6-2.8-5.8-4.3-4.1-2.8-4.3,1.5-1.3,4.1,1.3,4.3-1.3,2.8-9.9-1.3-2.8V350l-3-7.1,4.3-5.6-1.3-4.1-1.5-4.3h-11.3l-4.3,5.6-4.3-2.8v-4.3l5.8-2.8v-1.3l-3-1.5-3.7,3.88a0.23,0.23,0,0,1-.4-0.16v-2.22l2.8-1.5-1.5-2.8-4.1,2.8-4.3,2.8-1.25,2.7H643l-1.45-2.7v-1.3l1.5-1.5-3-7.1,3-1.3V305h1.3v-1.5l1.5-2.8,1.3-4.3-14.1-1.3-7.1,2.8-1.5-4.3-4.1-2.8-1.5-6.9-6.9-3H602l-1.5,5.8-2.8,6.9,0.43,4.36-1.73-.06-4.3-4.3-2.8-2.8-2.8-8.4-5.6-5.6-4.3,2.8-7.1-4.3-1.3-2.8v-4.1l-4.3,4.1-7.1-7.1-1.3-8.4-5.6-4.1-2.8-5.8,1.3-2.8,1.5,1.5,4.1-5.6,4.3-7.1,9.9-2.8v-12.8l-5.6-1.5-1.5-1.3-2.8-2.8-2.8-5.6-1.5-5.8-2.8-6.9-1.3-2.8-2.8-2.8,1.3-5.8-1.3-1.3-1.5-7.1h-7.1l-16.9-7.1,4.1-2.8-5.6-4.1-5.6-4.3-4.3,1.5-4.1-2.8h-21.2l-9.9-7.1-4.7-4.6h0Z" transform="translate(-455.9 -139.42)"/></svg>