<svg id="Capa_1" data-name="Capa 1" xmlns="http://www.w3.org/2000/svg" viewBox="0 0 160.3 165.31"><defs><style>.cls-1{fill:none;stroke:#8b0000;stroke-miterlimit:10;stroke-opacity:0.75;stroke-width:3px;}</style></defs><title>barcelones</title><path id="barcelones" class="cls-1" d="M616.18,322.13l2,2,1.3-2.8L618.37,319a0.58,0.58,0,0,1,.22-0.74l1.13-.72a0.37,0.37,0,0,1,.48.08l0.75,0.91v4.1h-1.5v3l1.5-1.5v1.5l-1.5,1.3v2.8h1.5v1.5h1.3l-1.3,2.8,1.16,5.76a0,0,0,0,0,0,0l1.31-3.84L622.25,334l1.5-5.6h-1.5v-1.5l3-7.1,1.3-1.3,1.5-2.8,1.3-1.5v-2.8h2.8v-1.3l4.3-5.8,2.8-2.8,1.5-1.3,1.3-1.5v-1.3l4.64-4.27,0.81-1.29a0.22,0.22,0,0,1,.35,0l1.61,1.19a0.07,0.07,0,0,0,.11,0l0.18-3.25,2.09,0.58a0.09,0.09,0,0,0,.11-0.09v-1.75l-1.5-.94h-1.3l1.3-2.8L652,286l1.49,1.06,1-1.12-1.25-1.12,0.63-.87-0.56-2,1.5-2.8,1.5-1.5,1.3-1.5v-1.3l1.5-2.8-0.13-.53,2.39-5.4,1.75,1.27a0,0,0,0,0,.06,0l0-2.4v-2.8h1.5v-1.3l1.3-3,1.5-1.3,1.3-1.5,1.5-2.8,2.8-2.8,1.5-1.3,4.1-2.8,2.8-3-6.9-9.8-9.9-17.1-2.8-1.3-11.4-1.5-1.5.2h0l-7.1,4.3-1.3,5.6,1.3,4.1,1.5,1.5-4.3,4.3h-5.6l-2.8-2.8-8.6,5.6h-5.6l-2.8,4.1-5.6,2.8-2.8,7.1-5.6,2.8-2.8,2.8H584l-2.8,2.8-2.8,11.4-7.1,5.6-9.9-4.3-4.3-2.8L553,272l-5.6-2.8h-1.5l-6.8-4.12a0.1,0.1,0,0,0-.14.13l2.64,5.29-1.3,2.8,4.3,2.8-1.5,1.5v4.3l1.5,2.8V286l-5.8,2.8v4.3l4.3,2.8,4.3-5.6h11.3l1.5,4.3,1.3,4.1-4.3,5.6,3,7.1v4.3l1.3,2.8-2.8,9.9-4.3,1.3-4.1-1.3-1.5,1.3,2.8,4.3,4.3,4.1,2.8,5.8-8.4,5.6,4.1,4.1-1.3,1.5,5.6,4.3,7.1,8.4,12.8,5.6,12.6,1.5h1.5l1.5-1.5h1.3v-1.5l1.5-4.1h4.1v-1.5l1.5-4.1,2.8-7.1-1.5-1.5h-1.62l-1.84,1.32-1.67,1.25-2,3.52L594.25,365l-1.69-.44,0.19-2.36-3-1,0.85-2.28,2.81-.62,1.77-6.17h2.7l4.74-2.58-1.5-1.5,1.5-2.8h1.3l2.8,2.8,4.3-6.9-2.8-3,1.5-1.3,1.36-.16L611,335.3l1.5-2.8,2.36-.67-1.06-2.13v-4.1h1.5l1.3,1.3h1.5l-2.8-2.8,0.5-1.88A0.2,0.2,0,0,1,616.18,322.13Zm-88.14-53v8.4l-3,1.3,3,7.1-1.5,1.5v1.3l1.5,2.8,1.3-2.8,4.3-2.8,4.1-2.8-1.3-5.6-1.5-2.8-2.8-1.5-2.8-4.1H528Zm11.2,16.9-2.8,1.5v2.8l4.1-4.3h-1.3Zm77.26,52.69-2.16,5.6-2.8,5.8-2,4.08-0.82,4.32V367l1.3-7.1,1.5-6.9,2.8-5.6,2.8-6.55Z" transform="translate(-523.08 -211.09)"/></svg>