<svg id="Capa_1" data-name="Capa 1" xmlns="http://www.w3.org/2000/svg" viewBox="0 0 328.36 404.19"><defs><style>.cls-1{fill:none;stroke:#8b0000;stroke-miterlimit:10;stroke-opacity:0.75;stroke-width:3px;}</style></defs><title>bergueda</title><path id="bergueda" class="cls-1" d="M491.34,32.68l-8.4,1.5-2.8,4.1-4.3,1.5-5.6,1.3h-1.5l-5.6,1.5-2.8-1.5-5.6,2.8-8.4,4.3H442l-5.6,4.3-7.1,1.3-8.4-2.8-5.6,4.3v2.8h-5.8l-6.9,4.1-5.6-1.3h-21.3l-4.1,7.1h-12.8l-2.8-4.3-8.4,4.3-1.5-1.5h-13.2l-5.6,1.5-1.5,2.8,12.8,2.8,2.8,12.8-6.9,4.1v2.8l-9.9,1.5-5.6,1.5h-2.8l-14.3,5.6-2.8,2.8-5.6,5.6-1.5,5.6-9.9,18.4,1.5,11.4,2.8-1.5,5.6,4.3h2.8l9.9,1.3-1.3,4.3,6.9,14.1,2.8,5.6-2.8,1.5,5.8,4.3h2.8l1.3,1.3H323v-7.1l2.8-1.3,2.8,4.3,3-5.8,1.3,7.1,1.5-2.8-1.5-4.3h2.8l7.1,4.3,4.3,2.8,2.8,5.6,5.6-4.1,8.4-2.8-1.5-5.8,4.3-8.4,1.5,1.5,2.8,4.1-1.5,5.6,1.5,7.1-2.8,4.3-8.6,8.4-5.6-2.8-11.3,19.9v4.1l7.1,5.6,2.8,2.8-1.5,3-1.3,6.9-2.8,2.8,4.1,4.3,8.4,1.5v8.4l-4.1,4.1-5.6,3-12.8-4.3-1.5,5.6v7.1l-9.9,14.1-1.3,7.1-1.5,5.6v4.3l4.3,2.8,1.3-4.3,3-5.6,4.1,2.8,2.8,2.8,1.5,5.6-1.5,2.8,2.8,4.3-1.3,2.8h-5.6l-5.8,4.3-4.1,2.8-4.3,5.6,1.5,5.6-4.3,4.3-2.8-2.8,2.8-4.3-1.3-2.8,1.3-8.4h-4.3l-2.8,2.8-2.8,7.1v6.9l-2.8,4.3,2.8,2.8v4.3l4.3-5.6-1.5-1.5,1.5-2.8,4.3,2.8v8.4l4.1-1.3,7.1-1.5,5.6,1.5,2.8,2.8,1.5,4.1,1.3,1.5,1.5-7.1,2.8-1.3-7.1-11.4,2.8-8.4h2.8l5.8,7.1v2.8l6.9,2.8-1.3,4.3v4.1l2.8,5.6-9.9,7.1-8.4,4.3v1.3l-8.6,4.3-6.9-1.5-2.8-2.8,5.6-9.9-7.1-2.8-4.3,2.8-1.3,3-2.8-1.5-1.5,1.5-4.1,12.6,1.3,7.1v1.5l7.1-4.3,7.1,2.8,4.1,9.9,2.8,1.5-1.3,4.1,7.1,4.3,11.3-1.5,9.9-2.8v1.5l2.8,9.9,6.9,2.8,3,2.8-3,5.6,7.1,1.3h8.4l1.5-4.1,4.3,5.6,2.8-1.5,1.3,4.3,14.3-5.6h9.9l6.9-5.6,9.9,6.9,4.3,3,2.8,4.1,5.6,4.3-1.5,5.6,4.3,1.3v-11.2l1.5-4.1,9.8-1.5,12.8,9.9h2.8l-1.3-5.6,2.8-8.6-2.8-5.6,2.8-9.9,8.4-1.3-1.3-2.8,5.6-2.8,12.8-7.1,9.9-11.3h14.1l9.9,43.7h9.9l1.3-4.1-9.9-11.4,2.8-2.8,3-14.1,11.3-5.6-7.1-8.6,8.4-6.9-1.3-7.1,1.3-5.6h1.5l5.6-4.3-1.3-4.1,1.3-7.1,5.6-9.9,4.3-8.4v-2.8l-7.1-1.5h-8.4l1.3-2.8-1.3-2.8,4.3-4.3,2.8-12.8,1.3-18.4-1.3-9.8,5.6-9.9,7.1-1.5v2.8l5.6,14.3,6.9-2.8-2.8-7.1,1.5-2.8,8.4-2.8,6.11,4.42-0.51-8.72-11.3-4.1,5.6-4.3-2.8-12.8h9.9l4.3-4.3,1.3-4.1-2.8-4.3h-4.3l-1.3-1.3-4.3-4.3-2.8-2.8-5.6,1.3-4.3-5.6-5.6-4.1-15.6,2.8v-4.3l-1.3-2.8-7.1-14.1-1.5-4.3,1.5-4.3h-8.4l-9.9,1.5v-18.4l5.6,1.3,9.9,2.8h8.06l-1.06,2.8,3,5.8,1.3,2.8-5.6,9.9,5.6,5.6,1.5,2.8,11.3-1.5,4.3-4.1,1.3-5.8,4.3-4.1,5.6,4.1h9.9l2.8-5.6-1.5-8.4,2.8-2.8-4.1-1.5-4.3-1.3-1.3-14.3,1.3-4.1,1.5-4.3L587,130l-7.1,2.8-2.8,2.8-4.1-9.9-4.3-5.6,5.6-4.3,1.5-4.1,1.3-9.9v-1.5l5.6-7.1,4.3-8.4,5.6-5.6,1.5-2.8,9.9-5.6,2.8-5.6-4.3-1.5-5.6-2.8-7.1-4.3-5.6-4.1-9.9-4.3h-8.4l-7.1,1.5-7.1,5.6h-6.9l-18.4-11.4-2.8-2.8-7.1,5.6-1.5-6.9-12.8-1.5-10.9-5.6h0Zm80.16,182.4,1.94,1.5,4.1,2.8v1.3l-8.4,4.3v7.1l-1.5,4.1-1.3,1.5L562,239l-1.3-1.3v-2.8l-2.8-8.4v-4.3l9.8-1.5,1.5-1.3,1.3-2.8-1.4-1.5h2.36Zm-244.26,12.8-22.7,1.5,1.21,3.45,10.19,3.45,20.31,2.7-0.61-2.7,2.8-5.6-11.2-2.8h0Z" transform="translate(-280.59 -31.11)"/></svg>