<svg id="Capa_1" data-name="Capa 1" xmlns="http://www.w3.org/2000/svg" viewBox="0 0 307.84 216.64"><defs><style>.cls-1{fill:none;stroke:#8b0000;stroke-miterlimit:10;stroke-opacity:0.75;stroke-width:3px;}</style></defs><title>cerdanya</title><path id="cerdanya" class="cls-1" d="M535.54,98.68l-4.1,8.4-1.5,12.8-1.3,7.1-2.8,7.1h-4.3l-5.6-1.5h-4.3l-4.1,4.3-7.1-2.8-7.1,1.3-8.4-2.8-5.6,2.8-7.1,12.8,11.3,8.4,2.8,14.3v2.8l8.6,7.1,5.6,6.9,15.6,9.9,5.6,7.1,2.8,14.1-2.8,11.4h2.8L526,233l-5.8,11.3,5.8,11.4-2.8,4.1-4.3,45.4,7.1,5.6h6.9l1.5-2.8,5.6-1.5h12.7l1.5,1.5,8.4-4.3,2.8,4.3h12.8l4.1-7.1h21.3l5.6,1.3,6.9-4.1h5.8v-2.8l5.6-4.3,8.4,2.8,7.1-1.3,5.6-4.3h4.3l8.4-4.3,5.6-2.8,2.8,1.5,5.6-1.5h1.5l5.6-1.3,4.3-1.5,2.8-4.1,8.4-1.5,11.3,5.6,12.8,1.5,1.5,6.9,7.1-5.6,2.8,2.8,2.8-15.6,4.1-4.1h5.8l4.1,1.3,8.4-4.1v-8.6l2.8,3h5.8l8.4-5.8-2.8-4.1-5.6-4.3h-2.8l-4.3-2.8-4.3-2.8-4.1-7.1-4.3-2.8-5.6-5.6-1.5-8.4-1.3-2.8-1.5-9.9-2.8-7.1,1.5-14.1-11.4-7.1v-8.4l-1.3-11.4-5.6-1.3-7.1,4.1h-9.9l-5.6-1.3-5.6,1.3-2.8-1.3-2.8-8.4-12.8-7.1-2.8,2.8-7.1-4.3-2.8-5.6-8.4-9.9-7.1-1.3-4.3,1.3-9.9-6.9-12.8,4.1-11.3-2.8-5.6,1.5-4.3-4.3-5.6-2.8-11.3,1.5-4.3-9.9-4.3,1.3-9.8,8.6-11.4-3h-6.9l-5.8-8.9h0Zm216.6,12.7v1.5l-1.5,2.8v2.8l-4.1,2.8-7.1,5.6-4.3,18.4,2.8,2.8,17.1,7.1,19.7-1.5,1.5-2.8-1.5-1.3-2.8-2.8-11.3-9.9-2.8-5.6,4.1-11.4h3l-8.6-8.4-4.2-.1h0Z" transform="translate(-470.29 -95.64)"/></svg>