<svg id="Capa_1" data-name="Capa 1" xmlns="http://www.w3.org/2000/svg" viewBox="0 0 412.85 261.78"><defs><style>.cls-1{fill:none;stroke:#8b0000;stroke-miterlimit:10;stroke-opacity:0.75;stroke-width:3px;}</style></defs><title>conca-barbera</title><path id="conca-barbera" class="cls-1" d="M752.74,173l-7.1,1.5-2.8,4.1h-11.3l1.3,8.6,5.8,2.8v5.6l-8.6,1.3-5.6-1.3-2.8-4.3-8.4-4.1-38.3-3-5.6-2.8-8.4,5.8-15.6-7.1-8.6,4.1-2.8-4.1-4.1,1.3-4.3,2.8-8.4-2.8-8.6,1.5-4.1,8.4-2.8,11.4-12.8,4.1-15.6,2.8-1.5,2.8,5.8,1.5v1.3l-1.5,1.5h-5.6l1.3,1.5h2.8l-1.3,11.3-1.5,1.3h-2.8v4.3l1.5,7.1,5.6,4.1,2.8,12.8h-5.6l-12.8,5.6L542,269v2.8l-7.1,2.8-8.4,2.8-1.5-6.9-4.1-1.5-4.3-1.3-7.1-3-8.4-6.9-5.6-1.5-7.1-5.6-9.9-7.1-1.3,2.8,8.4,11.4-2.8,2.8-5.6,4.1,4.3,5.8,8.4,6.9,8.4,2.8,5.6,4.3-9.9,5.6-3.1,9-2.8,1.3-5.6,1.5-2.8,9.8-2.8,8.6h-5.6v4.1l-2.8,7.1h-2.8l-5.8,5.6-9.8-1.3,1.3,4.1-7.1,5.6v3l-1.3,1.3-7.1-2.8-4.3,7.1-2.8,6.9-1.3,4.3-7.1,5.6V378h2.8l-4.1,4.3-5.8,2.8h-4.4l-9.9,1.3h-14.1l-5.8,1.5,1.5,5.6v14l19.9,7.1h15.4l8.6-7.1,6.9-2.8,3-9.8,5.6-5.8,2.8-4.1,2.8,1.3,5.6,4.3-1.3,4.3-1.5,9.8V409l7.1-1.5,5.6-4.1,1.3,4.1,3,1.5h4.1l2.8-1.5,8.6,4.3,11.3-1.5,1.3,4.3v1.5l25.5,5.6,2.8,2.8-1.3,2.8,6.9,1.5,11.4,2.8,5.6-2.8h4.3l5.6-3,9.9-4.1,5.6-2.8,8.4-1.5,2.8,4.3h1.5l5.6-12.8,12.8-8.4,2.8-2.8,2.8-5.8,1.3-2.8V385l3-17.1,6.9-1.3v-4.3l1.5-4.3h9.9l-1.5-2.8,7.1-9.9-1.5-5.6,8.6-4.1,6.9-7.1h2.8l2.8-5.6,4.3-2.8,7.1-2.8,1.3-5.8,2.8-2.8,3-2.8,5.6-6.9,1.3,1.3,1.5,4.3v14.1l11.3-2.8,7.1,2.8,9.9-2.8,4.1-5.6-1.3-4.3,9.9-5.6,14.1,11.3,4.3-4.1,8.4-7.1h8.4l8.4-4.3,4.3-5.6,2.8-4.1v-5.8l1.5-1.3,4.1,1.3,5.6-6.9,4.3-1.5-1.3-7.1h-5.8l-4.1-2.8h-5.6v-1.3L763,254l-12.8-2.8-1.3-2.8-1.5,1.3-4.1-2.8-5.6-2.8-1.5-4.1-2.8-1.5v-5.6l1.3-5.6,4.3-8.4,15.6,2.8,7.1-7.1,8.4,2.8v-11.3l-1.3-4.3-8.6,1.5-2.8-4.3,17.1-12.8L752.74,173h0Z" transform="translate(-377.3 -171.39)"/></svg>