<svg id="Capa_1" data-name="Capa 1" xmlns="http://www.w3.org/2000/svg" viewBox="0 0 221.22 130.65"><defs><style>.cls-1{fill:none;stroke:#8b0000;stroke-miterlimit:10;stroke-opacity:0.75;stroke-width:3px;}</style></defs><title>garraf</title><path id="garraf" class="cls-1" d="M424.07,339.27l1.21-1.05,0.33-1.91,11.25-1.14,4.3-3,2.8-1.3,2.8-1.5,4.1-2.8,7.1-1.3,7.1-1.5,4.1-1.3,3.2,1.29h3.9l-0.07-3.84,4.37-1.76,1.3,5.6h1.5l1.16-2.09,0.08-2.25,1.56-2.76h7.1l2.8-1.3,4.1,1.3,1.5-1.3H503l1.5-1.5h2.8l4.3-2.8,2.8,1.5,2.8-1.5,0.58,1.93,1.88-1.87,0-2,1.82-.91,1.3-1.3,2.8-1.5,7.1-2.8h2.8l2.8-1.5,2.8-1.3,1.5,1.3v1.5h1.3l1.5-1.5,1.3,1.5,0.86-1.49,1.23-1.07,6.51,2.57,1.3-1.5,2.8,1.5,1.5-1.5h2.8l4.3,1.5,2.8-1.5,1.3-2.8,1.68,0.51,0.74,1.23a0.7,0.7,0,0,0,1,.21l1-.72a0.67,0.67,0,0,0,.05-1.06l-0.94-1.89,1.08-.62,0.56-1.77,9-2.78,5.6-1.5,4.1-1.3,2.8-3h1.5l2.8-1.3,2.8-1.5,11-4.24,0.49,1.44-0.52,2,1.4,0.7,3.22-4,4.3-1.5,5.6-1.3-4.3-8.6v-4.1l2.8-2.8-11.3-8.6-1.3-2.8-5.8,1.5-5.6,7.1-2.8-1.5-2.8,4.3-9.9-2.8h-1.3v2.8h-9.9l-1.5-1.5,2.8-12.8-15.6-5.6-2.8-9.9,1.5-6.9-1.5-1.5-5.6,2.8-8.4-4.3-2.8,1.5-5.6-2.8-9.9-1.5h-5.6l-2.8-1.3-7.1-2.8h-4l-4.1,2.8-4.3,4.1,1.3,8.6-4.1,2.8v4.1l-4.3,1.5-5.6,2.8-1.5,1.5-2.8,1.3-6.9-4.1-14.3-3-5.7,4.4,1.5,4.3-2.8,6.9-4.3,5.8-2.8,5.6v1.3l-9.9,11.4-2.8,4.1-1.5,4.3-1.3,5.6-17.1,7.1-2.8,2.8,2.8,5.6-1.3,8.4,2.8,2.8,4.1,8.6-1.3,1.3-2.8-4.1h-4.3v8.4L417,338l1.5-1.5,3.56-.63L421.27,338l-0.6,3.45a0.09,0.09,0,0,0,.14.09Zm174.67-54-1.5,3-1.3,1.3h1.3Z" transform="translate(-412.34 -212.37)"/></svg>