<svg id="Capa_1" data-name="Capa 1" xmlns="http://www.w3.org/2000/svg" viewBox="0 0 319.73 306.97"><defs><style>.cls-1{fill:none;stroke:#8b0000;stroke-miterlimit:10;stroke-opacity:0.75;stroke-width:3px;}</style></defs><title>garrotxa</title><path id="garrotxa" class="cls-1" d="M515.14,152.08l-3,8.4,3,5.6,2.8,11.4-4.3,14.1,17.1,1.5,6.9,4.1-8.4,2.8-5.6,2.8H518l-14.3-2.8-2.8-4.1v-15.6l-7.1,2.8-9.8-1.5,2.8,12.8-15.6,8.4-7.1-4.1-2.8,2.8-12.8-7.1-1.5,4.3-2.8-1.5-6.9-1.3-5.8,4.1v5.8l-12.6,4.1-8.6,5.6,1.5,2.8,2.8,7.1v1.5l-5.6,2.8-9.9,4.1-7.1,1.5-4.1,2.8v4.3l1.3,6.9,8.4,2.8,7.1-1.3,4.3-1.5-5.6,12.8h-2.8l-7.1,2.8-14.3,1.5,4.3,4.3,5.6,4.1,1.5,7.1L399,289v15.6l7.1-4.3v4.3l4.1,1.3,5.6,2.8v2.8l-6.9-1.3-1.5,2.8-11.3,4.1-2.8,5.8-2.8,4.1,1.3,8.6,9.9,6.9,5.6,4.3,5.6,2.8-4.1,5.6-1.5,1.5,1.5,6.9,2.8,5.8h12.8l1.3,1.3-4.1,9.9,1.3,1.5v1.3l5.6,8.4,2.8,4.3v2.8l7.1,7.1,4.3,1.3,4.1-1.3,12.8-8.6,1.5-4.1,4.3,1.3,6.9,2.8,2.8,3,1.5,5.6,4.3-2.8h8.4l4.1,5.6v2.8l4.3,5.6,7.1,5.6,4.1,7.1,11.4,11.3,6.9-2.8,1.5-6.9,4.3-5.8,6.9,1.5,5.8,4.3,5.6,2.8,6.9-1.5,1.5-5.6,4.3-5.6v-1.5l4.1,4.3-2.8,4.1,2.8,4.3,7.1,9.9,1.5,2.8,8.4,1.5,4.1,6.9,2.8,1.5,1.5-4.3h2.8l5.6,2.8,8.6-1.3-7.1-8.6-7.1-5.6-1.3-5.6-5.8-1.3v-8.6l4.3-5.6v-5.6l-1.5-2.8,1.5-7.1-2.8-7.1v-5.6l-1.5-5.6L592,385l7.1-4.3,2.8-7.1,2.8-11.3h2.8l-1.3-5.6,7.1-5.6-1.5-8.6-4.3-2.8,3-7.1-3-5.6v-6.9l7.1-3v-15h9.9l1.5,1.3-2.5,2a0.29,0.29,0,0,0,.22.52l16.38-2.49h2.8l11.3-11.3,9.9,4.1,15.6-4.1,7.1-2.8h1.3l-2.8-8.6v-5.6l2.8-2.8,5.8-5.6-2.8-8.4,2.8-5.8-7.1-9.8,1.3-12.8-15.4-7.1-12.8-4.3-1.5,3-1.3,8.4-4.3,5.6-2.8-5.6-8.4,1.3-3-2.8,1.5-5.6,2.8-5.6-2.8-5.6-14.1-1.5-4.3,1.5,8.4,6.9h-9.9V220l-1.3,4.3-1.5-1.5v-4.3l-5.6-1.3v-2.8l2.8-4.3-2.8-14.1-4.3-8.6-8.4-1.3-11.3,1.3,1.3-6.9v-8.6l-6.9,3-2.8-1.5-2.8-2.8,1.3-2.8-15.6-9.9-8.4,1.5-1.5,2.8-9.9,4.1-5.6-4.1-9.9-9.9-11.9-.2h0Z" transform="translate(-375.95 -150.56)"/></svg>