<svg id="Capa_1" data-name="Capa 1" xmlns="http://www.w3.org/2000/svg" viewBox="0 0 359.8 280.1"><defs><style>.cls-1{fill:none;stroke:#8b0000;stroke-linejoin:round;stroke-opacity:0.75;stroke-width:3px;}</style></defs><title>garrigues</title><path id="garrigues" class="cls-1" d="M549.44,142l-21.2,14.1-4.3-7.1v-2.8l-4.3-1.3-11.3,9.9-1.5,1.3h-5.6l1.5,1.5-9.9,6.9-2.8-2.8,1.3-1.3-4.1-2.8-1.5,2.8-4.1-1.5-14.3-2.8-8.4,4.3-1.5,5.6-6.9-4.3-1.5,1.5,1.5,5.6-2.8,8.4h-8.8l-5.6-1.3-1.3,9.9,2.8,1.3-5.6,5.6h-1.5l-1.5,2.8h-2.8l-11.3,9.9-12.8-7.1-7.1,18.6-4.1,5.6,2.8,9.8-4.3,12.8-12.8-2.8-1.3-1.3-2.8,5.6-2.8,1.3-1.5,14.3-4.3,1.3h-11.2l-7.1,5.8-4.1-2.8-1.5,4.1-2.8,17.1,4.3,9.9L340,306l-4.1,12.8-8.6,5.6-4.1,1.3-2.8,1.5-12.8,11.3v14.3l-2.8,5.6,2.8,5.6-1.5,14.3-4.1,14.1v2.8l2.8,8.4,8.4,11.4,8.4,2.8,7.1,1.3h7.1l5.6-5.6,8.4-2.8,8.4-1.5,8.6-6.9,6.9,1.3h2.8l4.3-2.8,4.3-1.3,5.6,1.3,4.1-1.3,5.8,1.3L409,398l15.6-1.3v-4.3l2.8-5.6,2.8-4.3,5.6-1.3,2.8,1.3,9.9,2.8,7.1,2.8h2.8l9.9,1.5,5.6-1.5,4.3-21.2,2.8-4.1,1.3-4.3,9.9-2.8,1.5,7.1,11.3,16.9,15.6-2.8,9.9-4.3,4.1-1.3,5.8-1.5h14.1l9.9-1.3h4.1l5.8-2.8,4.1-4.3h-2.8v-7.1l7.1-5.6,1.3-4.3,2.8-6.9,4.3-7.1,7.1,2.8,1.3-1.3v-3l7.1-5.6-1.3-4.1,9.8,1.3,5.8-5.6h2.8l2.8-7.1v-4.1h5.6l2.8-8.6,2.8-9.8,5.6-1.5,2.8-1.3,2.8-8.6,9.9-5.6-5.6-4.3-8.4-2.8-8.4-6.9-4.3-5.8,5.6-4.1,2.8-2.8-8.4-11.4v-5.6h-12.8l-4.3-2.8-1.3-4.1-17.1-4.3-5.6-1.5,4.3-12.8,2.8-5.6-2.8-8.4,2.8-1.5-1.5-2.8-4.1-5.6-5.8-4.1-2.8-4.3-4.1-2.8,2.8-4.3v-6.9l-12.8-4.3-11.3-1.5-4.3-2.8h-1.5l-3.3-2.2h0Z" transform="translate(-300.54 -140.48)"/></svg>