<svg id="Capa_1" data-name="Capa 1" xmlns="http://www.w3.org/2000/svg" viewBox="0 0 254.14 343.59"><defs><style>.cls-1{fill:none;stroke:#8b0000;stroke-miterlimit:10;stroke-opacity:0.75;stroke-width:3px;}</style></defs><title>girones</title><path id="girones" class="cls-1" d="M782.44,112.48l-5.6,1.5-7.1,4.1h-4.3v4.3l-8.4,11.3,2.8,5.8-1.3,4.1v9.9l-2.8,5.6-4.3,1.5-1.5-1.5,1.5-2.8-1.5-1.3-2.8,2.8-4.1,1.3-2.8-5.6-1.5-1.5-7.1-2.8,1.5,5.8-2.8,2.8-2.8,4.1-1.5,2.8v5.8l-11.3,1.3,2.8,9.9-12.8,4.3h-9.9l-1.3,2.8-1.5,2.8-14.1-11.4-1.5-6.9,1.5-4.3-1.5-1.5h-7.1l-8.4-14.1-7.1-1.5-11.3-5.6v-5.6l-5.6-2.8-7.1-2.8h-14.1l-5.6,8.4-4.3-1.3h-17l-11.3-2.8H576l-2.8-1.5,1.5,5.6v5.6l2.8,7.1-1.5,7.1,1.5,2.8v5.6l-4.3,5.6v8.6l5.8,1.3,1.3,5.6,7.1,5.6,7.1,8.6v6.9l-3,1.5,1.5,9.9v2.8l2.8,4.1,1.5,3,1.3,9.8,2.8,2.8-1.3,5.8-1.5,2.8-5.6,1.3,1.5,5.6,6.9,7.1H607l11.4,11.4,2.8,4.1-1.5,5.6v2.8h19.9l14.1-2.8,9.9,12.8,7.1,5.6,7.1,4.3,8.4-7.1,7.1-1.3h9.8v2.8L698.92,310l5.72,4.18-1.5,8.4v5.6l-4.1,9.9,1.3,2.8v12.8l3.33,10.82,2.1-3.15,6-4.87,6.9-1.3,4.3,7.1,7.1,4.1h4.1l-2.8,18.4-5.6,9.9,2.8,7.1h9.9l-1.3-4.3h5.6v7.1l-8.6,1.3-1.3,2.8-2.8,3-1.5,5.6,5.6,8.4,8.6,11.3,24,1.5,7.1,2.8,8.4,11.3,8.4-4.1,7.1-7.1,7.1-5.6-4.3-11.4-7.1-2.8-6.9-21.2-3-12.8,7.1-1.3,8.4,1.3h9.9l2.8-4.1-5.6-15.6L802,358l-9.9-8.4,1.3-5.8,4.3-5.6,4.3-5.6-11.4-8.4-11.3-5.6-14.3-4.3-6.9,1.5-7.1-7.1,12.8-8.4L761,286l9.9,1.5h2.8l2.8-4.3,4.1-1.3,9.9-1.5h4.3V272h1.3l-1.3-17.1,2.8-7.1,11.3-1.3,7.1-4.3v-2.8l7.1-5.6-4.3-8.4-4.3-4.3-6.9,1.5H802l-4.3-5.6,4.3-21.4-3-2.8,1.5-1.3,7.1-4.3,2.8,1.5h7.1l1.3-2.8-2.8-15.6-2.8-5.8,1.3-2.8,3-8.4-4.3-1.5-1.5-4.1-1.3-5.6-7.1-11.4-4.3,1.5,1.5-15.6-5.6-1.5-9.9-1.3-2.6-1.3h0Z" transform="translate(-570.89 -110.88)"/></svg>