<svg id="Capa_1" data-name="Capa 1" xmlns="http://www.w3.org/2000/svg" viewBox="0 0 382.19 270.92"><defs><style>.cls-1{fill:none;stroke:#8b0000;stroke-miterlimit:10;stroke-opacity:0.75;stroke-width:3px;}</style></defs><title>maresme</title><path id="maresme" class="cls-1" d="M570.54,257.28l1.5-2.8,4.1-3,1.5-1.3,17.1-7.1,8.4-4.1,12.8-5.8,4.1-2.8,5.6-1.3,24.2-9.9,22.5-8.4,7.1-4.3,4.3-1.3,4.1-4.3h1.5l12.8-7.1,5.6-2.8,14.1-1.3,1.5-1.5,1.5-1.5-8.6-14.1v-1.5l-5.6-12.6,8.4-8.6,1.5-8.4-4.3-26.8,8.6-5.6v-4.3l-24.2,1.3-13.9-10.2h0l-15.6,15.6-22.7,12.8-2.8-3-8.4-4.1-4.3,4.1-4.1,4.3-8.6,22.7-9.8-1.5-11.4,7.1,4.3,5.6,1.3,1.5-6.9,5.6-2.8,9.9h-1.5L585,175l-14.3,2.8-6.9-1.3-4.3,4.1-2.8,5.6-2.8,7.1-2.8,1.5,1.3,2.8-1.3,4.1-2.8,3-5.8,2.8h-2.8l-5.6,1.3H530l-3,1.5h-4.1l-3.9-5.4-1-3.08-3.5,2.88-4.3-1.5h-8.4l-4.3,1.5-1.5-1.5-4.1,2.8-1.5-2.8h-4.1l-5.8,1.5-2.8-1.5h-4.1l-1.5,1.5-2.8,2.8H468l-7.1,11.3-4.3,4.3-1.3,1.3h-2.8l-5.8,7.1h-2.8v2.8l-5.6,1.5-12.8,19.7-11.3,12.8-2.8-1.5v12.7h-1.5l-1.3,4.3,1.3,1.5-5.6,4.1-7.1,5.6,2.8,2.8,5.8,1.5v4.3l-4.3,6.9-5.6-1.3-5.6,4.1h-1.5l-16.9-1.3-8.6,4.1-2.8,5.8h-2.8v2.8l-5.6,5.6-1.5,2.8-4.1,2.8,9.9,17.1,6.9,9.8,4.3-2.8h2.8l1.5-1.3,6.9-4.3,2.8-1.3,1.5-1.5h1.3l5.8-2.8h4.1l-1.3,1.5-1.5,1.3H393l1.3-1.3,4.3-3,2.8-1.3,2.8-1.5h4.3l2.8-1.3,4.1-1.5h3l2.8-1.3,2.8-1.5h1.3l2.8-1.3,1.5-1.5,1.3-1.3h1.5l1.5,1.3h1.3l1.5-1.3v-1.5H438l1.5-1.5,2.8-1.3,2.8-1.5,1.3-1.3,4.3-2.8h1.5l1.3-1.5H455l2.8-2.8h1.3l1.5-1.3,1.3-1.5,2.8-4.3,3-1.3,1.3-1.5,2.8-1.3,1.5-1.5h1.3l7.1-5.6,1.5-1.3,2.8-1.5h1.3l1.5-1.5h1.3v-1.3l1.5-2.8,1.3-1.5,2.8-1.3,1.5-1.5v-1.3l2.8-1.5,2.8-2.8h2.8l5.6-2.8,7.1-1.5,1.5-1.3h2.8l1.3-1.5h1.5v-1.3h1.3l1.5-2.8h1.5l1.3-1.5h1.5v1.5l-1.5,1.3,2.8-1.3v-1.5l2.8-1.3h1.5l4.1-4.3,7.1-2.8,11.3-7.1,5.8-1.3V253h4.1l-1.3,4.3h1.3Z" transform="translate(-344.54 -93.9)"/></svg>