<svg id="Capa_1" data-name="Capa 1" xmlns="http://www.w3.org/2000/svg" viewBox="0 0 244.8 202.2"><defs><style>.cls-1{fill:none;stroke:#8b0000;stroke-linejoin:round;stroke-opacity:0.75;stroke-width:3px;}</style></defs><title>moianes</title><path id="moianes" class="cls-1" d="M482,193.68h-8.5l-11.3,1.4-5.3-4.1-3.2-.1-5.7-5.7-9.9-2.8-1.4,4.2,2.8,9.9-1.4,11.3-8.5,1.4,7.1,2.8,1.4,4.2-1.4,2.8L424,233.08l-11.3,5.7-1.4,9.9,1.4,2.8,18.4,4.2,5.7,11.3,5.7-1.4,1.4,2.8h2.8l4.2,7.1,2.8,5.7-5.7,4.2h-7.1l-28.3,9.9-9.9,4.2-14.1,4.2-14.1,2.8-15.6,4.2H366v2.8h2.8v9.9l-1.4,1.4,2.8,1.4,2.8,7.1,4.2,5.7h5.7l17-4.2,12.7-4.2,7.1,4.2,5.7,4.2,4.2,2.8v12.7l7.1-1.4,1.4,5.7,4.5,17,6.8-7.1,2.8-1.4,7.1,2.8,5.9,1.6,8.2-.2h5.7l5.7,1.4,4.2,2.8,7.1-1.4,1.4-4.2,8.5-4.2,9.9,5.7,5.7-2.8,5.7,1.4,18.4,1.4,14.1-4.2,1.4,1.4,2.8,1.4,1.4,5.7,1.4,2.8,8.5-2.8,2.8-1.4,1.4,2.8v2.8l17-5.7,1.4,4.2,1.4-2.8-1.4-11.3,2.8-5.7-3.9-2.6-2.8-3-3.2,2.8-4.2-1.4-6.8,2.9-5.9-1.5H564l-6.9-12.6,4-7.2v-7.1l0.3-16.8-2.8-7.1v-4.3l-0.3-5.7-5.7-4.2,2.8-2.8,5.7-9.9,7.1-24-4.2-2.8-1.4-7.1-1.4-14.1-5.7,8.5-14.1-4.2-2.8,2.8h-5.7l-4.2-5.7-4.2-1.4-4.2-8.5,1.7-7-1.7-2.9h-2.8l-1.4-4.2,6-1.3,5.3-1.5,1.4-11.3h2.8l-4.2-8.5-2.5-4.2-3.1,2.8-14.1,5.7h-11.3l-2.8-4.2-6.8,1.5Z" transform="translate(-357.44 -179.38)"/></svg>