<svg id="Capa_1" data-name="Capa 1" xmlns="http://www.w3.org/2000/svg" viewBox="0 0 522.55 254.73"><defs><style>.cls-1{fill:none;stroke:#8b0000;stroke-miterlimit:10;stroke-opacity:0.75;stroke-width:3px;}</style></defs><title>montsia</title><path id="montsia" class="cls-1" d="M530.54,318m0.6-2.8,1.5-1.5,3.36-1,3-1,3.84-1.52,8.5,3.67,5.17-1.16,6,0.1,6.87-.39,4.3-1.5,4.1-1.3,7.1-1.5,5.6-4.1,8.6-2.8,18.4-1.5H630l7.1,1.5v4.1l-1.3,2.8-8.6,14.3-14.1,19.7-1.5,1.5-4.1,2.8h-9.9l-2.8-1.5-1.5,1.5-8.4-4.3-5.6,1.5h-4.4l-2.8,4.1-4.1,1.5-11.4,2.8h-2.8l-5.6-1.3-1.58-1.58a1.59,1.59,0,0,0-2.72,1.13v7.35h-4.1l-1.5-1.3-1.3-1.5h-1.5v1.5l-1.6,1.8-4.1-1.3-0.55-.14a1.52,1.52,0,0,0-1.76,2.12l2.31,4.92,2.8,4.3,2.8,5.6,5.6,4.3,5.6,1.3,7.1,1.5,5.6-1.5,7.1-1.3,12.8-2.8,5.6-2.8,11.3-5.6,5.8-4.3,4.1-5.6,7.1-9.9,28.3-42.4,4.1-4.3,5.8-5.6,12.8-7.1,9.8-4.3,28.3-12.6,9.9-5.8,7.1-5.6,6.9-5.6,5.8-9.9,2.8-8.4,2.8-5.6,1.3-2.8h-15.6l-16.9,4.1-12.8,7.1-17.1,9.9h-11.3l-16.9-11.3-5.8-3-39.6-5.6h-4.1l-5.8-2.8-4.1-4.1-11.4,2.8-12.8,2.8-21.2,8.4-9.9-2.8-14.1-8.4-2.8-15.6-5.6-17.1-2.8-1.3-7.1,6.9-7.1-1.3-4.1-2.8-2.8,2.8-5.8-1.5-2.8,2.8-11.3,4.3H456l-9.9,1.3-5.6-1.3h-18.2l-7.1-1.5-14.3-2.8-21.2-18.4v-1.3l-28.3,2.8-8.4-4.3-2.8,9.9h-4.3l-5.6,5.6-9.9-5.6h-5.6l-1.3-4.3-1.5-2.8v-9.9l-5.6,1.5-1.5,2.8-1.3-1.3-1.5-3-1.3-2.8,4.1-1.3-2.8-7.1-4.1-1.3-10.2-1.6h0l-14.3,1.5v2.8l-2.8,8.4-2.8,1.3h-2.8l-8.4-1.3-8.4,9.9-1.5-1.5h-1.3l-1.5,2.8-2.8,4.3h-1.5l-1.3-1.5-1.5-2.8-1.3,1.5-4.3-1.5-1.3,7.1v5.6l-3-1.3-2.8-4.3-2.8-2.8h-1.3V184l2.8,4.3v2.8l2.8,8.4,11.3,5.8,4.3-4.3,2.8,7.1,7.1-1.5,1.3-2.8,4.3-1.5,2.8-1.3h7.1l-1.5,8.4,7.1,21.2,4.1,1.5,5.8-2.8,5.6-2.8h2.8l4.3,2.8,2.8,1.3,4.1,8.6,8.6,4.1,1.3,4.3-5.6,8.4-1.5,2.8-4.1,1.5H299l-4.1,11.3v9.9l-1.5,1.3,1.5,5.8v1.3l2.8,2.8H299l1.5,4.3,1.3,4.3,7.1,4.1h1.5l2.8-1.3h1.3l1.5,2.8,8.4,5.6,12.8,5.6,11.3,4.3,22.7,1.3h7.1l2.8,1.5L388,328l3,4.1,1.3,4.3,9.9,7.1,7.1,7.1h8.4v1.3l-1.5,1.5-1.3,1.3-1.5,2.8-1.3,5.6,1.3,7.1v9.9l7.1,5.6,8.4,2.8,12.8,7.1,9.9,4.3,7.1,2.8,6.9,1.3,2.8,1.5,1.5-5.6,4.3-9.9v-2.8l6.9-9.9,1.5-2.8,4.3-11.4,5.6-4.1h1.3v-1.5l9.9-9.9,15.6-18.4,4-1.84,4.5-.67,3.17-1.33-2.33-2-0.93-3.86V318l2.8-1.3Zm7.1-2.3" transform="translate(-218.64 -152.96)"/></svg>