<svg id="Capa_1" data-name="Capa 1" xmlns="http://www.w3.org/2000/svg" viewBox="0 0 534.74 410.31"><defs><style>.cls-1{fill:none;stroke:#8b0000;stroke-miterlimit:10;stroke-opacity:0.75;stroke-width:3px;}</style></defs><title>noguera</title><path id="noguera" class="cls-1" d="M642.82,58.22l-2.8,6.9-2.8-1.3-1.3,1.3-4.3-4.1-2.8,4.1-7.1,11.4-2.8,8.4-4.1,5.6-5.8,4.3-6.9,12.8-1.5,5.6-5.6,8.4-2.8,1.5-7.1,6.9,8.4,9.9,2.8,7.1-6.9,18.4-5.6,1.5v-18.6l-4.3-9.8-17.1,1.3-11.3,2.8-5.6-2.8-8.4,11.4h-8.6l-21.2,1.3-5.6-1.3-7.1-3-19.7,1.5-17.1-12.8-4.4-2.4-1.5-2.8v-1.5l-11.3,4.3-14.3,1.5-11.3-4.3-21.2-2.8-5.6-2.8-19.9,4.1-8.4-1.3-8.6-5.6L350,119l-19.9-1.5-12.8-5.6-9.9-8.4-2.8-8.4L299,105l-2.8,18.4-7.1,4.1-4.1,12.8,1.3,4.3,1.5,7.1h2.8l1.5,2.8-5.8,11.3-6.9,4.3L280,181.25l-3.38.17-3-9.9-14.1,4.3v4.1l-4.3,4.3-1.3,9.9-4.3,7.1-8.4-5.8-5.6,2.8L230,204l-8.6,11.3-2.8,11.3,2.8,1.5,5.6,1.3,4.3,3,18.4,8.4h-5.6l-2.8,4.1,2.8,7.1-5.6,21.2,9.9,8.6-2.8,6.9-8.6,2.8h-4.1l-4.3,2.8,1.5,4.3-1.5,7.1-1.5,8.4v15.6l5.8,17.1,1.3,2.8,7.1,11.3,5.6,5.6,4.3,11.4L254,382l2.8,4.3,4.3,5.6,5.6,5.6,6.9,11.4,12.8,12.6-1.3,5.8,5.6,5.6,4.3,6.9,5.6,4.3,5.6,12.8,5.6-4.3,2.8,4.3,4.3-5.6,1.3-1.5,5.8,2.8,8.4-8.4,2.8-5.6,8.4,9.9,5.6,8.4,2.8,8.4,8.6-1.3v-9.9l12.8-2.8h11.2l1.5-8.4,14.3-1.4H408l2.8,4.3,11.4-2.8,5.6-11.4-8.6-2.8,8.6-12.8,6.9,1.5,12.8-1.5v2.8h14.3l1.3,18.4,8.6,12.8,8.4,4.3h7.1l8.4-2.8,7.1,1.3,2.8-2.8,2.8-4.1,2.8-19.9-4.3,1.5-2.8-4.3-8.4,2.8-4.3-11.3,2.8-1.5,9.9-8.4,1.5-2.8,9.8-15.6v2.8h15.5l4.3-5.6h4.3l8.4,8.4,17.1-18.4,16.9-31.1,1.5-2.8L579,341l5.6-9.8,11.3-22.7,4.3,1.3-1.3,3h8.4v2.8l4.1,1.3,1.5,12.8v7.1l-7.1,5.6-6.9-5.6-1.5,5.6-1.5,5.6,1.5,4.3,15.6,4.1,1.5,1.5,5.6,1.3,4.1-9.8,4.3-4.3h5.6l-2.8,5.6-8.4,8.4,1.3,8.6v8.4l5.8,1.5,11.3,4.1,4.3-5.6,9.8-9.9,5.8-4.1,8.4-11.4,6.9,2.8,8.6-6.9,6.9-9.9,3-4.3-1.5-4.1,15.6-17.1,1.5,1.5,2.8-3,1.3-2.8,9.9-8.4,2.8-5.6v-5.6l4.3-5.6,2.8-8.6-1.5-9.8,5.6-7.1-1.3-4.3,9.9-14.1,2.8-9.9-2.8-5.6-11.4-2.8v-2.8L733,218l-1.3-1.3-18.4,14.1-5.8,1.5-4.1,1.3,2.8-4.3,8.4-28.1-2.8-3v-12.7l1.5-1.5,2.8-8.4L709,170l-4.3-1.5,1.5-1.3-8.4-12.8-1.5-2.8,2.8-9.9-4.1-11.4,5.6-2.8-1.5-9.9-2.8-2.8V112l-9.9-2.8v-6.9l-2.8-3-2.8,1.5-4.3-1.5-4.1-9.8-8.4,2.8-2.8-1.5-1.5,1.5-2.8,2.8h-1.5l-5.6,1.3v-5.6L647,76.72l1.5-5.6,1.3-8.6-1.3-4.1-5.7-.2h0Zm-84.7,247.5,1.3,1.3,7.1,1.5v2.8l1.5,4.3h2.8l1.3,5.6,1.5,7.1-8.4-1.5-3,7.1-11.3,4.1-4.3,5.6-2.8-2.8v-5.6H541l2.8-9.9L541,324l1.5-9.9,4.1-4.3,4.3,3,4.3-3V307l2.9-1.3h0Zm-49.5,77.9,1.3,1.3-2.8,11.4-2.8,4.1-2.8,4.3-4.3,4.3-5.6,4.1v-1.3l1.5-2.8,8.4-7.1,4.3-9.9,2.8-8.4h0Z" transform="translate(-216.89 -56.68)"/></svg>