<svg id="Capa_1" data-name="Capa 1" xmlns="http://www.w3.org/2000/svg" viewBox="0 0 371.25 427.03"><defs><style>.cls-1{fill:none;stroke:#8b0000;stroke-miterlimit:10;stroke-opacity:0.75;stroke-width:3px;}</style></defs><title>osona</title><path id="osona" class="cls-1" d="M710.64,409.48l5.6,4.1,1.5,5.6v4.3l2.8,7.1-1.3,16.9v7.1l-3,7.1,5.8,12.8h9.8l7.1,1.3,5.6-2.8,4.3,1.5,4.3-3,2.8,3L760,473h5.6l1.5,1.5,5.6-3-2.8-2.8-2.8-1.3,2.8-5.6-1.3-4.3-5.8-2.8-1.3-5.6,1.3-4.3,1.5-2.8v-2.8l-2.8-4.3v-8.4l5.6-8.4,5.6-7.1,1.86-4.71,0.94,3.41,2.8,2.8,12.8,5.6,1.5-4.3,8.4-4.1,11.3,6.9,5.8,4.3,5.6,21.2h8.4l12.8-5.6v-8.4l1.5-5.8-3-5.6,5.8-4.1,8.4-12.8,2.8,1.3,2.8,2.8,14.1,2.8,4-1.91-2.46-2.19,1.5-2.8-3-4.3-1.3-5.6,1.3-7.1,4.3-5.6,4.3-2.8,1.3-1.5-2.8-5.6v-2.8l-1.3-2.8,5.6-4.3h7.1l4.1-6.9,4.3-1.5,2.8-8.4v-8.4l-5.6-4.3v-1.5l1.3-5.6,5.6-2.8,4.3-4.1,5.6-4.3,1.5-2.8,7.1-7.1v-9.9l-4.3-11.3h-7.1l-1.3-2.8-2.8-1.5-4.3-1.3h-4.3l-1.3,2.8-4.3-5.6,2.8-7.1v-4.3l-4.1-5.6h-4.3V249l7.1-4.3,2.8,2.8,4.1,1.5,1.5,1.3h2.8l1.5,1.5,4.1-2.8h8.4l-1.3-5.8,4.3-2.8v-4.1l5.6-2.8-12.8-8.6,5.6-2.8,1.5-4.1,1.3,2.8,1.5,2.8,4.1-2.8,8.6-2.8-1.5-4.3,4.3-2.8-7.1-2.8v-8.4h2.8l2.8-3,2.8-5.6-1.3-1.3L932.24,177l-2.8-5.6,6.9-4.3,2.8-2.8v-2.8l-4.1-5.6h-8.4l-4.3,2.8-1.5-5.6-2.8-3-6.9-2.8-4.3-1.3-1.5,4.1-12.8,8.6-4.1,1.3-4.3-1.3-7.1-7.1v-2.8l-2.8-4.3-5.6-8.4v-1.3l-1.3-1.5,4.1-9.9-1.3-1.3h-12.8l-2.8-5.8-1.5-6.9,1.5-1.5,4.1-5.6-5.6-2.8-5.6-4.3-9.9-6.9-1.3-8.6,2.8-4.1,2.8-5.8,11.3-4.1,1.5-2.8,6.9,1.3v-2.8l-5.6-2.8-4.1-1.3V53l-7.1,4.3h-1.5l-9.8,2.8-5.8,1.3-5.6,2.8-2.8,1.5h-5.6l-7.1,4.1-4.1-4.1-5.8-2.8-4.1,1.3-5.6-1.3h-5.61l-0.2,1.3,7.1,4.3,1.5,2.8h4.1l-2.8,2.8-1.3,2.8,4.1,1.5,2.8-2.8,1.5,1.3-5.6,8.4h-4.3l-5.6-1.3-2.8-2.8-4.3,2.8-4.1,2.8-9.9,1.5-2.8-5.8-18.4,2.8-1.5,1.5-1.3,4.3,1.3,5.6L736,98l-2.8-2.8-1.5,4.3H722v-5.6l-1.5-2.8-16.9-1.5-11.4,4.3-5.6,8.4-8.4,8.4-5.6-2.8-9.9-7.1-1.5-2.8v-2.8l-1.3-1.3v-8.6l-4.3-4.1L650,84l-9.9-1.5v2.8l-5.6,3-0.37,1.3h3.17l2.8,4.3-1.3,4.1-4.3,4.3h-9.9l2.8,12.8-5.6,4.3,11.3,4.1-1.26,8.41a0.14,0.14,0,0,1-.24.08l-4.1-4.19-8.4,2.8-1.5,2.8,2.8,7.1-6.9,2.8-5.6-14.3v-2.8l-7.1,1.5-5.6,9.9,1.3,9.8-1.3,18.4-2.8,12.8-4.3,4.3,1.3,2.8-1.3,2.8h8.4l7.1,1.5v2.8l-4.3,8.4-5.6,9.9-1.3,7.1,1.3,4.1-5.6,4.3h-1.5l-1.3,5.6,1.3,7.1-6.37,5.23,6.37,1.67,4.3,3H598l11.3,4.1,1.5,1.5v1.3l-1.5,1.5v1.3l-4.3,15.6,1.5,2.8,2.8,7.1,1.5,5.6,2.8,11.4,6.9,5.6-1.3,4.1-2.61,1.42,3.91,1.58,11.4-1.5h8.4l5.6-7.1,5.6-1.3,3,4.1h11.3l14.1-5.6,4.3-2.8,1.3,4.3,4.3,8.4H687l-1.5,11.3-4.1,1.5-7.1,1.3,1.5,4.3h2.8l2.8,2.8-2.8,7.1,4.1,8.4,4.3,1.5,4.3,5.6h5.6l3.9-3,14.1,4.2,2.31-6.08,3.29-2.42,1.4,14.1,1.4,7.1,4.2,2.8-7.1,24-5.7,9.9Zm-110.3-140-2.8,1.3-2.8,4.3,5.6,1.3,2.8-1.3-1.5-1.5v-4.1h-1.3Z" transform="translate(-577.04 -50.31)"/></svg>