<svg id="Capa_1" data-name="Capa 1" xmlns="http://www.w3.org/2000/svg" viewBox="0 0 362.27 525.08"><defs><style>.cls-1{fill:none;stroke:#8b0000;stroke-miterlimit:10;stroke-opacity:0.75;stroke-width:3px;}</style></defs><title>pallars-jussa</title><path id="pallars-jussa" class="cls-1" d="M580.09,19.3l-5.8,1.3-5.6,1.5-5.6,4.3-2.8,4.1-2.8,2.8,1.3,7.1-4.1,4.3-5.6,2.8v5.6l-9.9,1.3-1.5,4.3-5.6,7.1v4.1l1.5,7.1-1.5,7.1-12.8,4.3-8.4,2.8-8.4,15.6H501l-8.4-1.5-4.3,5.6h-2.8l9.9,12.8-7.1,12.8-4.1,2.8h-17.1l-5.6,8.4,7.1,12.8-8.6,7.1,8.6,14.1h1.3l2.8,7.1,4.3,4.3,11.3,1.3,2.8,8.6v4.1l1.5,5.6,1.3,1.5v5.6h2.8l9.9,7.1-1.3,7.1-1.5,6.9v12.8l-9.9,5.6-11.3-6.9-7.1-7.1-21.2-2.8-7.1-5.6h-5.6l-2.8-4.3-15.6-8.4,4.3-5.6-7.1-3-4.3-4.1-4.1,1.3-1.5,2.8-5.6,3-2.8,1.3v2.8l2.8,8.4,5.6,1.5,4.3,1.5,4.3,1.3-8.6,8.4,1.5,4.3-8.4,9.9-1.5,11.3-2.8,5.6-2.8,14.3L395,302l-4.1,5.6-2.8,9.9-8.6,9.8,1.5,5.8-1.5,8.4-4.1,7.1-1.5,8.4-7.1,19.7,1.5,3,9.9,5.6-7.1,4.1-5.6,7.1v21.2l1.3,2.8,1.5,4.3-1.5,8.4-4.1,11.4-4.3,5.6-4.3,8.4-2.8,9.9,2.8,8.4,9.9,8.4,12.8,5.6,19.9,1.5,1.3,4.3,8.6,5.6,8.4,1.3,19.9-4.1,5.6,2.8,21.2,2.8,11.3,4.3,14.3-1.5,11.3-4.3v1.5l1.5,2.8,4.1,2.8,17.1,12.8L541,522l7.1,3,5.6,1.3,21.2-1.3h8.6l8.4-11.4,5.6,2.8,11.3-2.8,17.1-1.3,4.3,9.8v18.6l5.6-1.5,6.9-18.4-2.8-7.1-8.4-9.9,7.1-6.9,2.8-1.5L647,487l1.5-5.6,6.9-12.8,5.8-4.3,4.1-5.6,2.8-8.4,7.1-11.4,2.8-4.1,4.3,4.1,1.3-1.3,2.8,1.3,2.8-6.9V420.6l3-5.6,1.3-5.6v-4.3h2.8l1.5-2.8h4.1l4.3-5.6,1.5-5.6v-2.8l2.8-1.5v-4.1l-4.3-7.1-9.9-7.1-4.1-1.3,1.3-4.3,5.6-5.6-1.3-17.1h-1.5l-12.8-5.6-2.8-5.6v-5.6l12.8-8.4-5.6-11.4,1.3-1.3-2.8-1.5-11.3-2.8-7.1-5.6-4.1-4.3-4.3-1.3,1.5,4.1h-1.5l-13.2-4.2-9.9-1.5h-6.9l-8.6-4.3-11.3-1.3-2.8-2.8-5.6-2.8-1.5,4.1-7.1-8.4h-8.4l-4.1-4.3-5.8-1.3H566l-1.3-15.6h-4.3l-4.3-8.4-4.1-2.8V233l1.3-4.3,2.8-5.6,14.3,1.5,2.8-5.6,5.6-4.3,1.5-11.3,2.8-5.8,2.8-9.8,2.8-4.3v-7.1l7.1-4.1,5.6-4.3,2.8-14.1,11.3-4.3-2.8-5.6-4.3,1.3-9.8-12.8,2.8-16.9-1.5-8.4V92.9l4.3-5.6L602.69,76l2.8-4.3,2.8-2.8V66.1l-4.1-5.6,1.3-5.8,1.5-5.6-2.8-1.3-2.8-7.1-4.3-7.1-8.4,2.8-8.6-17.1h0ZM424.39,186.2l-4.3,4.3-4.3,5.6-1.3,5.6,1.3,1.5,5.8,4.1-2.8,2.8,4.1,2.8h5.6l12.8-2.8,1.5-2.8,4.1-1.3,1.5-4.3-7.1-7.1-4.1-5.6h-2.8l-1.5-1.3-8.5-1.5h0Z" transform="translate(-349.72 -17.58)"/></svg>