<svg id="Capa_1" data-name="Capa 1" xmlns="http://www.w3.org/2000/svg" viewBox="0 0 359.23 506.85"><defs><style>.cls-1{fill:none;stroke:#8b0000;stroke-miterlimit:10;stroke-opacity:0.75;stroke-width:3px;}</style></defs><title>pallars-sobira</title><path id="pallars-sobira" class="cls-1" d="M513.45,21l-1.5,6.9-4.1,7.1v8.4l-1.5,5.6h2.8l-1.3,4.3-1.5,12.8-1.3,7.1-4.3,5.6,4.3,12.8-9.9,2.8-5.6-4.3-7.1,8.4-9.9,4.3-5.6,7.1,8.4,8.4-2.8,5.6-7.1,25.5-2.8,9.9-4.1,5.6-1.5,7.1-2.8,2.8,2.8,7.1h4.3l-2.8,11.3L450,196v5.6l-6.9,5.6-4.3-1.3,4.3,7.1,1.3,2.8h9.9l7.1,6.9,1.3,19.9,5.6-1.5,5.8-1.3,8.4,16.9,8.4-2.8,4.3,7.1,2.8,7.1,2.8,1.3-1.5,5.6-1.3,5.8,4.1,5.6v2.8l-2.8,2.8-2.8,4.3,1.5,11.3-4.3,5.6v14.3l1.5,8.4-2.8,16.9,9.8,12.8,4.3-1.3,2.8,5.6-11.3,4.3-2.8,14.1-5.6,4.3-7.1,4.1v7.1l-2.8,4.3-2.8,9.8-2.8,5.8-1.5,11.3-5.6,4.3-2.8,5.6-14.3-1.5-2.8,5.6-1.3,4.3v4.3l4.1,2.8,4.3,8.4h4.3l1.3,15.6h8.4l5.8,1.3,4.1,4.3h8.4l7.1,8.4,1.5-4.1,5.6,2.8,2.8,2.8,11.3,1.3,8.6,4.3h6.9l9.9,1.5,12.8,4.1h1.5L553,507l4.3,1.3,4.1,4.3,7.1,5.6,11.3,2.8,2.8,1.5v-4.3l4.3-4.3V507l-4.3-5.8-4.1-2.8-15.6-9.8,5.6-5.8,1.5-5.6h8.4l12.8-1.3v-4.3l8.4-12.8-1.5-1.3,8.6-9.9,2.8-9.9,8.4-1.5,7.1-8.4,18.4-8.4v-1.5l7.1-12.8V377l2.8-4.3h8.4l-1.5-11.3-4.1-11.4,4.1-8.4,2.8,2.8,4.3,2.8,2.8,2.8,7.1-1.3,7.1-2.8h2.8l6.9-1.5,8.6,4.3,4.1-4.3,11.4-16.9,4.1-7.1v-5.6l11.4-4.3,1.3-5.6,1.5-5.6v-19.8L742,281l2.8,4.1,9.9-5.6,5.6-7.1,7.1-2.8,4.1-4.1,4.3-9.9,2.8-9.9,12.8-8.4,1.3-4.3-2.8-2.8-8.4-7.1v-6.9l5.6-2.8,5.6-11.4-2.8-1.3-4.1-5.8-2.8-4.1v-4.3l-4.3-4.1-4.3-14.3-1.3-7.1v-8.4l-5.6-2.8-4.3-9.9-8.4-1.3,1.3-7.1v-8.4l-5.6-7.1-11.3-2.8-7.1-5.6v-7.1l2.8-5.6v-5.6l-11.3,1.3-4.3-4.1-4.1-1.5-8.6,4.3h-14.1l-9.9,4.1-2.8-1.3-7.1-1.5-4.1,2.8h-5.8l-2.8-2.8-5.6-6.9-8.4-3-7.1,5.8h-8.4l-11.3,2.8-8.6,4.1-5.6,4.3-7.1-2.8-5.6-4.3-4.1-6.9-8.6-4.3v-7.1l-1.3-4.1V56.81l-5.6-8.4-7.1-4.3-2.8-5.6L550,31.41l-4.3-4.1-2.8-5.6-2.8,1.3-21.2,4.3-1.5-2.8-3.9-3.5h0Z" transform="translate(-435.44 -18.17)"/></svg>