<svg id="Capa_1" data-name="Capa 1" xmlns="http://www.w3.org/2000/svg" viewBox="0 0 193.97 175.93"><defs><style>.cls-1{fill:none;stroke:#8b0000;stroke-miterlimit:10;stroke-opacity:0.75;stroke-width:3px;}</style></defs><title>pla-estany</title><path id="pla-estany" class="cls-1" d="M453.74,173.58l-5.8,5.6-2.8,2.8v5.6l2.8,8.6h-1.3l-7.1,2.8-15.6,4.1L414,199l-11.3,11.3h-2.8L385.63,213l0.21-2.72-1.5-1.3h-9.9v15.4l-7.1,3v6.9l3,5.6-3,7.1,4.3,2.8,1.5,8.6L366,264l1.3,5.6h-2.8l-2.8,11.3-2.8,7.1-7.1,4.3,1.41,0.72,11.39,2.08h17l4.3,1.3,5.6-8.4h14.1l7.1,2.8,5.6,2.8v5.6l11.3,5.6,7.1,1.5,8.4,14.1h7.1l1.5,1.5-1.5,4.3,1.5,6.9,14.1,11.4,1.5-2.8,1.3-2.8h9.9l12.8-4.3-2.8-9.9,11.3-1.3v-5.8l1.5-2.8,2.8-4.1,2.8-2.8-1.5-5.8,7.1,2.8,1.5,1.5,2.8,5.6,4.1-1.3,2.8-2.8,1.5,1.3-1.5,2.8,1.5,1.5,4.3-1.5,2.8-5.6v-9.9l1.3-4.1-2.8-5.8,8.4-11.3V271l-2.8-12.6v-15.6l-4.1-4.3v-4.3l-4.3-4.1,5.6-7.1,1.5-1.5-1.5-1.3-1.3-2.8V209l-2.8-3-7.1-4.1h-2.8l1.3-9.9-4.1-1.5-7.1-4.1-1.5,2.8-2.8,9.9-4.1,4.1-1.5,1.5-8.4,1.3-5.6-4.1,4.1-7.1v-9.9l1.5-1.3-4.3,2.8h-11.3l-4.3-2.8-15.6,2.8-1.3-2.8v-1.5l-2.9-8.5h0Z" transform="translate(-348.76 -170.86)"/></svg>