<svg id="Capa_1" data-name="Capa 1" xmlns="http://www.w3.org/2000/svg" viewBox="0 0 269.3 182.59"><defs><style>.cls-1{fill:none;stroke:#8b0000;stroke-miterlimit:10;stroke-opacity:0.75;stroke-width:3px;}</style></defs><title>pla-urgell</title><path id="pla-urgell" class="cls-1" d="M510.44,120.58l-8.6,12.8,8.6,2.8-5.6,11.4-11.4,2.8-2.8-4.3h-5.7l-14.1,1.5-1.5,8.4h-11.2l-12.8,2.8v9.9l-8.6,1.3,1.5,7.1-1.5,5.6v7.1l-15.6,2.8H417l1.3,2.8-1.3,7.1-2.8,4.1-2.8,9.9v2.8l2.8,1.5,11.3,4.1,7.1,29.8v8.4h-12.7l-1.5,2.8h-1.3l-5.6,12.8V283h1.3l5.6,2.8,15.6,5.6v8.4h8.6l2.8-8.4-1.5-5.6,1.5-1.5,6.9,4.3,1.5-5.6,8.4-4.3,14.3,2.8,4.1,1.5,1.5-2.8,4.1,2.8-1.3,1.3,2.8,2.8,9.9-6.9-1.5-1.5h5.6l1.5-1.3,11.3-9.9,4.3,1.3v2.8l4.3,7.1,21.2-14.1,4.1,1.3h1.5l4.3,2.8,11.3,1.5,12.8,4.3,5.6-8.6,1.5-2.8V259l1.3-4.3-2.8-5.6,2.8-5.6-4.3-3,1.5-4.1-2.8-2.8,1.3-5.6h3l1.3-5.8,4.3-1.3,2.8-1.5,1.3-1.3,1.5-8.6,8.4-2.8,4.3-15.6-4.3-2.8,4.3-5.6,5.6,1.5,8.4,4.1v-2.8l1.5-1.3v-2.8h4.1l5.8-5.8-1.5-2.8-2.8-1.3-5.6-2.8-5.6-2.8-4.3,1.3-2.8,5.6L605,170l21.2-19.7-2.8-1.5-8.56,6.1-9.74,8.1-7.1-4.3-6.9-2.8-2.8-1.5-2.8,2.8-7.1-1.3-8.4,2.8h-7.1l-8.4-4.3-8.6-12.8-1.3-18.4h-14.3v-2.8l-12.8,1.5-7.1-1.3h0Zm165.4,36.8-11.3,4.3-1.5-1.5-18.4,18.6,3,1.3,2.8-1.3,9.8-4.3,17.1-14.3-1.5-2.8h0Zm-203.6,82.1-1.3,5.6-5.8,9.9-4.1,7.1-14.3,8.4-4.1-2.8-5.8-4.3,11.4-19.7,24-4.2h0Z" transform="translate(-409.94 -118.69)"/></svg>