<svg id="Capa_1" data-name="Capa 1" xmlns="http://www.w3.org/2000/svg" viewBox="0 0 232.06 284.47"><defs><style>.cls-1{fill:none;stroke:#8b0000;stroke-miterlimit:10;stroke-opacity:0.75;stroke-width:3px;}</style></defs><title>priorat</title><path id="priorat" class="cls-1" d="M625.74,155.58l-9.9,2.8-1.3,4.3-2.8,4.1-4.3,21.2-5.6,1.5-9.9-1.5h-2.8l-7.1-2.8-9.9-2.8-2.8-1.3-5.6,1.3-2.8,4.3-2.8,5.6v7.1l-7.1,4.1-3.1,1.6h-5.6l-7.1,2.8-5.6,1.3-2.8,8.6-5.6,9.9-4.3,4.1,2.8,9.9v8.4l-5.6,5.6-2.8,7.1-2.8,1.5v1.3l1.3,7.1-1.3,5.6-1.5,2.8,2.8,5.6,4.3-1.3,8.4,7.1-15.6,14.4h-2.8l-8.4,8.4-1.5,1.5-5.6,2.8,5.6,7.1,7.1,9.8v7.1l2.8,5.6,5.6,7.1,4.3,11.3,1.5,2.8h-2.8l-1.5,1.5,1.5,2.8,1.3,1.5,2.8,2.8h2.8l1.5,4.1,4.1,2.8v4.3L528,393l-4.1,4.3,8.4,2.8h4.3l1.3-1.5,2.8,4.3,9.9,7.1,1.5,6.9H559l3-4.1,0.42-1.4a1,1,0,0,1,1.83,0l1.84,5.53,8.4,5.8,5.8,6.9,5.6,2.8,4.1,2.8,1.5,1.5h4.3l1.3-1.5v-2.8l5.6-4.1,1.5-5.6v-4.3l-1.5-1.5h-1.3v-1.3l4.1-8.4,1.5-1.5,1.5,1.5h2.8l5.6-2.8-2.4-11.3-2.8-2.8h-2.8l-1.5-4.3,4.3-1.3,2.8,2.8,5.6,4.3,5.6,2.8h15.6l7.1-5.6,2.8-9.9v-4.3l1.3-8.4,7.1-12.8,4.3-9.9-1.5-4.3v-5.6l2.8-2.8-9.9-1.3-9.8-2.8V317h4.1l22.7-2.8,4.3-5.6v-12.7l-7.1-19.9,5.6-2.8,12.8-1.5,5.6-1.3,4.3-5.6,8.4-5.6,7.1-5.8,1.75,0.94a0.72,0.72,0,0,0,1.05-.63v-1.61l-4.3-11.4,1.5-14.1,2.8-4.3-9.9-4.1-1.3.9-8.4,7.1-4.1-7.1,2.8-6.9-5.6-14.3-19.9-7.1v-14l-1.5-5.6-4.1,1.3-9.9,4.3-15.6,2.8-11.3-16.9-1.6-7.1h0Z" transform="translate(-486.32 -153.7)"/></svg>