<svg id="Capa_1" data-name="Capa 1" xmlns="http://www.w3.org/2000/svg" viewBox="0 0 363.52 392.13"><defs><style>.cls-1{fill:none;stroke:#8b0000;stroke-miterlimit:10;stroke-opacity:0.75;stroke-width:3px;}</style></defs><title>ribera-ebre</title><path id="ribera-ebre" class="cls-1" d="M459.24,67.88l-2.8,2.8-9.8,5.6-7.1,8.4v21.4l-1.5,17-6.9,2.8-27-4.1h-1.3l-7.1,15.6v8.4l-2.8,7.1,2.8,6.9,2.8,2.8-5.7,1.5-1.5,2.8,1.5,4.3-1.5,2.9-1.3,5.6-2.8,2.8v5.6l8.4-5.6h7.1l9.9-2.8,1.3-2.8,9.9-2.8,9.9-4.3,11.3,7.1,4.3,4.1,2.8,4.3,1.3,7.1,14.5,1.4,4.1,4.3,5.8,2.8,1.3,1.5,1.5,1.3,2.8,19.9-4.3,5.6,1.5,7.1-2.8,4.1-1.5,4.3-2.8,5.6,1.3,4.3,5.8,2.8,9.8,4.1,9.9,7.1,8.6,4.5,9.8,2.8-2.8,4.1-5.6,5.8-5.6,8.4v4.3l-2.8,2.8-5.6,8.4-4.3,7.1-4.3,2.8-5.8,3-4.1,4.1,2.8,4.3,5.6-1.5,4.1-1.3h7.1l1.5,7.1,4.1,2.8,5.8,1.3,2.8,4.3v8.4l5.6,4.3h1.3l4.3,5.6,1.5,2.8,2.8,5.6-7.1,2.8-2.8,1.5,2.8,5.6,2.8,1.5,5.6,5.6-1.3,2.8,4.1,2.8-6.9,4.3-1.5,5.6,7.1,6.9,5.6,1.5-2.8,7.1,4.1,4.1v7.1l4.3,2.8v4.3l-2.8,8.4h9.9v4.3l2.8,1.3,2.8,2.8,9.9-2.8,22.5-6.9h8.6l2.8-1.5h4.1l4.3,2.8,2.8,1.5,2.8-2.8,35.4,5.6,7.1,6.9h2.8l31.1-5.6,15.6-1.3,1.3-1.5-9.9-8.4-5.6-15.6-2.8-4.3-7.1-16.9-2.8-2.8-1.3-2.8,5.6-15.6,1.3-4.3v-7.1L681,366l2.8-4.3,5.6-5.6L695,349l1.5-2.8,8.4-12.8,4.3,4.3,9.9,5.6,1.3-1.5h4.3v-1.3l5.6-1.5,2.8-2.8v-5.6l-1.5-5.6,1.5-2.8-1.5-4.3h1.5l2.8-4.3,2.8-1.3,4.3,1.3v3l-1.5,2.8,1.5,2.8h1.3v-4.3l1.5-2.8,1.3-1.5-9.8-8.4-9.9-2.8-2.8-4.1-5.6,2.8h-2.1l-1.5-1.5-1.5,1.5-4.1,8.4v1.6h1.3l1.5,1.5v4.3l-1.5,5.6-5.6,4.1v2.8l-1.3,1.5h-4.3l-1.5-1.5-4.1-2.8-5.6-2.8-5.8-6.9-8.4-5.8-2.7-8.1a0.1,0.1,0,0,0-.19,0l-1.21,4-3,4.1h-6.9l-1.5-6.9-9.9-7.1-2.8-4.3-1.3,1.5h-4.3l-8.4-2.8,4.1-4.3-2.8-2.8V280l-4.1-2.8-1.9-4.1h-2.8l-2.8-2.8-1.3-1.5-1.5-2.8,1.5-1.5h2.8l-1.5-2.8-4.3-11.3-5.6-7.1-2.8-5.6v-7.1l-7.1-9.8-5.6-7.1,5.6-2.8,1.5-1.5,8.4-8.4h2.8l15.6-14.1-8.4-7.1-4.3,1.3-2.8-5.6,1.5-2.8,1.3-5.6-1.3-7.1v-1.3l2.8-1.5,2.8-7.1,5.6-5.6v-8.4l-2.8-9.9,4.3-4.1,5.6-9.9,2.8-8.6,5.6-1.3,7.1-2.8h5.6l2.8-1.5,7.1-4.1v-2.8l-15.6,1.3-8.4,2.8-5.8-1.3-4.1,1.3-5.6-1.3-4.3,1.3-4.3,2.8h-2.8l-6.9-1.3-8.6,6.9-8.4,1.5-8.4,2.8-5.6,5.6h-7.1l-7.1-1.3-8.4-2.8L546,98l-3.1-8.9v-2.8h-4.3l-14.1-8.4-7.1,6.9-1.5,7.1-8.4,11.3-4.3,9.9-15.6-1.3-2.8-7.1-4.1-7.1-2.8-4.1-5.8-9.9-6.9-8.4-6-7.3h0Z" transform="translate(-385.74 -65.65)"/></svg>