<svg id="Capa_1" data-name="Capa 1" xmlns="http://www.w3.org/2000/svg" viewBox="0 0 424.31 315.61"><defs><style>.cls-1{fill:none;stroke:#8b0000;stroke-miterlimit:10;stroke-opacity:0.75;stroke-width:3px;}</style></defs><title>ripolles</title><path id="ripolles" class="cls-1" d="M581,17.58l-4.3,8.6-6.9,1.3-14.3,4.3-5.6,2.8-5.6,2.8-14.1-1.5-8.6-6.9-9.9,2.8-5.6,2.8-5.6,2.8-7.1,4.3L489.34,53l-4.3,4.1,1.5,9.9-8.6,4.3-11.3,5.6-2.8,9.9-1.5,1.3-5.6-4.1-5.6,4.1-7.1,3h-11.3l-9.9,1.3-8.4,8.4-8.4,5.8h-5.8L397.86,104a0.24,0.24,0,0,0-.42.16v8l-8.4,4.1-4.1-1.3h-5.8l-4.1,4.1-2.8,15.6,18.4,11.4h6.9l7.1-5.6,7.1-1.5h8.4l9.9,4.3,5.6,4.1,7.1,4.3,5.6,2.8,4.3,1.5-2.8,5.6-9.9,5.6-1.5,2.8-5.6,5.6-4.3,8.4-5.6,7.1v1.5l-1.3,9.9-1.5,4.1-5.6,4.3,4.3,5.6,4.1,9.9,2.8-2.8,7.1-2.8,7.1,1.3-1.5,4.3-1.3,4.1,1.3,14.3,4.3,1.3,4.1,1.5-2.8,2.8,1.5,8.4-2.8,5.6h-9.9l-5.6-4.1-4.3,4.1-1.3,5.8-4.3,4.1-11.3,1.5-1.5-2.8-4.37-6,4.37-9.52-1.3-2.8-1.74-5,2.17-3.59H392.94l-9.9-2.8-5.6-1.3v18.4l9.9-1.5h8.4l-1.5,4.3,1.5,4.3,7.1,14.1,1.3,2.8v4.3l15.6-2.8,5.6,4.1,4.3,5.6,5.6-1.3,2.8,2.8,4.3,4.3,1.3,1.3,1.5-1.3,5.6-3v-2.8l9.9,1.5,5.6-2.8,4.3,4.1V307l1.3,1.3v2.8l1.5,2.8,9.9,7.1,5.6,2.8,8.4-8.4,5.6-8.4,11.4-4.3,16.9,1.5,1.5,2.8v5.6h9.7l1.5-4.3,2.8,2.8,2.8-1.3-1.3-5.6,1.3-4.3,1.5-1.5,18.4-2.8,2.8,5.8,9.9-1.5,4.1-2.8,4.3-2.8,2.8,2.8,5.6,1.3h4.3l5.6-8.4-1.5-1.3-2.8,2.8-4.1-1.5,1.3-2.8,2.8-2.8h-4.1l-1.5-2.8-8-1.58-3.19-4h9.9l5.6,1.3,4.1-1.3,5.8,2.8,4.1,4.1,7.1-4.1h5.6l2.8-1.5,5.6-2.8,5.8-1.3,9.8-2.8h1.5v-15.6l-8.4-7.1-1.5-7.1-5.6-4.1-4.3-4.3,14.3-1.5,7.1-2.8h2.8l5.93-11.71-4.83-.83-6.89,2.54-8.4-2.8-1.3-6.9v-4.3l4.1-2.8,7.1-1.5,9.9-4.1,5.6-2.8v-1.5l-2.8-7.1-1.5-2.8,8.6-5.6,12.6-4.1v-5.8l5.8-4.1,6.9,1.3,2.8,1.5,1.5-4.3,12.8,7.1,2.8-2.8,7.1,4.1,15.6-8.4-2.8-12.8,9.8,1.5,7.1-2.8v15.6l2.8,4.1,14.3,2.8h5.6l5.6-2.8,7.58-2.53a0.39,0.39,0,0,0,.08-0.71L787,158.88l-17.1-1.5,4.3-14.1-2.8-11.4-3-5.6,3-8.4-9.9-5.6-12.8-2.8-5.6,1.3-2.8-1.3-4.3-7.1-4.3-8.4-6.9-4.3-2.8-7.1-8.6-1.3-5.6-7.1V61.38l-21.2-1.3-9.9-5.8-8.4-1.3-12.8-2.8-8.4-5.6-1.5-5.8-1.3-1.3h-9.9l-7.1-5.6-5.6-5.6-9.9,5.6-9.9-5.6-6.9-5.8-8.6-2.8-5.4-.1h0Zm-166.9,288.5-0.64,2.26,0.64,2-1.5,1.3-9.8,1.5v4.3l2.8,8.4v2.8l1.3,1.3,4.3-1.3,1.3-1.5,1.5-4.1V316l8.4-4.3v-1.3l-4.1-2.8-4.2-1.5h0Z" transform="translate(-370.58 -16.06)"/></svg>