<svg id="Capa_1" data-name="Capa 1" xmlns="http://www.w3.org/2000/svg" viewBox="0 0 256.41 354.88"><defs><style>.cls-1{fill:none;stroke:#8b0000;stroke-miterlimit:10;stroke-opacity:0.75;stroke-width:3px;}</style></defs><title>segarra</title><path id="segarra" class="cls-1" d="M735.54,106.88l-4.3,1.5-2.8,1.3h-4.3l-8.4,4.3-4.1,14.1-5.8-2.8-4.1,4.3v2.8l-2.8,4.1-5.6,4.3-1.5,1.5L689,138v-15.5l-4.3-7.1-1.3-5.6-9.9,2.8,1.3,4.3-5.6,7.1,1.5,9.8-2.8,8.6-4.3,5.6v5.6l-2.8,5.6-9.9,8.4-1.3,2.8-2.8,3-1.5-1.5L629.74,189l1.5,4.1-3,4.3-6.9,9.9-8.6,6.9-6.9-2.8-8.4,11.4-5.8,4.1-9.8,9.9h4.1l-7.1,11.3,1.5,5.8,2.8,2.8,1.5,4.1-4.3,1.5-2.8,1.3,4.3,1.5,5.6,4.3v6.9l-15.6,31.1,8.4,4.3,5.6-1.5,12.8-9.9,8.4,4.3-5.6,7.1-4.1,16.9-3,4.3h-2.8v9.9l1.5,1.3v2.8l1.3,9.9v1.5l1.5,6.9-4.3,1.5,1.5,15.6-2.8,12.8-12.8,5.6-2.8,4.3,1.3,2.8v4.1l7.1,5.8h2.8l17.1,6.9,4.1,1.5,1.5,2.8v2.8l4.1,12.8,8.6-1.5,8.4,2.8,4.3-2.8,4.1-1.3,2.8,4.1,8.6-4.1,15.6,7.1,8.4-5.8,5.6,2.8,38.3,3,8.4,4.1,2.8,4.3,5.6,1.3,8.6-1.3v-5.6l-5.8-2.8-1.3-8.6v-4.1l9.9-7.1,1.3-11.3h-9.9l-5.6-2.8-7.1-4.3-1.3-4.3-2.8,1.5-5.6-1.5-1.5-2.8,7.1-2.8v-2.8l12.8-4.3,1.3-5.6,2.8-2.8h21.4l5.6,5.6,1.3-4.1,2.8-1.5h4.3l4.3-1.3L778,374h-5.6l-7.1-8.6-4.1-5.6v-8.4l-7.1-4.3,2.8-1.3,1.5-8.4-12.8-1.5v-7.1l-5.8-1.3,4.3-8.4-12.8-1.5,25.5-24,5.6-1.5-4.1-4.1-7.1-3-4.3-4.1,5.6-19.9v-6.9l2.8-3,4.3-14.1-1.3-2.8,4.1-7.1,14.3,1.5,9.8,1.3,9.9-1.3,2.8-2.8,11.4-8.6,14.1-8.4v-1.3l-11.3,4.1-2.8-5.6-11.4-8.4,9.9-5.6,5.6-7.1,5.6-9.9-2.8-11.3,1.5-2.8v-18.3l-1.5-9.9-11.3-4.3-5.6,5.6-8.4,14.3-12.8-4.3-4.3-8.4-9.9,2.8L768,130l-15.6-11.4-4.1,1.5h-1.5l-11.3-13.2h0Z" transform="translate(-569.83 -105.12)"/></svg>