<svg id="Capa_1" data-name="Capa 1" xmlns="http://www.w3.org/2000/svg" viewBox="0 0 363.47 550.57"><defs><style>.cls-1{fill:none;stroke:#8b0000;stroke-miterlimit:10;stroke-opacity:0.75;stroke-width:3px;}</style></defs><title>segria</title><path id="segria" class="cls-1" d="M613.43,6.35l-4.3,9.9v8.4l-6.9,12.8L589.43,36h-5.6l-9.9,5.6-2.8,7.1-8.6,2.8-5.6,7.1-4.1,7.1-4.3,19.7-4.3,4.3-11.3-1.5-29.8,5.8h-5.8V101l-2.8,17.1-8.4-8.6-8.4,14.3h-1.5l-1.3,9.9-2.8,2.8-18.4,18.4-9.9,12.8v15.6l5.6,1.3,12.8,25.5,2.8,2.8-7.1,7.1-1.3,4.1,1.3,18.6,38.3,6.9,18.4-8.4,4.3,9.9,1.3,8.4-5.6,7.1,2.8,7.1-2.8,4.1,4.3,5.6,6.9,12.8V299l-9.9,9.9-2.8,4.3-8.4,9.9-5.6,11.3-10.2,12.8-1.3,1.3-7.1,2.8-14.3,1.6-18.4-2.8V360l2.8,6.9v8.6l7.1,5.6v2.8l-8.4,12.8,4.3,2.8-1.5,7.1-2.8,6.9-5.6,9.9-12.8,12.9,28.3,24,8.4,19.9-5.6,7.1-5.6,1.3-7.1,12.8,2.8,2.8,11.3,8.4-1.3,9.9v2.8l14.1,24.2,27,4.1,6.9-2.8,1.5-16.9v-21.4l7.1-8.4,9.8-5.6,2.8-2.8,5.8,7.1,6.9,8.4,5.8,9.9,2.8,4.1,4.1,7.1,2.8,7.1,15.6,1.3,4.3-9.9,8.4-11.3,1.5-7.1,7.1-6.9,14.1,8.4h4.3l4.1-14.1,1.5-14.3-2.8-5.6,2.8-5.6V460l12.8-11.3,2.8-1.5,4.1-1.3,8.6-5.6,4.2-12.4-1.3-8.4-4.3-9.9,2.8-17.1,1.5-4.1,4.1,2.8,7.1-5.8h11.3l4.3-1.3,1.5-14.3,2.8-1.3,2.8-5.6,1.3,1.3,12.8,2.8,4.3-12.8-2.8-9.8,4.1-5.6,7.1-18.6,12.8,7.1,11.3-9.9h2.8l1.5-2.8h1.5l5.6-5.6-2.8-1.3,1.3-9.9,5.6,1.3v-8.4l-15.6-5.6-5.6-2.8h-1.3v-4.3l5.6-12.8h1.3l1.5-2.8h12.8v-8.4l-7.1-29.8-11.3-4.1-2.8-1.5v-2.8l2.8-9.9,2.8-4.1,1.3-7.1L735,192h4.1l15.6-2.8v-7.1l1.5-5.6-1.5-7.1-2.8-8.4-5.6-8.4-8.4-9.9-2.8,5.6-8.4,8.4-5.8-2.8-1.3,1.5-4.3,5.6-2.8-4.3-5.6,4.3-5.6-12.8-5.6-4.3-4.3-6.9-5.6-5.6,1.3-5.8-12.8-12.6-6.9-11.4-5.6-5.6-4.3-5.6-2.8-4.3-2.8-4.1-4.3-11.4-5.6-5.6-7.1-11.3-1.3-2.8-5.8-17.1V18.15l1.5-8.4-15.9-3.4h0Zm176.8,232-24,4.3-11.4,19.7,5.8,4.3,4.1,2.8L779,261l4.1-7.1,5.8-9.9,1.3-5.7h0Z" transform="translate(-428.72 -4.63)"/></svg>