<svg id="Capa_1" data-name="Capa 1" xmlns="http://www.w3.org/2000/svg" viewBox="0 0 401.69 393.18"><defs><style>.cls-1{fill:none;stroke:#8b0000;stroke-miterlimit:10;stroke-opacity:0.75;stroke-width:3px;}</style></defs><title>selva</title><path id="selva" class="cls-1" d="M451.7,57.28l-2.8,2.8-6.9,4.3,2.8,5.6,12.8,12.8,1.3,1.3-2.8,5.6-2.8,3h-2.8v8.4l7.1,2.8-4.3,2.8,1.5,4.3-8.6,2.8-4.1,2.8-1.5-2.8-1.3-2.8-1.5,4.1-5.6,2.8,12.8,8.6-5.6,2.8v4.1l-4.3,2.8,1.3,5.8H428l-4.1,2.8-1.5-1.5h-2.8l-1.5-1.3-4.1-1.5-2.8-2.8-7.1,4.3v4.1h4.3l4.1,5.6V156l-2.8,7.1,4.3,5.6,1.3-2.8h4.3l4.3,1.3,2.8,1.5,1.3,2.8h7.1l4.3,11.3v9.9l-7.1,7.1-1.5,2.8-5.6,4.3-4.3,4.1-5.6,2.8-1.3,5.6v1.5l5.6,4.3v8.4l-2.8,8.4-4.3,1.5-4.1,6.9h-7.1l-5.6,4.3,1.3,2.8v2.8l2.8,5.6-1.3,1.5-4.3,2.8-4.3,5.6-1.3,7.1,1.3,5.6,3,4.3-1.5,2.8,4.3,1.3h8.4l8.4,7.1,1.5,8.4,8.4,4.3,11.3-4.3-2.8,9.9,9.9,7.1,8.4,5.6h1.5l14.1,2.8,1.5,5.6-2.8,2.8,2.8,4.3-1.5,1.5,7.1,5.6,4.3,5.6-1.5,4.3,2.8,6.9,9.9,4.3,11.3-5.6,5.8-1.5,2.8,1.5,15.6-2.8-1.5,6.9,2.8,4.3-4.1,8.4-4.3,7.1,2.8,8.4,2.8,5.6,2.8,1.5,11.4-7.1,9.8,1.5,8.6-22.7,4.1-4.3,4.3-4.1,8.4,4.1,2.8,3,22.7-12.8,15.6-15.6,14.1,9.8,24.2-1.3v4.3l-8.6,5.6,4.3,26.8-1.5,8.4-8.4,8.6,5.6,12.6v1.5l8.6,14.1,4.1-11.3,5.6-8.4,2.8-2.8,3-1.5v1.5l-1.5,1.3,2.8-1.3,1.5-1.5v-1.3l2.8-1.5v-1.3l4.1-2.8,1.5-1.5V411l1.3-1.3,3-1.5,4.1-1.3v-1.5l4.3-1.3,1.3-1.5,2.8,1.5,1.5-1.5,1.5-1.3,2.8-1.5,5.6-2.8h2.8l4.3,1.5,1.3-1.5h2.8l2.8-1.5h2.8v-1.3h4.3l1.5,1.3H729l1.5-1.3h1.3l2.8-1.5,2.8-1.3-1.3-1.5,2.8-1.3H746l5.6-2.8h2.8l1.3-1.5L760,383h1.5v-4.3l1.3-1.5,1.5-1.3,2.8-2.8h2.8v-1.5l1.3-1.3-1.3-1.5h2.8l1.3-1.3,1.5-1.5v-2.8h2.8l1.5-1.5h-1.5v-2.8l5.6-6.9,2.8-4.3-4.1-2.8-2.8-2.8-2.8-4.3-4.3-5.6-7.1,7.1-8.4,4.1-8.4-11.3-7.1-2.8-24-1.5-8.6-11.3-5.6-8.4,1.5-5.6,2.8-3,1.3-2.8,8.6-1.3v-7.1h-5.6l1.3,4.3h-9.9l-2.8-7.1,5.6-9.9,2.8-18.4H705l-7.1-4.1-4.3-7.1-6.9,1.3-7.1,5.8v2.8l-4.3-11.4v-12.8l-1.3-2.8,4.1-9.9v-5.6l1.5-8.4-5.6-5.6h4.1v-2.8h-9.8l-7.1,1.3-8.4,7.1-7.1-4.3-7.1-5.6-9.9-12.8-14.1,2.8H594.7v-2.8l1.5-5.6-2.8-4.1L582,161.18h-5.6l-6.9-7.1-1.5-5.6,5.6-1.3,1.5-2.8,1.3-5.8-2.8-2.8-1.3-9.8-1.5-3-2.8-4.1v-2.8l-1.5-9.9,3-1.5v-6.9l-8.6,1.3-5.6-2.8h-2.8l-1.5,4.3-2.8-1.5-4.1-6.9-8.4-1.5-1.5-2.8L527.1,78l-2.8-4.3,2.8-4.1-4.1-4.3v1.5l-4.3,5.6L517.2,78l-6.9,1.5-5.6-2.8-5.8-4.3-6.9-1.5-4.3,5.8-1.5,6.9-6.9,2.8-11.4-11.3L463.8,68l-7.1-5.6-5-5.1h0Z" transform="translate(-387.07 -55.14)"/></svg>