<svg id="Capa_1" data-name="Capa 1" xmlns="http://www.w3.org/2000/svg" viewBox="0 0 324.12 435.12"><defs><style>.cls-1{fill:none;stroke:#8b0000;stroke-miterlimit:10;stroke-opacity:0.75;stroke-width:3px;}</style></defs><title>solsones</title><path id="solsones" class="cls-1" d="M484.2,55.56l-12.8,4.3v11.3L467.1,74l-1.5,4.3-14.1,11.3-17.1,12.8-19.7,11.4-9.9-7.1-1.3-5.6h-9.9L379.3,108h-6.9l-5.8-2.8-8.4,4.3h-1.3v1.3l-1.5-1.3-2.8,1.3h-1.5v4.3l1.5,1.5,4.3,2.8-4.3,8.4-2.8,1.5h-4.3l-1.3,4.1-4.3,1.5-1.5,1.3-4.1,1.5-5.6,5.6-2.8,18.4,6.9,15.6,9.9,4.3h2.8l2.8-2.8,2.8,1.3v21.2l-1.3,7.1,2.8,1.5-2.8,4.1,1.3,8.4h-1.3l-1.5,8.6,2.8,8.4,2.8,8.4-11.3,8.6h-2.8l-7.1,2.8h-6.9l-2.8-1.5-8.6-1.3h-2.8v1.3l2.8,2.8-5.6,5.6-2.8,8.6h-2.8l1.3,1.3-1.3,4.3-1.5,1.3-2.8,4.3,2.8,4.3V293l11.4,2.8,2.8,5.6-2.8,9.9-9.9,14.1,9.9-2.8,1.3,5.6,4.3,7.1v15.5l2.8,4.3,1.5-1.5,5.6-4.3,2.8-4.1v-2.8l4.1-4.3,5.8,2.8,4.1-14.1,8.4-4.3h4.3l2.8-1.3,4.3-1.5,11.3,12.8H378l4.1-1.5,15.6,11.4-2.8,8.4,9.9-2.8,4.3,8.4,12.8,4.3,8.4-14.3,5.6-5.6,11.3,4.3,1.5,9.9v18.3l-1.5,2.8,2.8,11.3-5.6,9.9-5.6,7.1-9.9,5.6,11.4,8.4,2.8,5.6,11.3-4.1V423l-14.1,6.56-11.4,8.6-2.8,2.8-1.3,11.3v5.6l-1.5,4.3-5.6,2.8,4.3,4.3h2.8l1.3-1.5,2.8-1.3,4.3,2.8v-2.8l2.8-3-1.5-8.4,1.5-2.8,0-2.43,12.77,3.93,4.3,12.8v2.8h5.6l2.8,4.1,2.8,2.8,4.3,1.5-3,5.6,1.5,4.3h2.8l-1.3-4.3H477l4.1-12.8,7.1-1.3v-5.8L491,465l5.6-2.8,1.5-1.5,5.6,5.8,8.4-1.5-1.3-2.8,5.6-8.4-2.8-5.8-0.16-1.3H512.1v-2.8l-2.8-4.3,2.8-7.1,12.8-6.9,2.8-11.4-2.8-5.6,9.9-2.8,4.3-5.6-2.8-2.8,2.8-8.4-2.8-8.6v-1.3l-5.8-11.4-8.4-2.8-4.1-1.3-8.6,7.1-4.1,2.8-9.9-7.1L501,358l5.6-2.8v4.1h1.5l9.9-14.1,2.8,1.3,8.4-2.8,4.3-6.9,6.9-7.1,5.6-7.1h3l4.1,1.5,2.8-1.5-6.9-12.8,4.1-2.8v-4.3l-2.8-2.8,2.8-4.1v-1.5l-1.3-7.1,4.1-12.6,1.5-1.5,2.8,1.5,1.3-3,4.3-2.8,7.1,2.8-5.6,9.9,2.8,2.8,6.9,1.5,8.6-4.3v-1.3l8.4-4.3,9.9-7.1-2.8-5.6v-4.1l1.3-4.3-6.9-2.8v-2.8l-5.8-7.1h-2.8l-2.8,8.4,7.1,11.4-2.8,1.3-1.5,7.1-1.3-1.5-1.5-4.1-2.8-2.8-5.6-1.5-7.1,1.5-4.1,1.3v-8.4l-4.3-2.8-1.5,2.8,1.5,1.5-4.3,5.6v-4.3l-2.8-2.8,2.8-4.3v-6.9l2.8-7.1,2.8-2.8h4.3l-1.3,8.4,1.3,2.8-2.8,4.3,2.8,2.8,4.3-4.3-1.5-5.6,4.3-5.6,4.1-2.8,5.8-4.3h5.6l1.3-2.8-2.8-4.3,1.5-2.8-1.5-5.6-2.8-2.8-4.1-2.8-3,5.6-1.3,4.3-4.3-2.8v-4.3l1.5-5.6,1.3-7.1,9.9-14.1v-7.1l1.5-5.6,12.8,4.3,5.6-3,4.1-4.1v-8.4l-8.4-1.5-4.1-4.3,2.8-2.8,1.3-6.9,1.5-3-2.8-2.8-7.1-5.6v-4.1l11.3-19.9,5.6,2.8,8.6-8.4,2.8-4.3-1.5-7.1,1.5-5.6-2.8-4.1-1.5-1.5-4.3,8.4,1.5,5.8-8.4,2.8-5.6,4.1-2.8-5.6L591.4,94l-7.1-4.3h-2.5l1.5,4.3-1.5,2.8-1.3-7.1-3,5.8-2.8-4.3-2.9,1.2v7.1H569l-1.3-1.3h-2.8l-5.8-4.3,2.8-1.5-2.8-5.6-6.9-14.1,1.3-4.3-9.9-1.3h-2.8l-5.6-4.3-2.8,1.5H521.1L508.3,60l-8.4-2.8-15.7-1.6h0Zm91.9,90.6,11.3,2.8-2.8,5.6,1.5,1.5-21.2-1.5L555,149l-1.5-1.3,22.6-1.5h0ZM320,262.25h3v6.9l-1.5,1.5H320l-2.8-4.3v-2.8l2.8-1.3h0Zm274.5,91.81,2.8,5.6h-2.8l5.6,2.8,1.5,4.3,5.6-9.9-4.3-2.8-2.8,4.3-2.8-4.3h-2.8Z" transform="translate(-297.11 -54.03)"/></svg>