<svg id="Capa_1" data-name="Capa 1" xmlns="http://www.w3.org/2000/svg" viewBox="0 0 293.58 190.42"><defs><style>.cls-1{fill:none;stroke:#8b0000;stroke-miterlimit:10;stroke-opacity:0.75;stroke-width:3px;}</style></defs><title>tarragones</title><path id="tarragones" class="cls-1" d="M500.44,317.58l1.5-1.5,2.8-1.5,2.8,1.5L507.13,318l-1.09.88-8.29,6.75-2.91,3.15-1.5-1.5-2.8,5.6,1.5,1.5-4.3,4.3v1.4l5.39-2.08,5.88-6.75,8-6.75,3.54-2.5,1.3-3.12,1-1.4-1.24-1.3v-1.5l0.2-1.55a1.25,1.25,0,0,1,2.38-.23l1.27-1.42,1.95-.9,2.8,1.3v1.5l1.3-1.5h2.8v-1.3l1.5-1.5v-1.3l5.6-2.8,8.4-4.3,5.8-1.5,11.3-1.3,5.6,1.3h8.4l5.8,3,1.3-3,4.3,1.5,6.9-2.8,9.9-2.8,5.6-1.5,1.5,1.5,2.8,1.3h4.3l1.3-1.3h2.8l1.5-2.8h1.3l-1.3-1.5,26.8-15.6,14.3-8.4,18.4-5.6,8.4-2.8-1.5-1.5-5.6-8.4-5.6-15.6-1.5-8.4-15.4,4.1-8.6,1.5h-4.1l-7.1-8.4h-7.1l-7.1-1.5-4.1,5.6-4.3,1.5-2.8-15.6h5.6l4.3-4.3,1.3-11.3,4.7-3-7.1,1.3h-5.6l-5.6-2.8-12.8-2.8-1.3-2.8v-2.8l-7.2-4.4h0l-5.6,9.9L584,193l-2.8,2.8-2.8-1.5-1.3,1.5-4.3-1.5,2.8,5.6,1.5,2.8h4.1l-1.3-2.8,2.8,1.5,2.8,5.6-1.5,4.3-4.1-1.5-1.5,2.8-1.3,4.3h-1.5l-2.8-5.6-5.6,1.3-8.6-8.4-2.8-2.8-5.6-5.6-4.1-1.5-1.5-1.3v-1.5l-1.5,2.8-6.9,1.5-2.8,2.8-2.8-2.8-5.8,2.8-1.3,2.8-4.3,7.1-9.9-4.3-2.8,4.3,7.1,8.4,4.3,8.4v4.3l-9.9-4.3h-8.4l-1.5-9.9,1.5-1.3v-1.5l-4.3-1.3-1.5,4.1-4.1-1.3-2.8-2.8-7.1-7.1-1.5-1.5-1.3-1.3-1.5,1.3-2.8,3-5.6-7.1-5.6,7.1-4.3-1.5v1.5l4.3,2.8-1.5,6.9,1.5,1.5-2.8,11.3-2.8,4.3v1.3l-9.9,12.8h-2.8l-1.5,4.3-6.9,5.6,2.8,2.8,9.8,15.6,4.3,1.5,5.6,4.1,2.8,8.6,8.6,4.1-1.5,2.8-9.9-1.3-3.4-4.1,4.3-1.3v-1.5l-8.4-1.3-3,5.6,3,4.1,1.3-2.8,2.8,2.8,1.5,7.1-4.3,4.3,2.8,2.8,2.8,4.1h-8.4l-8.4-12.6-5.6-1.5-8.6-5.6-6.9-1.5-1.5,1.5-1.5,5.6,3,1.5,1.3,5.6v4.1l1.5,2.8v4.3l-2.8,1.5-8.6-2.8v-1.3h1.5l-4.3-4.3-4.1-2.8-5.8,5.6v9.9l1.5,5.6,2.8,4.3,2.8,4.3,8.4,6.9,1.5,2.8,4.3-1.3h8.4l4.1,1.3,1.5,3,2.8,1.3v2.8h4.3l2.8,1.5v2.8H444v1.3l1.5,2.8H444l1.5,1.5,4.3-1.5v1.5h2.8l4.1-5.6h1.5l1.3-2.8-1.3-1.5v-2.8l4.1-8.4,4.3-9.9,5.6-5.6,5.6-4.3,1.5,2.8,2.8,2.8,1.5-2.8-1.5-2.8,4-4.48,1.43-.72a1.17,1.17,0,0,1,1.69,1v2.85l1.3,1.3H492l1.3-1.3-1.3-4.3h1.3l1.5,4.3,4.41-3.68,1.19-1.92m11.4-1.5-1.3,2.8,1.3-1.3v-1.5Z" transform="translate(-396.04 -176.69)"/></svg>