<svg id="Capa_1" data-name="Capa 1" xmlns="http://www.w3.org/2000/svg" viewBox="0 0 266.27 401.57"><defs><style>.cls-1{fill:none;stroke:#8b0000;stroke-miterlimit:10;stroke-opacity:0.75;stroke-width:3px;}</style></defs><title>terra-alta</title><path id="terra-alta" class="cls-1" d="M520.6,93l-1.5,5.6v4.1l-2.8,1.5h-2.8l-5.6-1.5-5.6-2.8h-1.5l-1.3,4.3-1.5,1.5-2.8,1.3-4.44-2.22-1.16.92-2.8,2.8-1.5,8.4-7.1,22.7-1.3,5.6-1.5,4.1-1.3,12.8-1.5,2.8-2.8-1.3-4.1,1.3v1.5h-3l-12.6,8.4-12.9-1.2v1.3l1.3,2.8v2.8l-2.8,2.8v4.3l-1.3,2.8-3,2.8h-4.1l-2.8-1.3-10.25-7-4.5-1.62-1.93,2.57a0.44,0.44,0,0,0,.17.66l2.31,1.07,1.5,1.5v1.3l-1.5,1.5-8.4,1.3-2.8,1.5v2.8l5.6,5.6-2.8,9.9-4.3,1.3v18.6l1.5,2.8h2.8l5.6-1.5,4.3,1.5,1.3,2.8v1.3l-2.8,1.5H409v1.3l2.8,1.5v4.1l-2.8,4.3,2.8,5.6,4.1,2.8v4.3l-1.3,1.5-2.8,1.3-2.8,2.8v4.6h2.8l2.8-2.8,2.8-1.5h1.5l1.3,1.5v1.3l-1.3,2.8-1.6,2.9v1.5l1.5,1.5,5.6,1.3h1.3l1.5-1.3v-5.8h1.3l1.5,1.5,1.3,4.3,4.3,4.1,7.1,5.6h2.8l2.8,1.5,4.3,2.8v1.5l-2.8,1.3-3-1.3h-5.5l-2.8,1.3-1.3,1.5,1.3,4.1,2.8,1.6h4.3l1.3,2.8,1.5,2.8-2.8,1.5-1.5,2.8v2.8l1.5,1.3,1.3,2.8,4.3,4.3,1.5,5.6v8.4h4.1l2.8,1.5v1.3l-4.1,5.8H454v6.9l-1.3,2.8-1.5,3-2.8,1.3-1.5,1.5-2.8,4.1,1.5,7.1-5.6,7.1h-2.8l-5.8,5.6v9.9h-2.8l-1.3,1.3v1.5l2.8,4.1-2.8,1.5v7.1l-2.8,2.8V422l-4.3,1.5-1.3,1.3,1.3,1.5,4.3,2.8,2.8,1.5,2.8,4.1V439l-2.8,7.1,1.3,2.8V453l1.5,2.8,4.3,15.6,5.6,7.1,4.1,4.3,1.5,2.8-1.5,1.3h-1.3l-1.5,1.5,14.3,2.8,14.1-22.7,12.8-4.1,4.3-8.6,6.9-6.9,14.3-17.1v-4.1l5.6-5.8-4.3-6.9,1.5-2.8-1.5-7.1,1.5-2.8v-5.6l1.3-1.5v-11.3l4.3-5.6v-5.8l4.3-1.3,4.1,1.3,5.8-6.9v-1.5l4.1-1.3h2.8l8.6-4.3h5.6l5.6-1.5h5.6l7.1-2.8,6.9-12.8,8.6,1.5,4.1-1.5,7.1,2.8,7.1-6.9,4.1-4.3,4.3-2.8,4.3-4.3,8.4-1.3,11.3-7.1,9.9-4.1,4.3-4.3,2.8-1.5,7.1-2.8-2.8-5.6-1.5-2.8-4.3-5.6h-1.3l-5.6-4.3V278l-2.8-4.3-5.8-1.3-4.1-2.8-1.5-7.1h-7.1l-4.1,1.3-5.6,1.5L611,261l4.1-4.1,5.6-2.8,4.3-2.8,4.3-7.1,5.6-8.4,2.8-2.8v-4.3l5.6-8.4,5.6-5.8,2.8-4.1-9.4-2.9-8.6-4.3-9.9-7.1-9.8-4.1-5.8-2.8-1.3-4.3,2.8-5.6,1.5-4.3L614,171l-1.5-7.1,4.3-5.6-2.8-19.9-1.5-1.3-1.3-1.5-5.8-3-4.1-4.3-14.3-1.3-1.3-7.1-2.8-4.3-4.3-4.1-11.3-7.2-9.9,4.3-9.9,2.8-1.3,2.8-9.9,2.8h-7.2l-7.87,5.19a0.4,0.4,0,0,1-.63-0.34v-4.85l2.8-2.8,1.3-5.6,1.5-2.8-1.5-4.3,1.5-2.8,4.66-1.25a0.56,0.56,0,0,0,.25-0.93L529,94.35,520.6,93h0Z" transform="translate(-396.1 -91.25)"/></svg>