<svg id="Capa_1" data-name="Capa 1" xmlns="http://www.w3.org/2000/svg" viewBox="0 0 188.58 376.44"><defs><style>.cls-1{fill:none;stroke:#8b0000;stroke-miterlimit:10;stroke-opacity:0.75;stroke-width:3px;}</style></defs><title>urgell</title><path id="urgell" class="cls-1" d="M533.94,41l-2.8,1.3v2.8l-4.3,3-4.3-3-4.1,4.3-1.5,9.9,2.8,1.3-2.8,9.9h2.8v5.6l2.8,2.8,4.3-5.6,11.3-4.1,3-7.1,8.4,1.5-1.5-7.1-1.3-5.6h-2.8l-1.5-4.3v-2.8l-7.1-1.5-1.4-1.3h0Zm38,2.9-11.3,22.7-5.6,9.8,4.3-1.3-1.5,2.8L540.94,109l-17.1,18.4-8.4-8.4h-4.2l-4.3,5.6H492.5l-1.06-2.8-9.8,15.6-1.5,2.8-9.9,8.4-2.8,1.5,4.3,11.3,8.4-2.8,2.8,4.3,4.3-1.5-2.8,19.9-2.8,4.1,2.8,1.5,6.9,2.8,7.1,4.3,11.4-7.1,6.9-7.1,2.8,1.5-21.1,19.5,7.1,2.8,2.8-5.6,4.3-1.3,5.6,2.8,5.6,2.8,2.8,1.3,1.5,2.8-5.8,5.8h-4.1V215l-1.5,1.3v2.8l-8.4-4.1-5.6-1.5-4.3,5.6,4.3,2.8-4.3,15.6-8.4,2.8-1.5,8.6-1.3,1.3-2.8,1.5-4.3,1.3-1.3,5.8h-3l-1.3,5.6,2.8,2.8-1.5,4.1,4.3,3-2.8,5.6,2.8,5.6-1.3,4.3v4.1l-1.5,2.8-5.6,8.6v6.9l-2.8,4.3,4.1,2.8,2.8,4.3,5.8,4.1,4.1,5.6,1.5,2.8-2.8,1.5,2.8,8.4-2.8,5.6-4.3,12.8,5.6,1.5,17.1,4.3,1.3,4.1,4.3,2.8h12.8v5.6l1.3-2.8,9.9,7.1,7.1,5.6,5.6,1.5,8.4,6.9,7.1,3,4.3,1.3,4.1,1.5,1.5,6.9,8.4-2.8,7.1-2.8v-2.8l18.4-4.3,12.8-5.6h5.6l-2.8-12.8-5.6-4.1-1.5-7.1v-4.3h2.8l1.5-1.3,1.3-11.3h-2.8l-1.3-1.5H620l1.5-1.5v-1.3l-5.8-1.5,1.5-2.8,15.6-2.8,12.8-4.1,2.8-11.4,4.1-8.4-4.1-12.8v-2.8l-1.5-2.8-4.1-1.5-17.1-6.9h-2.8l-7.1-5.8v-4.1l-1.3-2.8,2.8-4.3,12.8-5.6,2.8-12.8-1.5-15.6,4.3-1.5-1.5-6.9v-1.5l-1.3-9.9v-2.8l-1.5-1.3v-9.9h2.8l3-4.3,4.1-16.9,5.6-7.1-8.4-4.3-12.8,9.9-5.6,1.5-8.4-4.3,15.6-31.1v-6.9l-5.6-4.3-4.3-1.5,2.8-1.3,4.3-1.5-1.5-4.1-2.8-2.8-1.5-5.8,7.1-11.3h-4.1l-4.3,5.6-11.3-4.1-5.8-1.5v-8.4l-1.3-8.6,8.4-8.4,2.8-5.6h-5.6l-4.3,4.3-4.1,9.8-5.6-1.3-1.5-1.5-15.6-4.1-1.5-4.3,1.5-5.6,1.5-5.6,6.9,5.6,7.1-5.6v-7.1l-1.5-12.8-4.1-1.3v-2.8H575l1.3-3-4.4-1.3h0Zm-2.8,144.2,1.5,2.8-17.1,14.3-9.8,4.3-2.8,1.3-3-1.3,18.4-18.6,1.5,1.5,11.3-4.3h0Z" transform="translate(-465.57 -39.19)"/></svg>