<svg id="Capa_1" data-name="Capa 1" xmlns="http://www.w3.org/2000/svg" viewBox="0 0 259.89 289.7"><defs><style>.cls-1{fill:none;stroke:#8b0000;stroke-miterlimit:10;stroke-opacity:0.75;stroke-width:3px;}</style></defs><title>valles-occidental</title><path id="valles-occidental" class="cls-1" d="M614.94,80.38l-8.4,4.3-1.3,4.3-7.1,1.3-4.3-2.8-5.6-1.3h-12.7l-7.1-1.5-6.9-2.8-2.8,1.3-5.8,7.1h-1.3l-2.8,11.4-5.6,2.8,1.3,9.8-4.3,4.3v4.3l3,8.4v4.3l-5.8,4.1H529l-5.6,5.6H515l-7.1,2.8-2.8-1.3h-5.6l-2.8-2.8-2.8-1.5v-6.9l-3-3-2.8-1.3-2.8,4.3-6.9-7.1-9.9,2.8-5.6,5.6-1.5,1.5-5.6,6.9,1.3,1.5,1.5,15.6,1.3,9.9-5.6,4.1-9.9,2.8-5.6-5.6-1.3,4.3,1.3,14.1-1.3,5.8,4.1,2.8,4.3-1.5,5.6,4.3,5.6,4.1-4.1,2.8,16.9,7.1H477l1.5,7.1,1.3,1.3-1.3,5.8,2.8,2.8,1.3,2.8,2.8,6.9,1.5,5.8,2.8,5.6,2.8,2.8,1.5,1.3,5.6,1.5v12.8l-9.9,2.8-4.3,7.1-4.1,5.6-1.5-1.5-1.3,2.8,2.8,5.8,5.6,4.1,1.3,8.4,7.1,7.1,4.3-4.1v4.1l1.3,2.8,7.1,4.3,4.3-2.8,5.6,5.6,2.8,8.4,2.8,2.8,3,4.49,2.64,3.33,0.69-6.17,2.11-8.56,1.5-5.8h9.9l6.9,3,1.5,6.9,4.1,2.8,1.5,4.3,7.1-2.8,14.1,1.3-1.3,4.3-1.5,2.8v1.5l2.8,4.1,2.8,1.5,1.5,2.8,1.3,5.6,1.5,2.8,1.36,1.5h2.94l-1.5-2.8v-4.3l1.5-1.5-4.3-2.8,1.3-2.8-1.49-3a0.41,0.41,0,0,1,.53-0.56l5.27,2.25h1.5l5.6,2.8,4.1-4.3,4.3,2.8,9.9,4.3,7.1-5.6,2.8-11.4,2.8-2.8h12.8l2.8-2.8,5.6-2.8,2.8-7.1,5.6-2.8,2.8-4.1h5.6l8.6-5.6,2.8,2.8h5.6l4.3-4.3-1.5-1.5-1.3-4.1,1.3-5.6,7.1-4.3v-2.8l-9.9-4.3-5.6-4.1-1.5,2.8-6.9-8.6-1.5-5.6h7.1l5.6-11.3,1.3-1.5-5.6-11.3-4.1-5.6-2.8-9.9-1.5-8.4,2.8-1.5,1.5-2.8,1.3-4.1h4.3v-5.8l-4.3-5.6-2.8-6.9-1.3-3-1.5-8.4-2.8,2.8-14.3,2.8-4.1-19.7-9.9-11.4-2.8-2.8-2.8-2.8h-2.8l-5.6-2.8-3-2.8h-2.8l-2.8-2.8-4.1-7.1-5.6-4.1,4.1-4.3,7.1-2.8,4.1-1.5h9.9l-1.3-11.3,1.3-4.3,2.8-4.1,1.5-4.3-4.3-14.1v-5.8l-5.6,3-10.1-5.7h0Z" transform="translate(-435.85 -78.67)"/></svg>