<svg id="Capa_1" data-name="Capa 1" xmlns="http://www.w3.org/2000/svg" viewBox="0 0 366.81 305.33"><defs><style>.cls-1{fill:none;stroke:#8b0000;stroke-miterlimit:10;stroke-opacity:0.75;stroke-width:3px;}</style></defs><title>valles-oriental</title><path id="valles-oriental" class="cls-1" d="M536.94,181.58l4.1-1.5h5.6l1.5,1.5,5.6-3-2.8-2.8-2.8-1.3,2.8-5.6-1.3-4.3-5.8-2.8-1.3-5.6,1.3-4.3,1.5-2.8v-2.8l-2.8-4.3v-8.4l5.6-8.4,5.6-7.1,1.39-5.41a0,0,0,0,1,.09,0l1.32,4.11,2.8,2.8,12.8,5.6,1.5-4.3,8.4-4.1,11.3,6.9,5.8,4.3,5.6,21.2h8.4l12.8-5.6v-8.4l1.5-5.8-3-5.6,5.8-4.1,8.4-12.8,2.8,1.3,2.8,2.8,14.1,2.8,5.8-2.8h8.4l8.4,7.1,1.5,8.4,8.4,4.3,11.3-4.3-2.8,9.9,9.9,7.1,8.4,5.6h1.5l14.1,2.8,1.5,5.6-2.8,2.8,2.8,4.3-1.5,1.5,7.1,5.6,4.3,5.6-1.5,4.3,2.8,6.9,9.9,4.3,11.3-5.6,5.8-1.5,2.8,1.5,15.6-2.8-1.5,6.9,2.8,4.3-4.1,8.4-4.3,7.1,2.8,8.4,2.8,5.6,2.8,1.5,4.3,5.6,1.3,1.5-6.9,5.6-2.8,9.9H787l-8.4-1.5-14.3,2.8-6.9-1.3-4.3,4.1-2.8,5.6-2.8,7.1-2.8,1.5,1.3,2.8-1.3,4.1-2.8,3-5.8,2.8h-2.8l-5.6,1.3h-4.1l-3,1.5h-4.1l-5.6-7.1-1.34.43-1.46,1.07-4.3-1.5h-8.4l-4.3,1.5-1.5-1.5-4.1,2.8-1.5-2.8h-4.1l-5.8,1.5-2.8-1.5h-4.1l-1.5,1.5-2.8,2.8h-1.3l-7.1,11.3-4.3,4.3-1.3,1.3h-2.8l-5.8,7.1h-2.8V307l-5.6,1.5-12.8,19.7L607.84,341l-2.8-1.5v12.7h-1.5l-1.3,4.3,1.3,1.5-5.6,4.1-7.1,5.6,2.8,2.8,5.8,1.5v4.3l-4.3,6.9-5.6-1.3-5.6,4.1h-1.5l-16.9-1.3-8.6,4.1-2.8,5.8h-2.8v2.8l-5.6,5.6-1.5,2.8-4.1,2.8-2.8-1.3-11.4-1.5h-1.3V403l-9.9-4.3-5.6-4.1-1.5,2.8-6.9-8.6-1.5-5.6h7.1l5.6-11.3,1.3-1.5-5.6-11.3-4.1-5.6-2.8-9.9-1.5-8.4,2.8-1.5,1.5-2.8,1.3-4.1h4.3V321l-4.3-5.6-2.8-6.9-1.3-3-1.5-8.4-2.8,2.8-14.3,2.8L478,283l-9.9-11.4-2.8-2.8-2.8-2.8h-2.8l-5.6-2.8-3-2.8h-2.8l-2.8-2.8-4.1-7.1-5.6-4.1,4.1-4.3,7.1-2.8,4.1-1.5H461l-1.3-11.3,1.3-4.3,2.8-4.1,1.5-4.3-4.3-14.1v-5.8l6.8,1.4,18.4,1.4,14.1-4.2,1.4,1.4,2.8,1.4,1.4,5.7,1.4,2.8,8.5-2.8,2.8-1.4,1.4,2.8v2.8l17-5.7,1.4,4.2,1.4-2.8-1.4-11.3,2.8-5.7-2.8-2.8" transform="translate(-433.57 -104.97)"/></svg>